G04 #@! TF.FileFunction,Legend,Bot*
%FSLAX46Y46*%
G04 Gerber Fmt 4.6, Leading zero omitted, Abs format (unit mm)*
G04 Created by KiCad (PCBNEW 4.0.7) date Fri Jun  7 08:16:43 2019*
%MOMM*%
%LPD*%
G01*
G04 APERTURE LIST*
%ADD10C,0.100000*%
%ADD11C,0.150000*%
%ADD12C,0.120000*%
G04 APERTURE END LIST*
D10*
D11*
X17780000Y-71120000D02*
X17780000Y-17780000D01*
X91440000Y-71120000D02*
X17780000Y-71120000D01*
X91440000Y-17780000D02*
X91440000Y-71120000D01*
X17780000Y-17780000D02*
X91440000Y-17780000D01*
D12*
X49920000Y-26705000D02*
X49920000Y-27905000D01*
X51680000Y-27905000D02*
X51680000Y-26705000D01*
X49140000Y-46447000D02*
X49140000Y-45247000D01*
X47380000Y-45247000D02*
X47380000Y-46447000D01*
X51680000Y-46447000D02*
X51680000Y-45247000D01*
X49920000Y-45247000D02*
X49920000Y-46447000D01*
X44060000Y-46447000D02*
X44060000Y-45247000D01*
X42300000Y-45247000D02*
X42300000Y-46447000D01*
X41520000Y-46447000D02*
X41520000Y-45247000D01*
X39760000Y-45247000D02*
X39760000Y-46447000D01*
X46600000Y-46447000D02*
X46600000Y-45247000D01*
X44840000Y-45247000D02*
X44840000Y-46447000D01*
X38980000Y-46447000D02*
X38980000Y-45247000D01*
X37220000Y-45247000D02*
X37220000Y-46447000D01*
X48739500Y-64062500D02*
X49939500Y-64062500D01*
X49939500Y-62302500D02*
X48739500Y-62302500D01*
X43913500Y-69777500D02*
X45113500Y-69777500D01*
X45113500Y-68017500D02*
X43913500Y-68017500D01*
X39843000Y-60778500D02*
X38643000Y-60778500D01*
X38643000Y-62538500D02*
X39843000Y-62538500D01*
X69460000Y-46447000D02*
X69460000Y-45247000D01*
X67700000Y-45247000D02*
X67700000Y-46447000D01*
X86750000Y-26705000D02*
X86750000Y-27905000D01*
X88510000Y-27905000D02*
X88510000Y-26705000D01*
X72000000Y-46447000D02*
X72000000Y-45247000D01*
X70240000Y-45247000D02*
X70240000Y-46447000D01*
X66920000Y-46447000D02*
X66920000Y-45247000D01*
X65160000Y-45247000D02*
X65160000Y-46447000D01*
X64380000Y-46447000D02*
X64380000Y-45247000D01*
X62620000Y-45247000D02*
X62620000Y-46447000D01*
X61350000Y-32420000D02*
X61350000Y-33620000D01*
X63110000Y-33620000D02*
X63110000Y-32420000D01*
X61840000Y-46447000D02*
X61840000Y-45247000D01*
X60080000Y-45247000D02*
X60080000Y-46447000D01*
X70240000Y-26705000D02*
X70240000Y-27905000D01*
X72000000Y-27905000D02*
X72000000Y-26705000D01*
X67783000Y-26425000D02*
X66583000Y-26425000D01*
X66583000Y-28185000D02*
X67783000Y-28185000D01*
X60036000Y-27949000D02*
X58836000Y-27949000D01*
X58836000Y-29709000D02*
X60036000Y-29709000D01*
X54220000Y-46447000D02*
X54220000Y-45247000D01*
X52460000Y-45247000D02*
X52460000Y-46447000D01*
X56760000Y-46447000D02*
X56760000Y-45247000D01*
X55000000Y-45247000D02*
X55000000Y-46447000D01*
X54746000Y-26705000D02*
X54746000Y-27905000D01*
X56506000Y-27905000D02*
X56506000Y-26705000D01*
X59300000Y-46447000D02*
X59300000Y-45247000D01*
X57540000Y-45247000D02*
X57540000Y-46447000D01*
X77860000Y-26705000D02*
X77860000Y-27905000D01*
X79620000Y-27905000D02*
X79620000Y-26705000D01*
X80400000Y-26705000D02*
X80400000Y-27905000D01*
X82160000Y-27905000D02*
X82160000Y-26705000D01*
X82940000Y-26705000D02*
X82940000Y-27905000D01*
X84700000Y-27905000D02*
X84700000Y-26705000D01*
X74540000Y-46447000D02*
X74540000Y-45247000D01*
X72780000Y-45247000D02*
X72780000Y-46447000D01*
X77080000Y-46447000D02*
X77080000Y-45247000D01*
X75320000Y-45247000D02*
X75320000Y-46447000D01*
X72780000Y-26705000D02*
X72780000Y-27905000D01*
X74540000Y-27905000D02*
X74540000Y-26705000D01*
X75320000Y-26705000D02*
X75320000Y-27905000D01*
X77080000Y-27905000D02*
X77080000Y-26705000D01*
X32420000Y-38980000D02*
X33620000Y-38980000D01*
X33620000Y-37220000D02*
X32420000Y-37220000D01*
D11*
X52952381Y-27138334D02*
X52476190Y-26805000D01*
X52952381Y-26566905D02*
X51952381Y-26566905D01*
X51952381Y-26947858D01*
X52000000Y-27043096D01*
X52047619Y-27090715D01*
X52142857Y-27138334D01*
X52285714Y-27138334D01*
X52380952Y-27090715D01*
X52428571Y-27043096D01*
X52476190Y-26947858D01*
X52476190Y-26566905D01*
X52952381Y-28090715D02*
X52952381Y-27519286D01*
X52952381Y-27805000D02*
X51952381Y-27805000D01*
X52095238Y-27709762D01*
X52190476Y-27614524D01*
X52238095Y-27519286D01*
X48426666Y-49347381D02*
X48760000Y-48871190D01*
X48998095Y-49347381D02*
X48998095Y-48347381D01*
X48617142Y-48347381D01*
X48521904Y-48395000D01*
X48474285Y-48442619D01*
X48426666Y-48537857D01*
X48426666Y-48680714D01*
X48474285Y-48775952D01*
X48521904Y-48823571D01*
X48617142Y-48871190D01*
X48998095Y-48871190D01*
X48045714Y-48442619D02*
X47998095Y-48395000D01*
X47902857Y-48347381D01*
X47664761Y-48347381D01*
X47569523Y-48395000D01*
X47521904Y-48442619D01*
X47474285Y-48537857D01*
X47474285Y-48633095D01*
X47521904Y-48775952D01*
X48093333Y-49347381D01*
X47474285Y-49347381D01*
X50966666Y-49347381D02*
X51300000Y-48871190D01*
X51538095Y-49347381D02*
X51538095Y-48347381D01*
X51157142Y-48347381D01*
X51061904Y-48395000D01*
X51014285Y-48442619D01*
X50966666Y-48537857D01*
X50966666Y-48680714D01*
X51014285Y-48775952D01*
X51061904Y-48823571D01*
X51157142Y-48871190D01*
X51538095Y-48871190D01*
X50633333Y-48347381D02*
X50014285Y-48347381D01*
X50347619Y-48728333D01*
X50204761Y-48728333D01*
X50109523Y-48775952D01*
X50061904Y-48823571D01*
X50014285Y-48918810D01*
X50014285Y-49156905D01*
X50061904Y-49252143D01*
X50109523Y-49299762D01*
X50204761Y-49347381D01*
X50490476Y-49347381D01*
X50585714Y-49299762D01*
X50633333Y-49252143D01*
X43346666Y-49347381D02*
X43680000Y-48871190D01*
X43918095Y-49347381D02*
X43918095Y-48347381D01*
X43537142Y-48347381D01*
X43441904Y-48395000D01*
X43394285Y-48442619D01*
X43346666Y-48537857D01*
X43346666Y-48680714D01*
X43394285Y-48775952D01*
X43441904Y-48823571D01*
X43537142Y-48871190D01*
X43918095Y-48871190D01*
X42489523Y-48680714D02*
X42489523Y-49347381D01*
X42727619Y-48299762D02*
X42965714Y-49014048D01*
X42346666Y-49014048D01*
X40806666Y-49347381D02*
X41140000Y-48871190D01*
X41378095Y-49347381D02*
X41378095Y-48347381D01*
X40997142Y-48347381D01*
X40901904Y-48395000D01*
X40854285Y-48442619D01*
X40806666Y-48537857D01*
X40806666Y-48680714D01*
X40854285Y-48775952D01*
X40901904Y-48823571D01*
X40997142Y-48871190D01*
X41378095Y-48871190D01*
X39901904Y-48347381D02*
X40378095Y-48347381D01*
X40425714Y-48823571D01*
X40378095Y-48775952D01*
X40282857Y-48728333D01*
X40044761Y-48728333D01*
X39949523Y-48775952D01*
X39901904Y-48823571D01*
X39854285Y-48918810D01*
X39854285Y-49156905D01*
X39901904Y-49252143D01*
X39949523Y-49299762D01*
X40044761Y-49347381D01*
X40282857Y-49347381D01*
X40378095Y-49299762D01*
X40425714Y-49252143D01*
X45886666Y-49347381D02*
X46220000Y-48871190D01*
X46458095Y-49347381D02*
X46458095Y-48347381D01*
X46077142Y-48347381D01*
X45981904Y-48395000D01*
X45934285Y-48442619D01*
X45886666Y-48537857D01*
X45886666Y-48680714D01*
X45934285Y-48775952D01*
X45981904Y-48823571D01*
X46077142Y-48871190D01*
X46458095Y-48871190D01*
X45029523Y-48347381D02*
X45220000Y-48347381D01*
X45315238Y-48395000D01*
X45362857Y-48442619D01*
X45458095Y-48585476D01*
X45505714Y-48775952D01*
X45505714Y-49156905D01*
X45458095Y-49252143D01*
X45410476Y-49299762D01*
X45315238Y-49347381D01*
X45124761Y-49347381D01*
X45029523Y-49299762D01*
X44981904Y-49252143D01*
X44934285Y-49156905D01*
X44934285Y-48918810D01*
X44981904Y-48823571D01*
X45029523Y-48775952D01*
X45124761Y-48728333D01*
X45315238Y-48728333D01*
X45410476Y-48775952D01*
X45458095Y-48823571D01*
X45505714Y-48918810D01*
X38266666Y-49347381D02*
X38600000Y-48871190D01*
X38838095Y-49347381D02*
X38838095Y-48347381D01*
X38457142Y-48347381D01*
X38361904Y-48395000D01*
X38314285Y-48442619D01*
X38266666Y-48537857D01*
X38266666Y-48680714D01*
X38314285Y-48775952D01*
X38361904Y-48823571D01*
X38457142Y-48871190D01*
X38838095Y-48871190D01*
X37933333Y-48347381D02*
X37266666Y-48347381D01*
X37695238Y-49347381D01*
X53506666Y-63571381D02*
X53840000Y-63095190D01*
X54078095Y-63571381D02*
X54078095Y-62571381D01*
X53697142Y-62571381D01*
X53601904Y-62619000D01*
X53554285Y-62666619D01*
X53506666Y-62761857D01*
X53506666Y-62904714D01*
X53554285Y-62999952D01*
X53601904Y-63047571D01*
X53697142Y-63095190D01*
X54078095Y-63095190D01*
X52935238Y-62999952D02*
X53030476Y-62952333D01*
X53078095Y-62904714D01*
X53125714Y-62809476D01*
X53125714Y-62761857D01*
X53078095Y-62666619D01*
X53030476Y-62619000D01*
X52935238Y-62571381D01*
X52744761Y-62571381D01*
X52649523Y-62619000D01*
X52601904Y-62666619D01*
X52554285Y-62761857D01*
X52554285Y-62809476D01*
X52601904Y-62904714D01*
X52649523Y-62952333D01*
X52744761Y-62999952D01*
X52935238Y-62999952D01*
X53030476Y-63047571D01*
X53078095Y-63095190D01*
X53125714Y-63190429D01*
X53125714Y-63380905D01*
X53078095Y-63476143D01*
X53030476Y-63523762D01*
X52935238Y-63571381D01*
X52744761Y-63571381D01*
X52649523Y-63523762D01*
X52601904Y-63476143D01*
X52554285Y-63380905D01*
X52554285Y-63190429D01*
X52601904Y-63095190D01*
X52649523Y-63047571D01*
X52744761Y-62999952D01*
X48553666Y-69413381D02*
X48887000Y-68937190D01*
X49125095Y-69413381D02*
X49125095Y-68413381D01*
X48744142Y-68413381D01*
X48648904Y-68461000D01*
X48601285Y-68508619D01*
X48553666Y-68603857D01*
X48553666Y-68746714D01*
X48601285Y-68841952D01*
X48648904Y-68889571D01*
X48744142Y-68937190D01*
X49125095Y-68937190D01*
X48077476Y-69413381D02*
X47887000Y-69413381D01*
X47791761Y-69365762D01*
X47744142Y-69318143D01*
X47648904Y-69175286D01*
X47601285Y-68984810D01*
X47601285Y-68603857D01*
X47648904Y-68508619D01*
X47696523Y-68461000D01*
X47791761Y-68413381D01*
X47982238Y-68413381D01*
X48077476Y-68461000D01*
X48125095Y-68508619D01*
X48172714Y-68603857D01*
X48172714Y-68841952D01*
X48125095Y-68937190D01*
X48077476Y-68984810D01*
X47982238Y-69032429D01*
X47791761Y-69032429D01*
X47696523Y-68984810D01*
X47648904Y-68937190D01*
X47601285Y-68841952D01*
X35567857Y-62047381D02*
X35901191Y-61571190D01*
X36139286Y-62047381D02*
X36139286Y-61047381D01*
X35758333Y-61047381D01*
X35663095Y-61095000D01*
X35615476Y-61142619D01*
X35567857Y-61237857D01*
X35567857Y-61380714D01*
X35615476Y-61475952D01*
X35663095Y-61523571D01*
X35758333Y-61571190D01*
X36139286Y-61571190D01*
X34615476Y-62047381D02*
X35186905Y-62047381D01*
X34901191Y-62047381D02*
X34901191Y-61047381D01*
X34996429Y-61190238D01*
X35091667Y-61285476D01*
X35186905Y-61333095D01*
X33996429Y-61047381D02*
X33901190Y-61047381D01*
X33805952Y-61095000D01*
X33758333Y-61142619D01*
X33710714Y-61237857D01*
X33663095Y-61428333D01*
X33663095Y-61666429D01*
X33710714Y-61856905D01*
X33758333Y-61952143D01*
X33805952Y-61999762D01*
X33901190Y-62047381D01*
X33996429Y-62047381D01*
X34091667Y-61999762D01*
X34139286Y-61952143D01*
X34186905Y-61856905D01*
X34234524Y-61666429D01*
X34234524Y-61428333D01*
X34186905Y-61237857D01*
X34139286Y-61142619D01*
X34091667Y-61095000D01*
X33996429Y-61047381D01*
X69095857Y-49347381D02*
X69429191Y-48871190D01*
X69667286Y-49347381D02*
X69667286Y-48347381D01*
X69286333Y-48347381D01*
X69191095Y-48395000D01*
X69143476Y-48442619D01*
X69095857Y-48537857D01*
X69095857Y-48680714D01*
X69143476Y-48775952D01*
X69191095Y-48823571D01*
X69286333Y-48871190D01*
X69667286Y-48871190D01*
X68143476Y-49347381D02*
X68714905Y-49347381D01*
X68429191Y-49347381D02*
X68429191Y-48347381D01*
X68524429Y-48490238D01*
X68619667Y-48585476D01*
X68714905Y-48633095D01*
X67191095Y-49347381D02*
X67762524Y-49347381D01*
X67476810Y-49347381D02*
X67476810Y-48347381D01*
X67572048Y-48490238D01*
X67667286Y-48585476D01*
X67762524Y-48633095D01*
X89782381Y-26662143D02*
X89306190Y-26328809D01*
X89782381Y-26090714D02*
X88782381Y-26090714D01*
X88782381Y-26471667D01*
X88830000Y-26566905D01*
X88877619Y-26614524D01*
X88972857Y-26662143D01*
X89115714Y-26662143D01*
X89210952Y-26614524D01*
X89258571Y-26566905D01*
X89306190Y-26471667D01*
X89306190Y-26090714D01*
X89782381Y-27614524D02*
X89782381Y-27043095D01*
X89782381Y-27328809D02*
X88782381Y-27328809D01*
X88925238Y-27233571D01*
X89020476Y-27138333D01*
X89068095Y-27043095D01*
X88877619Y-27995476D02*
X88830000Y-28043095D01*
X88782381Y-28138333D01*
X88782381Y-28376429D01*
X88830000Y-28471667D01*
X88877619Y-28519286D01*
X88972857Y-28566905D01*
X89068095Y-28566905D01*
X89210952Y-28519286D01*
X89782381Y-27947857D01*
X89782381Y-28566905D01*
X71889857Y-49347381D02*
X72223191Y-48871190D01*
X72461286Y-49347381D02*
X72461286Y-48347381D01*
X72080333Y-48347381D01*
X71985095Y-48395000D01*
X71937476Y-48442619D01*
X71889857Y-48537857D01*
X71889857Y-48680714D01*
X71937476Y-48775952D01*
X71985095Y-48823571D01*
X72080333Y-48871190D01*
X72461286Y-48871190D01*
X70937476Y-49347381D02*
X71508905Y-49347381D01*
X71223191Y-49347381D02*
X71223191Y-48347381D01*
X71318429Y-48490238D01*
X71413667Y-48585476D01*
X71508905Y-48633095D01*
X70604143Y-48347381D02*
X69985095Y-48347381D01*
X70318429Y-48728333D01*
X70175571Y-48728333D01*
X70080333Y-48775952D01*
X70032714Y-48823571D01*
X69985095Y-48918810D01*
X69985095Y-49156905D01*
X70032714Y-49252143D01*
X70080333Y-49299762D01*
X70175571Y-49347381D01*
X70461286Y-49347381D01*
X70556524Y-49299762D01*
X70604143Y-49252143D01*
X66428857Y-49347381D02*
X66762191Y-48871190D01*
X67000286Y-49347381D02*
X67000286Y-48347381D01*
X66619333Y-48347381D01*
X66524095Y-48395000D01*
X66476476Y-48442619D01*
X66428857Y-48537857D01*
X66428857Y-48680714D01*
X66476476Y-48775952D01*
X66524095Y-48823571D01*
X66619333Y-48871190D01*
X67000286Y-48871190D01*
X65476476Y-49347381D02*
X66047905Y-49347381D01*
X65762191Y-49347381D02*
X65762191Y-48347381D01*
X65857429Y-48490238D01*
X65952667Y-48585476D01*
X66047905Y-48633095D01*
X64619333Y-48680714D02*
X64619333Y-49347381D01*
X64857429Y-48299762D02*
X65095524Y-49014048D01*
X64476476Y-49014048D01*
X63634857Y-49347381D02*
X63968191Y-48871190D01*
X64206286Y-49347381D02*
X64206286Y-48347381D01*
X63825333Y-48347381D01*
X63730095Y-48395000D01*
X63682476Y-48442619D01*
X63634857Y-48537857D01*
X63634857Y-48680714D01*
X63682476Y-48775952D01*
X63730095Y-48823571D01*
X63825333Y-48871190D01*
X64206286Y-48871190D01*
X62682476Y-49347381D02*
X63253905Y-49347381D01*
X62968191Y-49347381D02*
X62968191Y-48347381D01*
X63063429Y-48490238D01*
X63158667Y-48585476D01*
X63253905Y-48633095D01*
X61777714Y-48347381D02*
X62253905Y-48347381D01*
X62301524Y-48823571D01*
X62253905Y-48775952D01*
X62158667Y-48728333D01*
X61920571Y-48728333D01*
X61825333Y-48775952D01*
X61777714Y-48823571D01*
X61730095Y-48918810D01*
X61730095Y-49156905D01*
X61777714Y-49252143D01*
X61825333Y-49299762D01*
X61920571Y-49347381D01*
X62158667Y-49347381D01*
X62253905Y-49299762D01*
X62301524Y-49252143D01*
X64382381Y-32377143D02*
X63906190Y-32043809D01*
X64382381Y-31805714D02*
X63382381Y-31805714D01*
X63382381Y-32186667D01*
X63430000Y-32281905D01*
X63477619Y-32329524D01*
X63572857Y-32377143D01*
X63715714Y-32377143D01*
X63810952Y-32329524D01*
X63858571Y-32281905D01*
X63906190Y-32186667D01*
X63906190Y-31805714D01*
X64382381Y-33329524D02*
X64382381Y-32758095D01*
X64382381Y-33043809D02*
X63382381Y-33043809D01*
X63525238Y-32948571D01*
X63620476Y-32853333D01*
X63668095Y-32758095D01*
X63382381Y-34186667D02*
X63382381Y-33996190D01*
X63430000Y-33900952D01*
X63477619Y-33853333D01*
X63620476Y-33758095D01*
X63810952Y-33710476D01*
X64191905Y-33710476D01*
X64287143Y-33758095D01*
X64334762Y-33805714D01*
X64382381Y-33900952D01*
X64382381Y-34091429D01*
X64334762Y-34186667D01*
X64287143Y-34234286D01*
X64191905Y-34281905D01*
X63953810Y-34281905D01*
X63858571Y-34234286D01*
X63810952Y-34186667D01*
X63763333Y-34091429D01*
X63763333Y-33900952D01*
X63810952Y-33805714D01*
X63858571Y-33758095D01*
X63953810Y-33710476D01*
X61602857Y-43378381D02*
X61936191Y-42902190D01*
X62174286Y-43378381D02*
X62174286Y-42378381D01*
X61793333Y-42378381D01*
X61698095Y-42426000D01*
X61650476Y-42473619D01*
X61602857Y-42568857D01*
X61602857Y-42711714D01*
X61650476Y-42806952D01*
X61698095Y-42854571D01*
X61793333Y-42902190D01*
X62174286Y-42902190D01*
X60650476Y-43378381D02*
X61221905Y-43378381D01*
X60936191Y-43378381D02*
X60936191Y-42378381D01*
X61031429Y-42521238D01*
X61126667Y-42616476D01*
X61221905Y-42664095D01*
X60317143Y-42378381D02*
X59650476Y-42378381D01*
X60079048Y-43378381D01*
X71762857Y-30551381D02*
X72096191Y-30075190D01*
X72334286Y-30551381D02*
X72334286Y-29551381D01*
X71953333Y-29551381D01*
X71858095Y-29599000D01*
X71810476Y-29646619D01*
X71762857Y-29741857D01*
X71762857Y-29884714D01*
X71810476Y-29979952D01*
X71858095Y-30027571D01*
X71953333Y-30075190D01*
X72334286Y-30075190D01*
X70810476Y-30551381D02*
X71381905Y-30551381D01*
X71096191Y-30551381D02*
X71096191Y-29551381D01*
X71191429Y-29694238D01*
X71286667Y-29789476D01*
X71381905Y-29837095D01*
X70239048Y-29979952D02*
X70334286Y-29932333D01*
X70381905Y-29884714D01*
X70429524Y-29789476D01*
X70429524Y-29741857D01*
X70381905Y-29646619D01*
X70334286Y-29599000D01*
X70239048Y-29551381D01*
X70048571Y-29551381D01*
X69953333Y-29599000D01*
X69905714Y-29646619D01*
X69858095Y-29741857D01*
X69858095Y-29789476D01*
X69905714Y-29884714D01*
X69953333Y-29932333D01*
X70048571Y-29979952D01*
X70239048Y-29979952D01*
X70334286Y-30027571D01*
X70381905Y-30075190D01*
X70429524Y-30170429D01*
X70429524Y-30360905D01*
X70381905Y-30456143D01*
X70334286Y-30503762D01*
X70239048Y-30551381D01*
X70048571Y-30551381D01*
X69953333Y-30503762D01*
X69905714Y-30456143D01*
X69858095Y-30360905D01*
X69858095Y-30170429D01*
X69905714Y-30075190D01*
X69953333Y-30027571D01*
X70048571Y-29979952D01*
X67825857Y-29457381D02*
X68159191Y-28981190D01*
X68397286Y-29457381D02*
X68397286Y-28457381D01*
X68016333Y-28457381D01*
X67921095Y-28505000D01*
X67873476Y-28552619D01*
X67825857Y-28647857D01*
X67825857Y-28790714D01*
X67873476Y-28885952D01*
X67921095Y-28933571D01*
X68016333Y-28981190D01*
X68397286Y-28981190D01*
X66873476Y-29457381D02*
X67444905Y-29457381D01*
X67159191Y-29457381D02*
X67159191Y-28457381D01*
X67254429Y-28600238D01*
X67349667Y-28695476D01*
X67444905Y-28743095D01*
X66397286Y-29457381D02*
X66206810Y-29457381D01*
X66111571Y-29409762D01*
X66063952Y-29362143D01*
X65968714Y-29219286D01*
X65921095Y-29028810D01*
X65921095Y-28647857D01*
X65968714Y-28552619D01*
X66016333Y-28505000D01*
X66111571Y-28457381D01*
X66302048Y-28457381D01*
X66397286Y-28505000D01*
X66444905Y-28552619D01*
X66492524Y-28647857D01*
X66492524Y-28885952D01*
X66444905Y-28981190D01*
X66397286Y-29028810D01*
X66302048Y-29076429D01*
X66111571Y-29076429D01*
X66016333Y-29028810D01*
X65968714Y-28981190D01*
X65921095Y-28885952D01*
X60078857Y-30981381D02*
X60412191Y-30505190D01*
X60650286Y-30981381D02*
X60650286Y-29981381D01*
X60269333Y-29981381D01*
X60174095Y-30029000D01*
X60126476Y-30076619D01*
X60078857Y-30171857D01*
X60078857Y-30314714D01*
X60126476Y-30409952D01*
X60174095Y-30457571D01*
X60269333Y-30505190D01*
X60650286Y-30505190D01*
X59697905Y-30076619D02*
X59650286Y-30029000D01*
X59555048Y-29981381D01*
X59316952Y-29981381D01*
X59221714Y-30029000D01*
X59174095Y-30076619D01*
X59126476Y-30171857D01*
X59126476Y-30267095D01*
X59174095Y-30409952D01*
X59745524Y-30981381D01*
X59126476Y-30981381D01*
X58507429Y-29981381D02*
X58412190Y-29981381D01*
X58316952Y-30029000D01*
X58269333Y-30076619D01*
X58221714Y-30171857D01*
X58174095Y-30362333D01*
X58174095Y-30600429D01*
X58221714Y-30790905D01*
X58269333Y-30886143D01*
X58316952Y-30933762D01*
X58412190Y-30981381D01*
X58507429Y-30981381D01*
X58602667Y-30933762D01*
X58650286Y-30886143D01*
X58697905Y-30790905D01*
X58745524Y-30600429D01*
X58745524Y-30362333D01*
X58697905Y-30171857D01*
X58650286Y-30076619D01*
X58602667Y-30029000D01*
X58507429Y-29981381D01*
X53982857Y-49347381D02*
X54316191Y-48871190D01*
X54554286Y-49347381D02*
X54554286Y-48347381D01*
X54173333Y-48347381D01*
X54078095Y-48395000D01*
X54030476Y-48442619D01*
X53982857Y-48537857D01*
X53982857Y-48680714D01*
X54030476Y-48775952D01*
X54078095Y-48823571D01*
X54173333Y-48871190D01*
X54554286Y-48871190D01*
X53601905Y-48442619D02*
X53554286Y-48395000D01*
X53459048Y-48347381D01*
X53220952Y-48347381D01*
X53125714Y-48395000D01*
X53078095Y-48442619D01*
X53030476Y-48537857D01*
X53030476Y-48633095D01*
X53078095Y-48775952D01*
X53649524Y-49347381D01*
X53030476Y-49347381D01*
X52078095Y-49347381D02*
X52649524Y-49347381D01*
X52363810Y-49347381D02*
X52363810Y-48347381D01*
X52459048Y-48490238D01*
X52554286Y-48585476D01*
X52649524Y-48633095D01*
X56522857Y-43378381D02*
X56856191Y-42902190D01*
X57094286Y-43378381D02*
X57094286Y-42378381D01*
X56713333Y-42378381D01*
X56618095Y-42426000D01*
X56570476Y-42473619D01*
X56522857Y-42568857D01*
X56522857Y-42711714D01*
X56570476Y-42806952D01*
X56618095Y-42854571D01*
X56713333Y-42902190D01*
X57094286Y-42902190D01*
X56141905Y-42473619D02*
X56094286Y-42426000D01*
X55999048Y-42378381D01*
X55760952Y-42378381D01*
X55665714Y-42426000D01*
X55618095Y-42473619D01*
X55570476Y-42568857D01*
X55570476Y-42664095D01*
X55618095Y-42806952D01*
X56189524Y-43378381D01*
X55570476Y-43378381D01*
X55189524Y-42473619D02*
X55141905Y-42426000D01*
X55046667Y-42378381D01*
X54808571Y-42378381D01*
X54713333Y-42426000D01*
X54665714Y-42473619D01*
X54618095Y-42568857D01*
X54618095Y-42664095D01*
X54665714Y-42806952D01*
X55237143Y-43378381D01*
X54618095Y-43378381D01*
X57778381Y-26662143D02*
X57302190Y-26328809D01*
X57778381Y-26090714D02*
X56778381Y-26090714D01*
X56778381Y-26471667D01*
X56826000Y-26566905D01*
X56873619Y-26614524D01*
X56968857Y-26662143D01*
X57111714Y-26662143D01*
X57206952Y-26614524D01*
X57254571Y-26566905D01*
X57302190Y-26471667D01*
X57302190Y-26090714D01*
X56873619Y-27043095D02*
X56826000Y-27090714D01*
X56778381Y-27185952D01*
X56778381Y-27424048D01*
X56826000Y-27519286D01*
X56873619Y-27566905D01*
X56968857Y-27614524D01*
X57064095Y-27614524D01*
X57206952Y-27566905D01*
X57778381Y-26995476D01*
X57778381Y-27614524D01*
X56778381Y-27947857D02*
X56778381Y-28566905D01*
X57159333Y-28233571D01*
X57159333Y-28376429D01*
X57206952Y-28471667D01*
X57254571Y-28519286D01*
X57349810Y-28566905D01*
X57587905Y-28566905D01*
X57683143Y-28519286D01*
X57730762Y-28471667D01*
X57778381Y-28376429D01*
X57778381Y-28090714D01*
X57730762Y-27995476D01*
X57683143Y-27947857D01*
X59062857Y-49347381D02*
X59396191Y-48871190D01*
X59634286Y-49347381D02*
X59634286Y-48347381D01*
X59253333Y-48347381D01*
X59158095Y-48395000D01*
X59110476Y-48442619D01*
X59062857Y-48537857D01*
X59062857Y-48680714D01*
X59110476Y-48775952D01*
X59158095Y-48823571D01*
X59253333Y-48871190D01*
X59634286Y-48871190D01*
X58681905Y-48442619D02*
X58634286Y-48395000D01*
X58539048Y-48347381D01*
X58300952Y-48347381D01*
X58205714Y-48395000D01*
X58158095Y-48442619D01*
X58110476Y-48537857D01*
X58110476Y-48633095D01*
X58158095Y-48775952D01*
X58729524Y-49347381D01*
X58110476Y-49347381D01*
X57253333Y-48680714D02*
X57253333Y-49347381D01*
X57491429Y-48299762D02*
X57729524Y-49014048D01*
X57110476Y-49014048D01*
X79382857Y-25090381D02*
X79716191Y-24614190D01*
X79954286Y-25090381D02*
X79954286Y-24090381D01*
X79573333Y-24090381D01*
X79478095Y-24138000D01*
X79430476Y-24185619D01*
X79382857Y-24280857D01*
X79382857Y-24423714D01*
X79430476Y-24518952D01*
X79478095Y-24566571D01*
X79573333Y-24614190D01*
X79954286Y-24614190D01*
X79001905Y-24185619D02*
X78954286Y-24138000D01*
X78859048Y-24090381D01*
X78620952Y-24090381D01*
X78525714Y-24138000D01*
X78478095Y-24185619D01*
X78430476Y-24280857D01*
X78430476Y-24376095D01*
X78478095Y-24518952D01*
X79049524Y-25090381D01*
X78430476Y-25090381D01*
X77525714Y-24090381D02*
X78001905Y-24090381D01*
X78049524Y-24566571D01*
X78001905Y-24518952D01*
X77906667Y-24471333D01*
X77668571Y-24471333D01*
X77573333Y-24518952D01*
X77525714Y-24566571D01*
X77478095Y-24661810D01*
X77478095Y-24899905D01*
X77525714Y-24995143D01*
X77573333Y-25042762D01*
X77668571Y-25090381D01*
X77906667Y-25090381D01*
X78001905Y-25042762D01*
X78049524Y-24995143D01*
X81922857Y-30551381D02*
X82256191Y-30075190D01*
X82494286Y-30551381D02*
X82494286Y-29551381D01*
X82113333Y-29551381D01*
X82018095Y-29599000D01*
X81970476Y-29646619D01*
X81922857Y-29741857D01*
X81922857Y-29884714D01*
X81970476Y-29979952D01*
X82018095Y-30027571D01*
X82113333Y-30075190D01*
X82494286Y-30075190D01*
X81541905Y-29646619D02*
X81494286Y-29599000D01*
X81399048Y-29551381D01*
X81160952Y-29551381D01*
X81065714Y-29599000D01*
X81018095Y-29646619D01*
X80970476Y-29741857D01*
X80970476Y-29837095D01*
X81018095Y-29979952D01*
X81589524Y-30551381D01*
X80970476Y-30551381D01*
X80113333Y-29551381D02*
X80303810Y-29551381D01*
X80399048Y-29599000D01*
X80446667Y-29646619D01*
X80541905Y-29789476D01*
X80589524Y-29979952D01*
X80589524Y-30360905D01*
X80541905Y-30456143D01*
X80494286Y-30503762D01*
X80399048Y-30551381D01*
X80208571Y-30551381D01*
X80113333Y-30503762D01*
X80065714Y-30456143D01*
X80018095Y-30360905D01*
X80018095Y-30122810D01*
X80065714Y-30027571D01*
X80113333Y-29979952D01*
X80208571Y-29932333D01*
X80399048Y-29932333D01*
X80494286Y-29979952D01*
X80541905Y-30027571D01*
X80589524Y-30122810D01*
X85972381Y-26662143D02*
X85496190Y-26328809D01*
X85972381Y-26090714D02*
X84972381Y-26090714D01*
X84972381Y-26471667D01*
X85020000Y-26566905D01*
X85067619Y-26614524D01*
X85162857Y-26662143D01*
X85305714Y-26662143D01*
X85400952Y-26614524D01*
X85448571Y-26566905D01*
X85496190Y-26471667D01*
X85496190Y-26090714D01*
X85067619Y-27043095D02*
X85020000Y-27090714D01*
X84972381Y-27185952D01*
X84972381Y-27424048D01*
X85020000Y-27519286D01*
X85067619Y-27566905D01*
X85162857Y-27614524D01*
X85258095Y-27614524D01*
X85400952Y-27566905D01*
X85972381Y-26995476D01*
X85972381Y-27614524D01*
X84972381Y-27947857D02*
X84972381Y-28614524D01*
X85972381Y-28185952D01*
X74810857Y-49347381D02*
X75144191Y-48871190D01*
X75382286Y-49347381D02*
X75382286Y-48347381D01*
X75001333Y-48347381D01*
X74906095Y-48395000D01*
X74858476Y-48442619D01*
X74810857Y-48537857D01*
X74810857Y-48680714D01*
X74858476Y-48775952D01*
X74906095Y-48823571D01*
X75001333Y-48871190D01*
X75382286Y-48871190D01*
X74429905Y-48442619D02*
X74382286Y-48395000D01*
X74287048Y-48347381D01*
X74048952Y-48347381D01*
X73953714Y-48395000D01*
X73906095Y-48442619D01*
X73858476Y-48537857D01*
X73858476Y-48633095D01*
X73906095Y-48775952D01*
X74477524Y-49347381D01*
X73858476Y-49347381D01*
X73287048Y-48775952D02*
X73382286Y-48728333D01*
X73429905Y-48680714D01*
X73477524Y-48585476D01*
X73477524Y-48537857D01*
X73429905Y-48442619D01*
X73382286Y-48395000D01*
X73287048Y-48347381D01*
X73096571Y-48347381D01*
X73001333Y-48395000D01*
X72953714Y-48442619D01*
X72906095Y-48537857D01*
X72906095Y-48585476D01*
X72953714Y-48680714D01*
X73001333Y-48728333D01*
X73096571Y-48775952D01*
X73287048Y-48775952D01*
X73382286Y-48823571D01*
X73429905Y-48871190D01*
X73477524Y-48966429D01*
X73477524Y-49156905D01*
X73429905Y-49252143D01*
X73382286Y-49299762D01*
X73287048Y-49347381D01*
X73096571Y-49347381D01*
X73001333Y-49299762D01*
X72953714Y-49252143D01*
X72906095Y-49156905D01*
X72906095Y-48966429D01*
X72953714Y-48871190D01*
X73001333Y-48823571D01*
X73096571Y-48775952D01*
X76842857Y-43378381D02*
X77176191Y-42902190D01*
X77414286Y-43378381D02*
X77414286Y-42378381D01*
X77033333Y-42378381D01*
X76938095Y-42426000D01*
X76890476Y-42473619D01*
X76842857Y-42568857D01*
X76842857Y-42711714D01*
X76890476Y-42806952D01*
X76938095Y-42854571D01*
X77033333Y-42902190D01*
X77414286Y-42902190D01*
X76461905Y-42473619D02*
X76414286Y-42426000D01*
X76319048Y-42378381D01*
X76080952Y-42378381D01*
X75985714Y-42426000D01*
X75938095Y-42473619D01*
X75890476Y-42568857D01*
X75890476Y-42664095D01*
X75938095Y-42806952D01*
X76509524Y-43378381D01*
X75890476Y-43378381D01*
X75414286Y-43378381D02*
X75223810Y-43378381D01*
X75128571Y-43330762D01*
X75080952Y-43283143D01*
X74985714Y-43140286D01*
X74938095Y-42949810D01*
X74938095Y-42568857D01*
X74985714Y-42473619D01*
X75033333Y-42426000D01*
X75128571Y-42378381D01*
X75319048Y-42378381D01*
X75414286Y-42426000D01*
X75461905Y-42473619D01*
X75509524Y-42568857D01*
X75509524Y-42806952D01*
X75461905Y-42902190D01*
X75414286Y-42949810D01*
X75319048Y-42997429D01*
X75128571Y-42997429D01*
X75033333Y-42949810D01*
X74985714Y-42902190D01*
X74938095Y-42806952D01*
X74302857Y-25090381D02*
X74636191Y-24614190D01*
X74874286Y-25090381D02*
X74874286Y-24090381D01*
X74493333Y-24090381D01*
X74398095Y-24138000D01*
X74350476Y-24185619D01*
X74302857Y-24280857D01*
X74302857Y-24423714D01*
X74350476Y-24518952D01*
X74398095Y-24566571D01*
X74493333Y-24614190D01*
X74874286Y-24614190D01*
X73969524Y-24090381D02*
X73350476Y-24090381D01*
X73683810Y-24471333D01*
X73540952Y-24471333D01*
X73445714Y-24518952D01*
X73398095Y-24566571D01*
X73350476Y-24661810D01*
X73350476Y-24899905D01*
X73398095Y-24995143D01*
X73445714Y-25042762D01*
X73540952Y-25090381D01*
X73826667Y-25090381D01*
X73921905Y-25042762D01*
X73969524Y-24995143D01*
X72731429Y-24090381D02*
X72636190Y-24090381D01*
X72540952Y-24138000D01*
X72493333Y-24185619D01*
X72445714Y-24280857D01*
X72398095Y-24471333D01*
X72398095Y-24709429D01*
X72445714Y-24899905D01*
X72493333Y-24995143D01*
X72540952Y-25042762D01*
X72636190Y-25090381D01*
X72731429Y-25090381D01*
X72826667Y-25042762D01*
X72874286Y-24995143D01*
X72921905Y-24899905D01*
X72969524Y-24709429D01*
X72969524Y-24471333D01*
X72921905Y-24280857D01*
X72874286Y-24185619D01*
X72826667Y-24138000D01*
X72731429Y-24090381D01*
X76842857Y-30551381D02*
X77176191Y-30075190D01*
X77414286Y-30551381D02*
X77414286Y-29551381D01*
X77033333Y-29551381D01*
X76938095Y-29599000D01*
X76890476Y-29646619D01*
X76842857Y-29741857D01*
X76842857Y-29884714D01*
X76890476Y-29979952D01*
X76938095Y-30027571D01*
X77033333Y-30075190D01*
X77414286Y-30075190D01*
X76509524Y-29551381D02*
X75890476Y-29551381D01*
X76223810Y-29932333D01*
X76080952Y-29932333D01*
X75985714Y-29979952D01*
X75938095Y-30027571D01*
X75890476Y-30122810D01*
X75890476Y-30360905D01*
X75938095Y-30456143D01*
X75985714Y-30503762D01*
X76080952Y-30551381D01*
X76366667Y-30551381D01*
X76461905Y-30503762D01*
X76509524Y-30456143D01*
X74938095Y-30551381D02*
X75509524Y-30551381D01*
X75223810Y-30551381D02*
X75223810Y-29551381D01*
X75319048Y-29694238D01*
X75414286Y-29789476D01*
X75509524Y-29837095D01*
X33662857Y-36852381D02*
X33996191Y-36376190D01*
X34234286Y-36852381D02*
X34234286Y-35852381D01*
X33853333Y-35852381D01*
X33758095Y-35900000D01*
X33710476Y-35947619D01*
X33662857Y-36042857D01*
X33662857Y-36185714D01*
X33710476Y-36280952D01*
X33758095Y-36328571D01*
X33853333Y-36376190D01*
X34234286Y-36376190D01*
X33329524Y-35852381D02*
X32710476Y-35852381D01*
X33043810Y-36233333D01*
X32900952Y-36233333D01*
X32805714Y-36280952D01*
X32758095Y-36328571D01*
X32710476Y-36423810D01*
X32710476Y-36661905D01*
X32758095Y-36757143D01*
X32805714Y-36804762D01*
X32900952Y-36852381D01*
X33186667Y-36852381D01*
X33281905Y-36804762D01*
X33329524Y-36757143D01*
X32329524Y-35947619D02*
X32281905Y-35900000D01*
X32186667Y-35852381D01*
X31948571Y-35852381D01*
X31853333Y-35900000D01*
X31805714Y-35947619D01*
X31758095Y-36042857D01*
X31758095Y-36138095D01*
X31805714Y-36280952D01*
X32377143Y-36852381D01*
X31758095Y-36852381D01*
M02*
