G04 #@! TF.FileFunction,Legend,Top*
%FSLAX46Y46*%
G04 Gerber Fmt 4.6, Leading zero omitted, Abs format (unit mm)*
G04 Created by KiCad (PCBNEW 4.0.7) date Fri Jun  7 08:16:43 2019*
%MOMM*%
%LPD*%
G01*
G04 APERTURE LIST*
%ADD10C,0.100000*%
%ADD11C,0.300000*%
%ADD12C,0.200000*%
%ADD13C,0.150000*%
%ADD14C,0.120000*%
G04 APERTURE END LIST*
D10*
D11*
X19407143Y-20866571D02*
X19407143Y-19366571D01*
X20264286Y-20866571D02*
X19621429Y-20009429D01*
X20264286Y-19366571D02*
X19407143Y-20223714D01*
X20907143Y-20866571D02*
X20907143Y-19866571D01*
X20907143Y-19366571D02*
X20835714Y-19438000D01*
X20907143Y-19509429D01*
X20978571Y-19438000D01*
X20907143Y-19366571D01*
X20907143Y-19509429D01*
X21407143Y-19866571D02*
X21978572Y-19866571D01*
X21621429Y-19366571D02*
X21621429Y-20652286D01*
X21692857Y-20795143D01*
X21835715Y-20866571D01*
X21978572Y-20866571D01*
X23121429Y-20795143D02*
X22978572Y-20866571D01*
X22692858Y-20866571D01*
X22550000Y-20795143D01*
X22478572Y-20723714D01*
X22407143Y-20580857D01*
X22407143Y-20152286D01*
X22478572Y-20009429D01*
X22550000Y-19938000D01*
X22692858Y-19866571D01*
X22978572Y-19866571D01*
X23121429Y-19938000D01*
X23764286Y-20866571D02*
X23764286Y-19366571D01*
X24407143Y-20866571D02*
X24407143Y-20080857D01*
X24335714Y-19938000D01*
X24192857Y-19866571D01*
X23978572Y-19866571D01*
X23835714Y-19938000D01*
X23764286Y-20009429D01*
X25692857Y-20795143D02*
X25550000Y-20866571D01*
X25264286Y-20866571D01*
X25121429Y-20795143D01*
X25050000Y-20652286D01*
X25050000Y-20080857D01*
X25121429Y-19938000D01*
X25264286Y-19866571D01*
X25550000Y-19866571D01*
X25692857Y-19938000D01*
X25764286Y-20080857D01*
X25764286Y-20223714D01*
X25050000Y-20366571D01*
X26407143Y-19866571D02*
X26407143Y-20866571D01*
X26407143Y-20009429D02*
X26478571Y-19938000D01*
X26621429Y-19866571D01*
X26835714Y-19866571D01*
X26978571Y-19938000D01*
X27050000Y-20080857D01*
X27050000Y-20866571D01*
X28692857Y-19366571D02*
X29550000Y-19366571D01*
X29121429Y-20866571D02*
X29121429Y-19366571D01*
X30050000Y-20866571D02*
X30050000Y-19866571D01*
X30050000Y-19366571D02*
X29978571Y-19438000D01*
X30050000Y-19509429D01*
X30121428Y-19438000D01*
X30050000Y-19366571D01*
X30050000Y-19509429D01*
X30764286Y-20866571D02*
X30764286Y-19866571D01*
X30764286Y-20009429D02*
X30835714Y-19938000D01*
X30978572Y-19866571D01*
X31192857Y-19866571D01*
X31335714Y-19938000D01*
X31407143Y-20080857D01*
X31407143Y-20866571D01*
X31407143Y-20080857D02*
X31478572Y-19938000D01*
X31621429Y-19866571D01*
X31835714Y-19866571D01*
X31978572Y-19938000D01*
X32050000Y-20080857D01*
X32050000Y-20866571D01*
X33335714Y-20795143D02*
X33192857Y-20866571D01*
X32907143Y-20866571D01*
X32764286Y-20795143D01*
X32692857Y-20652286D01*
X32692857Y-20080857D01*
X32764286Y-19938000D01*
X32907143Y-19866571D01*
X33192857Y-19866571D01*
X33335714Y-19938000D01*
X33407143Y-20080857D01*
X33407143Y-20223714D01*
X32692857Y-20366571D01*
X34050000Y-20866571D02*
X34050000Y-19866571D01*
X34050000Y-20152286D02*
X34121428Y-20009429D01*
X34192857Y-19938000D01*
X34335714Y-19866571D01*
X34478571Y-19866571D01*
X19264286Y-22416571D02*
X19621429Y-23416571D01*
X19978571Y-22416571D01*
X21335714Y-23416571D02*
X20478571Y-23416571D01*
X20907143Y-23416571D02*
X20907143Y-21916571D01*
X20764286Y-22130857D01*
X20621428Y-22273714D01*
X20478571Y-22345143D01*
X21978571Y-23273714D02*
X22049999Y-23345143D01*
X21978571Y-23416571D01*
X21907142Y-23345143D01*
X21978571Y-23273714D01*
X21978571Y-23416571D01*
X22978571Y-21916571D02*
X23121428Y-21916571D01*
X23264285Y-21988000D01*
X23335714Y-22059429D01*
X23407143Y-22202286D01*
X23478571Y-22488000D01*
X23478571Y-22845143D01*
X23407143Y-23130857D01*
X23335714Y-23273714D01*
X23264285Y-23345143D01*
X23121428Y-23416571D01*
X22978571Y-23416571D01*
X22835714Y-23345143D01*
X22764285Y-23273714D01*
X22692857Y-23130857D01*
X22621428Y-22845143D01*
X22621428Y-22488000D01*
X22692857Y-22202286D01*
X22764285Y-22059429D01*
X22835714Y-21988000D01*
X22978571Y-21916571D01*
D12*
X57785000Y-64770000D02*
X57912000Y-64770000D01*
X57658000Y-64516000D02*
X57658000Y-64770000D01*
X57531000Y-64897000D02*
X57531000Y-64262000D01*
X58166000Y-64897000D02*
X57531000Y-64897000D01*
X57531000Y-64262000D02*
X58166000Y-64897000D01*
X54483000Y-60706000D02*
X54356000Y-60833000D01*
X54102000Y-60706000D02*
X54483000Y-60706000D01*
X54483000Y-61087000D02*
X54102000Y-60706000D01*
X54483000Y-60579000D02*
X54483000Y-61087000D01*
X53848000Y-60579000D02*
X54483000Y-60579000D01*
X54483000Y-61214000D02*
X53848000Y-60579000D01*
X56896000Y-65786000D02*
X57023000Y-65659000D01*
X56388000Y-65786000D02*
X57023000Y-65151000D01*
X57023000Y-64643000D02*
X56388000Y-65278000D01*
X55880000Y-65786000D02*
X57023000Y-64643000D01*
X55372000Y-65786000D02*
X57023000Y-64135000D01*
X54864000Y-65786000D02*
X56896000Y-63754000D01*
X54356000Y-65786000D02*
X56388000Y-63754000D01*
X53848000Y-65786000D02*
X55880000Y-63754000D01*
X53340000Y-65786000D02*
X55372000Y-63754000D01*
X54991000Y-63627000D02*
X54991000Y-63500000D01*
X52959000Y-65659000D02*
X54991000Y-63627000D01*
X52959000Y-65151000D02*
X54991000Y-63119000D01*
X52959000Y-64643000D02*
X54991000Y-62611000D01*
X52959000Y-64135000D02*
X54991000Y-62103000D01*
X52959000Y-63627000D02*
X54864000Y-61722000D01*
X52959000Y-63119000D02*
X54356000Y-61722000D01*
X52959000Y-62611000D02*
X53848000Y-61722000D01*
X52959000Y-62103000D02*
X53340000Y-61722000D01*
X56642000Y-63754000D02*
X57023000Y-63373000D01*
X55626000Y-63754000D02*
X57023000Y-62357000D01*
X54991000Y-63246000D02*
X56515000Y-61722000D01*
X54991000Y-62230000D02*
X55499000Y-61722000D01*
X58622090Y-62738000D02*
G75*
G03X58622090Y-62738000I-2615090J0D01*
G01*
X52959000Y-61722000D02*
X57023000Y-61722000D01*
X52959000Y-65786000D02*
X52959000Y-61722000D01*
X57023000Y-65786000D02*
X52959000Y-65786000D01*
X57023000Y-61722000D02*
X57023000Y-65786000D01*
X54991000Y-59690000D02*
X59055000Y-59690000D01*
X54991000Y-63754000D02*
X54991000Y-59690000D01*
X59055000Y-63754000D02*
X54991000Y-63754000D01*
X59055000Y-59690000D02*
X59055000Y-63754000D01*
D11*
X60630857Y-64274000D02*
X60488000Y-64202571D01*
X60273714Y-64202571D01*
X60059429Y-64274000D01*
X59916571Y-64416857D01*
X59845143Y-64559714D01*
X59773714Y-64845429D01*
X59773714Y-65059714D01*
X59845143Y-65345429D01*
X59916571Y-65488286D01*
X60059429Y-65631143D01*
X60273714Y-65702571D01*
X60416571Y-65702571D01*
X60630857Y-65631143D01*
X60702286Y-65559714D01*
X60702286Y-65059714D01*
X60416571Y-65059714D01*
X61345143Y-65702571D02*
X61345143Y-64702571D01*
X61345143Y-64988286D02*
X61416571Y-64845429D01*
X61488000Y-64774000D01*
X61630857Y-64702571D01*
X61773714Y-64702571D01*
X62488000Y-65702571D02*
X62345142Y-65631143D01*
X62273714Y-65559714D01*
X62202285Y-65416857D01*
X62202285Y-64988286D01*
X62273714Y-64845429D01*
X62345142Y-64774000D01*
X62488000Y-64702571D01*
X62702285Y-64702571D01*
X62845142Y-64774000D01*
X62916571Y-64845429D01*
X62988000Y-64988286D01*
X62988000Y-65416857D01*
X62916571Y-65559714D01*
X62845142Y-65631143D01*
X62702285Y-65702571D01*
X62488000Y-65702571D01*
X64273714Y-64702571D02*
X64273714Y-65702571D01*
X63630857Y-64702571D02*
X63630857Y-65488286D01*
X63702285Y-65631143D01*
X63845143Y-65702571D01*
X64059428Y-65702571D01*
X64202285Y-65631143D01*
X64273714Y-65559714D01*
X64988000Y-64702571D02*
X64988000Y-66202571D01*
X64988000Y-64774000D02*
X65130857Y-64702571D01*
X65416571Y-64702571D01*
X65559428Y-64774000D01*
X65630857Y-64845429D01*
X65702286Y-64988286D01*
X65702286Y-65416857D01*
X65630857Y-65559714D01*
X65559428Y-65631143D01*
X65416571Y-65702571D01*
X65130857Y-65702571D01*
X64988000Y-65631143D01*
X59849286Y-63345143D02*
X60063572Y-63416571D01*
X60420715Y-63416571D01*
X60563572Y-63345143D01*
X60635001Y-63273714D01*
X60706429Y-63130857D01*
X60706429Y-62988000D01*
X60635001Y-62845143D01*
X60563572Y-62773714D01*
X60420715Y-62702286D01*
X60135001Y-62630857D01*
X59992143Y-62559429D01*
X59920715Y-62488000D01*
X59849286Y-62345143D01*
X59849286Y-62202286D01*
X59920715Y-62059429D01*
X59992143Y-61988000D01*
X60135001Y-61916571D01*
X60492143Y-61916571D01*
X60706429Y-61988000D01*
X61206429Y-62416571D02*
X61563572Y-63416571D01*
X61920714Y-62416571D02*
X61563572Y-63416571D01*
X61420714Y-63773714D01*
X61349286Y-63845143D01*
X61206429Y-63916571D01*
X62420714Y-63345143D02*
X62563571Y-63416571D01*
X62849286Y-63416571D01*
X62992143Y-63345143D01*
X63063571Y-63202286D01*
X63063571Y-63130857D01*
X62992143Y-62988000D01*
X62849286Y-62916571D01*
X62635000Y-62916571D01*
X62492143Y-62845143D01*
X62420714Y-62702286D01*
X62420714Y-62630857D01*
X62492143Y-62488000D01*
X62635000Y-62416571D01*
X62849286Y-62416571D01*
X62992143Y-62488000D01*
X63492143Y-62416571D02*
X64063572Y-62416571D01*
X63706429Y-61916571D02*
X63706429Y-63202286D01*
X63777857Y-63345143D01*
X63920715Y-63416571D01*
X64063572Y-63416571D01*
X65135000Y-63345143D02*
X64992143Y-63416571D01*
X64706429Y-63416571D01*
X64563572Y-63345143D01*
X64492143Y-63202286D01*
X64492143Y-62630857D01*
X64563572Y-62488000D01*
X64706429Y-62416571D01*
X64992143Y-62416571D01*
X65135000Y-62488000D01*
X65206429Y-62630857D01*
X65206429Y-62773714D01*
X64492143Y-62916571D01*
X65849286Y-63416571D02*
X65849286Y-62416571D01*
X65849286Y-62559429D02*
X65920714Y-62488000D01*
X66063572Y-62416571D01*
X66277857Y-62416571D01*
X66420714Y-62488000D01*
X66492143Y-62630857D01*
X66492143Y-63416571D01*
X66492143Y-62630857D02*
X66563572Y-62488000D01*
X66706429Y-62416571D01*
X66920714Y-62416571D01*
X67063572Y-62488000D01*
X67135000Y-62630857D01*
X67135000Y-63416571D01*
X67777857Y-63345143D02*
X67920714Y-63416571D01*
X68206429Y-63416571D01*
X68349286Y-63345143D01*
X68420714Y-63202286D01*
X68420714Y-63130857D01*
X68349286Y-62988000D01*
X68206429Y-62916571D01*
X67992143Y-62916571D01*
X67849286Y-62845143D01*
X67777857Y-62702286D01*
X67777857Y-62630857D01*
X67849286Y-62488000D01*
X67992143Y-62416571D01*
X68206429Y-62416571D01*
X68349286Y-62488000D01*
X60825572Y-61257571D02*
X60325572Y-60543286D01*
X59968429Y-61257571D02*
X59968429Y-59757571D01*
X60539857Y-59757571D01*
X60682715Y-59829000D01*
X60754143Y-59900429D01*
X60825572Y-60043286D01*
X60825572Y-60257571D01*
X60754143Y-60400429D01*
X60682715Y-60471857D01*
X60539857Y-60543286D01*
X59968429Y-60543286D01*
X62039857Y-61186143D02*
X61897000Y-61257571D01*
X61611286Y-61257571D01*
X61468429Y-61186143D01*
X61397000Y-61043286D01*
X61397000Y-60471857D01*
X61468429Y-60329000D01*
X61611286Y-60257571D01*
X61897000Y-60257571D01*
X62039857Y-60329000D01*
X62111286Y-60471857D01*
X62111286Y-60614714D01*
X61397000Y-60757571D01*
X63397000Y-61257571D02*
X63397000Y-60471857D01*
X63325571Y-60329000D01*
X63182714Y-60257571D01*
X62897000Y-60257571D01*
X62754143Y-60329000D01*
X63397000Y-61186143D02*
X63254143Y-61257571D01*
X62897000Y-61257571D01*
X62754143Y-61186143D01*
X62682714Y-61043286D01*
X62682714Y-60900429D01*
X62754143Y-60757571D01*
X62897000Y-60686143D01*
X63254143Y-60686143D01*
X63397000Y-60614714D01*
X64754143Y-61186143D02*
X64611286Y-61257571D01*
X64325572Y-61257571D01*
X64182714Y-61186143D01*
X64111286Y-61114714D01*
X64039857Y-60971857D01*
X64039857Y-60543286D01*
X64111286Y-60400429D01*
X64182714Y-60329000D01*
X64325572Y-60257571D01*
X64611286Y-60257571D01*
X64754143Y-60329000D01*
X65182714Y-60257571D02*
X65754143Y-60257571D01*
X65397000Y-59757571D02*
X65397000Y-61043286D01*
X65468428Y-61186143D01*
X65611286Y-61257571D01*
X65754143Y-61257571D01*
X66254143Y-61257571D02*
X66254143Y-60257571D01*
X66254143Y-59757571D02*
X66182714Y-59829000D01*
X66254143Y-59900429D01*
X66325571Y-59829000D01*
X66254143Y-59757571D01*
X66254143Y-59900429D01*
X66825572Y-60257571D02*
X67182715Y-61257571D01*
X67539857Y-60257571D01*
X68682714Y-61186143D02*
X68539857Y-61257571D01*
X68254143Y-61257571D01*
X68111286Y-61186143D01*
X68039857Y-61043286D01*
X68039857Y-60471857D01*
X68111286Y-60329000D01*
X68254143Y-60257571D01*
X68539857Y-60257571D01*
X68682714Y-60329000D01*
X68754143Y-60471857D01*
X68754143Y-60614714D01*
X68039857Y-60757571D01*
D13*
X17780000Y-71120000D02*
X17780000Y-17780000D01*
X91440000Y-71120000D02*
X17780000Y-71120000D01*
X91440000Y-17780000D02*
X91440000Y-71120000D01*
X17780000Y-17780000D02*
X91440000Y-17780000D01*
X44450000Y-31750000D02*
X45720000Y-30480000D01*
X46206210Y-33147000D02*
G75*
G03X46206210Y-33147000I-359210J0D01*
G01*
X50905210Y-40513000D02*
G75*
G03X50905210Y-40513000I-359210J0D01*
G01*
X45847000Y-40132000D02*
X46482000Y-37338000D01*
X49149000Y-40132000D02*
X49784000Y-37338000D01*
X49911000Y-36449000D02*
X50546000Y-33528000D01*
X46609000Y-36449000D02*
X47244000Y-33528000D01*
X46101000Y-40640000D02*
X48768000Y-40640000D01*
X47625000Y-33020000D02*
X50292000Y-33020000D01*
X46863000Y-36830000D02*
X49530000Y-36830000D01*
X44450000Y-30988000D02*
X44958000Y-30480000D01*
X44450000Y-31369000D02*
X45339000Y-30480000D01*
X52070000Y-30480000D02*
X44450000Y-30480000D01*
X44450000Y-30480000D02*
X44450000Y-43180000D01*
X44450000Y-43180000D02*
X52070000Y-43180000D01*
X52070000Y-43180000D02*
X52070000Y-30480000D01*
X64770000Y-31750000D02*
X66040000Y-30480000D01*
X66526210Y-33147000D02*
G75*
G03X66526210Y-33147000I-359210J0D01*
G01*
X71225210Y-40513000D02*
G75*
G03X71225210Y-40513000I-359210J0D01*
G01*
X66167000Y-40132000D02*
X66802000Y-37338000D01*
X69469000Y-40132000D02*
X70104000Y-37338000D01*
X70231000Y-36449000D02*
X70866000Y-33528000D01*
X66929000Y-36449000D02*
X67564000Y-33528000D01*
X66421000Y-40640000D02*
X69088000Y-40640000D01*
X67945000Y-33020000D02*
X70612000Y-33020000D01*
X67183000Y-36830000D02*
X69850000Y-36830000D01*
X64770000Y-30988000D02*
X65278000Y-30480000D01*
X64770000Y-31369000D02*
X65659000Y-30480000D01*
X72390000Y-30480000D02*
X64770000Y-30480000D01*
X64770000Y-30480000D02*
X64770000Y-43180000D01*
X64770000Y-43180000D02*
X72390000Y-43180000D01*
X72390000Y-43180000D02*
X72390000Y-30480000D01*
X72390000Y-31750000D02*
X73660000Y-30480000D01*
X74146210Y-33147000D02*
G75*
G03X74146210Y-33147000I-359210J0D01*
G01*
X78845210Y-40513000D02*
G75*
G03X78845210Y-40513000I-359210J0D01*
G01*
X73787000Y-40132000D02*
X74422000Y-37338000D01*
X77089000Y-40132000D02*
X77724000Y-37338000D01*
X77851000Y-36449000D02*
X78486000Y-33528000D01*
X74549000Y-36449000D02*
X75184000Y-33528000D01*
X74041000Y-40640000D02*
X76708000Y-40640000D01*
X75565000Y-33020000D02*
X78232000Y-33020000D01*
X74803000Y-36830000D02*
X77470000Y-36830000D01*
X72390000Y-30988000D02*
X72898000Y-30480000D01*
X72390000Y-31369000D02*
X73279000Y-30480000D01*
X80010000Y-30480000D02*
X72390000Y-30480000D01*
X72390000Y-30480000D02*
X72390000Y-43180000D01*
X72390000Y-43180000D02*
X80010000Y-43180000D01*
X80010000Y-43180000D02*
X80010000Y-30480000D01*
X52070000Y-31750000D02*
X53340000Y-30480000D01*
X53826210Y-33147000D02*
G75*
G03X53826210Y-33147000I-359210J0D01*
G01*
X58525210Y-40513000D02*
G75*
G03X58525210Y-40513000I-359210J0D01*
G01*
X53467000Y-40132000D02*
X54102000Y-37338000D01*
X56769000Y-40132000D02*
X57404000Y-37338000D01*
X57531000Y-36449000D02*
X58166000Y-33528000D01*
X54229000Y-36449000D02*
X54864000Y-33528000D01*
X53721000Y-40640000D02*
X56388000Y-40640000D01*
X55245000Y-33020000D02*
X57912000Y-33020000D01*
X54483000Y-36830000D02*
X57150000Y-36830000D01*
X52070000Y-30988000D02*
X52578000Y-30480000D01*
X52070000Y-31369000D02*
X52959000Y-30480000D01*
X59690000Y-30480000D02*
X52070000Y-30480000D01*
X52070000Y-30480000D02*
X52070000Y-43180000D01*
X52070000Y-43180000D02*
X59690000Y-43180000D01*
X59690000Y-43180000D02*
X59690000Y-30480000D01*
D14*
X21650000Y-26610000D02*
X18990000Y-26610000D01*
X21650000Y-39370000D02*
X21650000Y-26610000D01*
X18990000Y-39370000D02*
X18990000Y-26610000D01*
X21650000Y-39370000D02*
X18990000Y-39370000D01*
X21650000Y-40640000D02*
X21650000Y-41970000D01*
X21650000Y-41970000D02*
X20320000Y-41970000D01*
X69790000Y-64710000D02*
X69790000Y-69910000D01*
X87630000Y-64710000D02*
X69790000Y-64710000D01*
X90230000Y-69910000D02*
X69790000Y-69910000D01*
X87630000Y-64710000D02*
X87630000Y-67310000D01*
X87630000Y-67310000D02*
X90230000Y-67310000D01*
X90230000Y-67310000D02*
X90230000Y-69910000D01*
X88900000Y-64710000D02*
X90230000Y-64710000D01*
X90230000Y-64710000D02*
X90230000Y-66040000D01*
X31690000Y-64710000D02*
X31690000Y-67370000D01*
X44450000Y-64710000D02*
X31690000Y-64710000D01*
X44450000Y-67370000D02*
X31690000Y-67370000D01*
X44450000Y-64710000D02*
X44450000Y-67370000D01*
X45720000Y-64710000D02*
X47050000Y-64710000D01*
X47050000Y-64710000D02*
X47050000Y-66040000D01*
X42866000Y-18990000D02*
X42866000Y-24190000D01*
X60706000Y-18990000D02*
X42866000Y-18990000D01*
X63306000Y-24190000D02*
X42866000Y-24190000D01*
X60706000Y-18990000D02*
X60706000Y-21590000D01*
X60706000Y-21590000D02*
X63306000Y-21590000D01*
X63306000Y-21590000D02*
X63306000Y-24190000D01*
X61976000Y-18990000D02*
X63306000Y-18990000D01*
X63306000Y-18990000D02*
X63306000Y-20320000D01*
X67370000Y-69910000D02*
X67370000Y-67250000D01*
X54610000Y-69910000D02*
X67370000Y-69910000D01*
X54610000Y-67250000D02*
X67370000Y-67250000D01*
X54610000Y-69910000D02*
X54610000Y-67250000D01*
X53340000Y-69910000D02*
X52010000Y-69910000D01*
X52010000Y-69910000D02*
X52010000Y-68580000D01*
X64710000Y-18990000D02*
X64710000Y-24190000D01*
X82550000Y-18990000D02*
X64710000Y-18990000D01*
X85150000Y-24190000D02*
X64710000Y-24190000D01*
X82550000Y-18990000D02*
X82550000Y-21590000D01*
X82550000Y-21590000D02*
X85150000Y-21590000D01*
X85150000Y-21590000D02*
X85150000Y-24190000D01*
X83820000Y-18990000D02*
X85150000Y-18990000D01*
X85150000Y-18990000D02*
X85150000Y-20320000D01*
X85030000Y-52130000D02*
X87690000Y-52130000D01*
X85030000Y-39370000D02*
X85030000Y-52130000D01*
X87690000Y-39370000D02*
X87690000Y-52130000D01*
X85030000Y-39370000D02*
X87690000Y-39370000D01*
X85030000Y-38100000D02*
X85030000Y-36770000D01*
X85030000Y-36770000D02*
X86360000Y-36770000D01*
X29270000Y-26610000D02*
X24070000Y-26610000D01*
X29270000Y-39370000D02*
X29270000Y-26610000D01*
X24070000Y-41970000D02*
X24070000Y-26610000D01*
X29270000Y-39370000D02*
X26670000Y-39370000D01*
X26670000Y-39370000D02*
X26670000Y-41970000D01*
X26670000Y-41970000D02*
X24070000Y-41970000D01*
X29270000Y-40640000D02*
X29270000Y-41970000D01*
X29270000Y-41970000D02*
X27940000Y-41970000D01*
X29270000Y-49470000D02*
X24070000Y-49470000D01*
X29270000Y-62230000D02*
X29270000Y-49470000D01*
X24070000Y-64830000D02*
X24070000Y-49470000D01*
X29270000Y-62230000D02*
X26670000Y-62230000D01*
X26670000Y-62230000D02*
X26670000Y-64830000D01*
X26670000Y-64830000D02*
X24070000Y-64830000D01*
X29270000Y-63500000D02*
X29270000Y-64830000D01*
X29270000Y-64830000D02*
X27940000Y-64830000D01*
X42370000Y-27940000D02*
G75*
G03X42370000Y-27940000I-6100000J0D01*
G01*
X41170000Y-34980000D02*
X37570000Y-34980000D01*
X41208478Y-34991522D02*
G75*
G02X39370000Y-39430000I-1838478J-1838478D01*
G01*
X37531522Y-34991522D02*
G75*
G03X39370000Y-39430000I1838478J-1838478D01*
G01*
X46720000Y-58078000D02*
X51220000Y-58078000D01*
X45470000Y-54078000D02*
X45470000Y-55578000D01*
X51220000Y-51578000D02*
X46720000Y-51578000D01*
X52470000Y-55578000D02*
X52470000Y-54078000D01*
X60690000Y-58078000D02*
X65190000Y-58078000D01*
X59440000Y-54078000D02*
X59440000Y-55578000D01*
X65190000Y-51578000D02*
X60690000Y-51578000D01*
X66440000Y-55578000D02*
X66440000Y-54078000D01*
X73390000Y-58078000D02*
X77890000Y-58078000D01*
X72140000Y-54078000D02*
X72140000Y-55578000D01*
X77890000Y-51578000D02*
X73390000Y-51578000D01*
X79140000Y-55578000D02*
X79140000Y-54078000D01*
D13*
X48553667Y-34337429D02*
X48553667Y-33861238D01*
X48839381Y-34432667D02*
X47839381Y-34099334D01*
X48839381Y-33766000D01*
X48315571Y-33099333D02*
X48315571Y-33432667D01*
X48839381Y-33432667D02*
X47839381Y-33432667D01*
X47839381Y-32956476D01*
X48315571Y-32242190D02*
X48315571Y-32575524D01*
X48839381Y-32575524D02*
X47839381Y-32575524D01*
X47839381Y-32099333D01*
X48839381Y-31194571D02*
X48839381Y-31766000D01*
X48839381Y-31480286D02*
X47839381Y-31480286D01*
X47982238Y-31575524D01*
X48077476Y-31670762D01*
X48125095Y-31766000D01*
X68873667Y-34337429D02*
X68873667Y-33861238D01*
X69159381Y-34432667D02*
X68159381Y-34099334D01*
X69159381Y-33766000D01*
X68635571Y-33099333D02*
X68635571Y-33432667D01*
X69159381Y-33432667D02*
X68159381Y-33432667D01*
X68159381Y-32956476D01*
X68635571Y-32242190D02*
X68635571Y-32575524D01*
X69159381Y-32575524D02*
X68159381Y-32575524D01*
X68159381Y-32099333D01*
X68159381Y-31813619D02*
X68159381Y-31194571D01*
X68540333Y-31527905D01*
X68540333Y-31385047D01*
X68587952Y-31289809D01*
X68635571Y-31242190D01*
X68730810Y-31194571D01*
X68968905Y-31194571D01*
X69064143Y-31242190D01*
X69111762Y-31289809D01*
X69159381Y-31385047D01*
X69159381Y-31670762D01*
X69111762Y-31766000D01*
X69064143Y-31813619D01*
X76493667Y-34337429D02*
X76493667Y-33861238D01*
X76779381Y-34432667D02*
X75779381Y-34099334D01*
X76779381Y-33766000D01*
X76255571Y-33099333D02*
X76255571Y-33432667D01*
X76779381Y-33432667D02*
X75779381Y-33432667D01*
X75779381Y-32956476D01*
X76255571Y-32242190D02*
X76255571Y-32575524D01*
X76779381Y-32575524D02*
X75779381Y-32575524D01*
X75779381Y-32099333D01*
X76112714Y-31289809D02*
X76779381Y-31289809D01*
X75731762Y-31527905D02*
X76446048Y-31766000D01*
X76446048Y-31146952D01*
X56173667Y-34337429D02*
X56173667Y-33861238D01*
X56459381Y-34432667D02*
X55459381Y-34099334D01*
X56459381Y-33766000D01*
X55935571Y-33099333D02*
X55935571Y-33432667D01*
X56459381Y-33432667D02*
X55459381Y-33432667D01*
X55459381Y-32956476D01*
X55935571Y-32242190D02*
X55935571Y-32575524D01*
X56459381Y-32575524D02*
X55459381Y-32575524D01*
X55459381Y-32099333D01*
X55554619Y-31766000D02*
X55507000Y-31718381D01*
X55459381Y-31623143D01*
X55459381Y-31385047D01*
X55507000Y-31289809D01*
X55554619Y-31242190D01*
X55649857Y-31194571D01*
X55745095Y-31194571D01*
X55887952Y-31242190D01*
X56459381Y-31813619D01*
X56459381Y-31194571D01*
X35441048Y-25836571D02*
X35583905Y-25884190D01*
X35631524Y-25931810D01*
X35679143Y-26027048D01*
X35679143Y-26169905D01*
X35631524Y-26265143D01*
X35583905Y-26312762D01*
X35488667Y-26360381D01*
X35107714Y-26360381D01*
X35107714Y-25360381D01*
X35441048Y-25360381D01*
X35536286Y-25408000D01*
X35583905Y-25455619D01*
X35631524Y-25550857D01*
X35631524Y-25646095D01*
X35583905Y-25741333D01*
X35536286Y-25788952D01*
X35441048Y-25836571D01*
X35107714Y-25836571D01*
X36012476Y-25360381D02*
X36679143Y-25360381D01*
X36012476Y-26360381D01*
X36679143Y-26360381D01*
X37583905Y-26360381D02*
X37012476Y-26360381D01*
X37298190Y-26360381D02*
X37298190Y-25360381D01*
X37202952Y-25503238D01*
X37107714Y-25598476D01*
X37012476Y-25646095D01*
X32639048Y-26211429D02*
X33400953Y-26211429D01*
X33020001Y-26592381D02*
X33020001Y-25830476D01*
X39274762Y-39028619D02*
X39179524Y-38981000D01*
X39084286Y-38885762D01*
X38941429Y-38742905D01*
X38846190Y-38695286D01*
X38750952Y-38695286D01*
X38798571Y-38933381D02*
X38703333Y-38885762D01*
X38608095Y-38790524D01*
X38560476Y-38600048D01*
X38560476Y-38266714D01*
X38608095Y-38076238D01*
X38703333Y-37981000D01*
X38798571Y-37933381D01*
X38989048Y-37933381D01*
X39084286Y-37981000D01*
X39179524Y-38076238D01*
X39227143Y-38266714D01*
X39227143Y-38600048D01*
X39179524Y-38790524D01*
X39084286Y-38885762D01*
X38989048Y-38933381D01*
X38798571Y-38933381D01*
X40179524Y-38933381D02*
X39608095Y-38933381D01*
X39893809Y-38933381D02*
X39893809Y-37933381D01*
X39798571Y-38076238D01*
X39703333Y-38171476D01*
X39608095Y-38219095D01*
X47688667Y-52982762D02*
X47831524Y-53030381D01*
X48069620Y-53030381D01*
X48164858Y-52982762D01*
X48212477Y-52935143D01*
X48260096Y-52839905D01*
X48260096Y-52744667D01*
X48212477Y-52649429D01*
X48164858Y-52601810D01*
X48069620Y-52554190D01*
X47879143Y-52506571D01*
X47783905Y-52458952D01*
X47736286Y-52411333D01*
X47688667Y-52316095D01*
X47688667Y-52220857D01*
X47736286Y-52125619D01*
X47783905Y-52078000D01*
X47879143Y-52030381D01*
X48117239Y-52030381D01*
X48260096Y-52078000D01*
X48593429Y-52030381D02*
X48831524Y-53030381D01*
X49022001Y-52316095D01*
X49212477Y-53030381D01*
X49450572Y-52030381D01*
X50355334Y-53030381D02*
X49783905Y-53030381D01*
X50069619Y-53030381D02*
X50069619Y-52030381D01*
X49974381Y-52173238D01*
X49879143Y-52268476D01*
X49783905Y-52316095D01*
X61658667Y-52982762D02*
X61801524Y-53030381D01*
X62039620Y-53030381D01*
X62134858Y-52982762D01*
X62182477Y-52935143D01*
X62230096Y-52839905D01*
X62230096Y-52744667D01*
X62182477Y-52649429D01*
X62134858Y-52601810D01*
X62039620Y-52554190D01*
X61849143Y-52506571D01*
X61753905Y-52458952D01*
X61706286Y-52411333D01*
X61658667Y-52316095D01*
X61658667Y-52220857D01*
X61706286Y-52125619D01*
X61753905Y-52078000D01*
X61849143Y-52030381D01*
X62087239Y-52030381D01*
X62230096Y-52078000D01*
X62563429Y-52030381D02*
X62801524Y-53030381D01*
X62992001Y-52316095D01*
X63182477Y-53030381D01*
X63420572Y-52030381D01*
X63753905Y-52125619D02*
X63801524Y-52078000D01*
X63896762Y-52030381D01*
X64134858Y-52030381D01*
X64230096Y-52078000D01*
X64277715Y-52125619D01*
X64325334Y-52220857D01*
X64325334Y-52316095D01*
X64277715Y-52458952D01*
X63706286Y-53030381D01*
X64325334Y-53030381D01*
X74358667Y-52982762D02*
X74501524Y-53030381D01*
X74739620Y-53030381D01*
X74834858Y-52982762D01*
X74882477Y-52935143D01*
X74930096Y-52839905D01*
X74930096Y-52744667D01*
X74882477Y-52649429D01*
X74834858Y-52601810D01*
X74739620Y-52554190D01*
X74549143Y-52506571D01*
X74453905Y-52458952D01*
X74406286Y-52411333D01*
X74358667Y-52316095D01*
X74358667Y-52220857D01*
X74406286Y-52125619D01*
X74453905Y-52078000D01*
X74549143Y-52030381D01*
X74787239Y-52030381D01*
X74930096Y-52078000D01*
X75263429Y-52030381D02*
X75501524Y-53030381D01*
X75692001Y-52316095D01*
X75882477Y-53030381D01*
X76120572Y-52030381D01*
X76406286Y-52030381D02*
X77025334Y-52030381D01*
X76692000Y-52411333D01*
X76834858Y-52411333D01*
X76930096Y-52458952D01*
X76977715Y-52506571D01*
X77025334Y-52601810D01*
X77025334Y-52839905D01*
X76977715Y-52935143D01*
X76930096Y-52982762D01*
X76834858Y-53030381D01*
X76549143Y-53030381D01*
X76453905Y-52982762D01*
X76406286Y-52935143D01*
M02*
