G04 #@! TF.FileFunction,Copper,L1,Top,Signal*
%FSLAX46Y46*%
G04 Gerber Fmt 4.6, Leading zero omitted, Abs format (unit mm)*
G04 Created by KiCad (PCBNEW 4.0.7) date Fri Jun  7 08:16:43 2019*
%MOMM*%
%LPD*%
G01*
G04 APERTURE LIST*
%ADD10C,0.100000*%
%ADD11C,0.150000*%
%ADD12R,1.899920X1.899920*%
%ADD13C,1.899920*%
%ADD14C,2.032000*%
%ADD15R,1.700000X1.700000*%
%ADD16O,1.700000X1.700000*%
%ADD17R,1.600000X1.600000*%
%ADD18C,1.600000*%
%ADD19O,0.900000X1.500000*%
%ADD20R,0.900000X1.500000*%
%ADD21C,2.000000*%
%ADD22C,0.600000*%
%ADD23C,0.400000*%
%ADD24C,0.254000*%
G04 APERTURE END LIST*
D10*
D11*
X17780000Y-71120000D02*
X17780000Y-17780000D01*
X91440000Y-71120000D02*
X17780000Y-71120000D01*
X91440000Y-17780000D02*
X91440000Y-71120000D01*
X17780000Y-17780000D02*
X91440000Y-17780000D01*
D12*
X45720000Y-31750000D03*
D13*
X45720000Y-34290000D03*
X45720000Y-36830000D03*
X45720000Y-39370000D03*
X45720000Y-41910000D03*
X50800000Y-41910000D03*
X50800000Y-39370000D03*
D14*
X50800000Y-36830000D03*
D13*
X50800000Y-34290000D03*
X50800000Y-31750000D03*
D12*
X66040000Y-31750000D03*
D13*
X66040000Y-34290000D03*
X66040000Y-36830000D03*
X66040000Y-39370000D03*
X66040000Y-41910000D03*
X71120000Y-41910000D03*
X71120000Y-39370000D03*
D14*
X71120000Y-36830000D03*
D13*
X71120000Y-34290000D03*
X71120000Y-31750000D03*
D12*
X73660000Y-31750000D03*
D13*
X73660000Y-34290000D03*
X73660000Y-36830000D03*
X73660000Y-39370000D03*
X73660000Y-41910000D03*
X78740000Y-41910000D03*
X78740000Y-39370000D03*
D14*
X78740000Y-36830000D03*
D13*
X78740000Y-34290000D03*
X78740000Y-31750000D03*
D12*
X53340000Y-31750000D03*
D13*
X53340000Y-34290000D03*
X53340000Y-36830000D03*
X53340000Y-39370000D03*
X53340000Y-41910000D03*
X58420000Y-41910000D03*
X58420000Y-39370000D03*
D14*
X58420000Y-36830000D03*
D13*
X58420000Y-34290000D03*
X58420000Y-31750000D03*
D15*
X20320000Y-40640000D03*
D16*
X20320000Y-38100000D03*
X20320000Y-35560000D03*
X20320000Y-33020000D03*
X20320000Y-30480000D03*
X20320000Y-27940000D03*
D15*
X88900000Y-66040000D03*
D16*
X88900000Y-68580000D03*
X86360000Y-66040000D03*
X86360000Y-68580000D03*
X83820000Y-66040000D03*
X83820000Y-68580000D03*
X81280000Y-66040000D03*
X81280000Y-68580000D03*
X78740000Y-66040000D03*
X78740000Y-68580000D03*
X76200000Y-66040000D03*
X76200000Y-68580000D03*
X73660000Y-66040000D03*
X73660000Y-68580000D03*
X71120000Y-66040000D03*
X71120000Y-68580000D03*
D15*
X45720000Y-66040000D03*
D16*
X43180000Y-66040000D03*
X40640000Y-66040000D03*
X38100000Y-66040000D03*
X35560000Y-66040000D03*
X33020000Y-66040000D03*
D15*
X61976000Y-20320000D03*
D16*
X61976000Y-22860000D03*
X59436000Y-20320000D03*
X59436000Y-22860000D03*
X56896000Y-20320000D03*
X56896000Y-22860000D03*
X54356000Y-20320000D03*
X54356000Y-22860000D03*
X51816000Y-20320000D03*
X51816000Y-22860000D03*
X49276000Y-20320000D03*
X49276000Y-22860000D03*
X46736000Y-20320000D03*
X46736000Y-22860000D03*
X44196000Y-20320000D03*
X44196000Y-22860000D03*
D15*
X53340000Y-68580000D03*
D16*
X55880000Y-68580000D03*
X58420000Y-68580000D03*
X60960000Y-68580000D03*
X63500000Y-68580000D03*
X66040000Y-68580000D03*
D15*
X83820000Y-20320000D03*
D16*
X83820000Y-22860000D03*
X81280000Y-20320000D03*
X81280000Y-22860000D03*
X78740000Y-20320000D03*
X78740000Y-22860000D03*
X76200000Y-20320000D03*
X76200000Y-22860000D03*
X73660000Y-20320000D03*
X73660000Y-22860000D03*
X71120000Y-20320000D03*
X71120000Y-22860000D03*
X68580000Y-20320000D03*
X68580000Y-22860000D03*
X66040000Y-20320000D03*
X66040000Y-22860000D03*
D15*
X86360000Y-38100000D03*
D16*
X86360000Y-40640000D03*
X86360000Y-43180000D03*
X86360000Y-45720000D03*
X86360000Y-48260000D03*
X86360000Y-50800000D03*
D15*
X27940000Y-40640000D03*
D16*
X25400000Y-40640000D03*
X27940000Y-38100000D03*
X25400000Y-38100000D03*
X27940000Y-35560000D03*
X25400000Y-35560000D03*
X27940000Y-33020000D03*
X25400000Y-33020000D03*
X27940000Y-30480000D03*
X25400000Y-30480000D03*
X27940000Y-27940000D03*
X25400000Y-27940000D03*
D15*
X27940000Y-63500000D03*
D16*
X25400000Y-63500000D03*
X27940000Y-60960000D03*
X25400000Y-60960000D03*
X27940000Y-58420000D03*
X25400000Y-58420000D03*
X27940000Y-55880000D03*
X25400000Y-55880000D03*
X27940000Y-53340000D03*
X25400000Y-53340000D03*
X27940000Y-50800000D03*
X25400000Y-50800000D03*
D17*
X33020000Y-27940000D03*
D18*
X39520000Y-27940000D03*
D19*
X39370000Y-36830000D03*
X38100000Y-36830000D03*
D20*
X40640000Y-36830000D03*
D21*
X45720000Y-57078000D03*
X45720000Y-52578000D03*
X52220000Y-57078000D03*
X52220000Y-52578000D03*
X59690000Y-57078000D03*
X59690000Y-52578000D03*
X66190000Y-57078000D03*
X66190000Y-52578000D03*
X72390000Y-57078000D03*
X72390000Y-52578000D03*
X78890000Y-57078000D03*
X78890000Y-52578000D03*
D22*
X74041000Y-56388000D03*
X77343000Y-55245000D03*
X62992000Y-52451000D03*
X65405000Y-54102000D03*
X73152000Y-54864000D03*
X76708000Y-54102000D03*
X74041000Y-55245000D03*
X76327000Y-55499000D03*
X77470000Y-65151000D03*
X50419000Y-52324000D03*
X50419000Y-55626000D03*
X49530000Y-57277000D03*
X49403000Y-52451000D03*
X48768000Y-56261000D03*
X46482000Y-55372000D03*
X60325000Y-55626000D03*
X64770000Y-55880000D03*
X80010000Y-23749000D03*
X77470000Y-23749000D03*
X67310000Y-23749000D03*
D23*
X76708000Y-56388000D02*
X77343000Y-55753000D01*
X76581000Y-56388000D02*
X76708000Y-56388000D01*
X76581000Y-56388000D02*
X74041000Y-56388000D01*
X77343000Y-55753000D02*
X77343000Y-55245000D01*
X64643000Y-54102000D02*
X65405000Y-54102000D01*
X62992000Y-52451000D02*
X64643000Y-54102000D01*
X65405000Y-54102000D02*
X65278000Y-54102000D01*
X73152000Y-54864000D02*
X73914000Y-54102000D01*
X73914000Y-54102000D02*
X76708000Y-54102000D01*
X74041000Y-55245000D02*
X76073000Y-55245000D01*
X76073000Y-55245000D02*
X76327000Y-55499000D01*
X81280000Y-68580000D02*
X80010000Y-67310000D01*
X77470000Y-66929000D02*
X77470000Y-65151000D01*
X77851000Y-67310000D02*
X77470000Y-66929000D01*
X80010000Y-67310000D02*
X77851000Y-67310000D01*
X50419000Y-52324000D02*
X50419000Y-55626000D01*
X49530000Y-52578000D02*
X49530000Y-57277000D01*
X49403000Y-52451000D02*
X49530000Y-52578000D01*
X47371000Y-56261000D02*
X48768000Y-56261000D01*
X46482000Y-55372000D02*
X47371000Y-56261000D01*
X64770000Y-55880000D02*
X64516000Y-55626000D01*
X64516000Y-55626000D02*
X60325000Y-55626000D01*
X81280000Y-20320000D02*
X80010000Y-21590000D01*
X80010000Y-21590000D02*
X80010000Y-23749000D01*
X77470000Y-21590000D02*
X77470000Y-23749000D01*
X78740000Y-20320000D02*
X77470000Y-21590000D01*
X68580000Y-20320000D02*
X67310000Y-21590000D01*
X67310000Y-21590000D02*
X67310000Y-23749000D01*
D24*
G36*
X90678000Y-70358000D02*
X18542000Y-70358000D01*
X18542000Y-67730000D01*
X52054635Y-67730000D01*
X52054635Y-69430000D01*
X52084409Y-69588237D01*
X52177927Y-69733567D01*
X52320619Y-69831064D01*
X52490000Y-69865365D01*
X54190000Y-69865365D01*
X54348237Y-69835591D01*
X54493567Y-69742073D01*
X54591064Y-69599381D01*
X54625365Y-69430000D01*
X54625365Y-69334764D01*
X54684817Y-69461358D01*
X55113076Y-69851645D01*
X55523110Y-70021476D01*
X55753000Y-69900155D01*
X55753000Y-68707000D01*
X56007000Y-68707000D01*
X56007000Y-69900155D01*
X56236890Y-70021476D01*
X56646924Y-69851645D01*
X57075183Y-69461358D01*
X57150000Y-69302046D01*
X57224817Y-69461358D01*
X57653076Y-69851645D01*
X58063110Y-70021476D01*
X58293000Y-69900155D01*
X58293000Y-68707000D01*
X56007000Y-68707000D01*
X55753000Y-68707000D01*
X55733000Y-68707000D01*
X55733000Y-68453000D01*
X55753000Y-68453000D01*
X55753000Y-67259845D01*
X56007000Y-67259845D01*
X56007000Y-68453000D01*
X58293000Y-68453000D01*
X58293000Y-67259845D01*
X58547000Y-67259845D01*
X58547000Y-68453000D01*
X58567000Y-68453000D01*
X58567000Y-68707000D01*
X58547000Y-68707000D01*
X58547000Y-69900155D01*
X58776890Y-70021476D01*
X59186924Y-69851645D01*
X59615183Y-69461358D01*
X59784691Y-69100417D01*
X60057025Y-69507993D01*
X60471313Y-69784812D01*
X60960000Y-69882018D01*
X61448687Y-69784812D01*
X61862975Y-69507993D01*
X62139794Y-69093705D01*
X62230000Y-68640209D01*
X62320206Y-69093705D01*
X62597025Y-69507993D01*
X63011313Y-69784812D01*
X63500000Y-69882018D01*
X63988687Y-69784812D01*
X64402975Y-69507993D01*
X64679794Y-69093705D01*
X64770000Y-68640209D01*
X64860206Y-69093705D01*
X65137025Y-69507993D01*
X65551313Y-69784812D01*
X66040000Y-69882018D01*
X66528687Y-69784812D01*
X66942975Y-69507993D01*
X67219794Y-69093705D01*
X67317000Y-68605018D01*
X67317000Y-68554982D01*
X67219794Y-68066295D01*
X66942975Y-67652007D01*
X66528687Y-67375188D01*
X66040000Y-67277982D01*
X65551313Y-67375188D01*
X65137025Y-67652007D01*
X64860206Y-68066295D01*
X64770000Y-68519791D01*
X64679794Y-68066295D01*
X64402975Y-67652007D01*
X63988687Y-67375188D01*
X63500000Y-67277982D01*
X63011313Y-67375188D01*
X62597025Y-67652007D01*
X62320206Y-68066295D01*
X62230000Y-68519791D01*
X62139794Y-68066295D01*
X61862975Y-67652007D01*
X61448687Y-67375188D01*
X60960000Y-67277982D01*
X60471313Y-67375188D01*
X60057025Y-67652007D01*
X59784691Y-68059583D01*
X59615183Y-67698642D01*
X59186924Y-67308355D01*
X58776890Y-67138524D01*
X58547000Y-67259845D01*
X58293000Y-67259845D01*
X58063110Y-67138524D01*
X57653076Y-67308355D01*
X57224817Y-67698642D01*
X57150000Y-67857954D01*
X57075183Y-67698642D01*
X56646924Y-67308355D01*
X56236890Y-67138524D01*
X56007000Y-67259845D01*
X55753000Y-67259845D01*
X55523110Y-67138524D01*
X55113076Y-67308355D01*
X54684817Y-67698642D01*
X54625365Y-67825236D01*
X54625365Y-67730000D01*
X54595591Y-67571763D01*
X54502073Y-67426433D01*
X54359381Y-67328936D01*
X54190000Y-67294635D01*
X52490000Y-67294635D01*
X52331763Y-67324409D01*
X52186433Y-67417927D01*
X52088936Y-67560619D01*
X52054635Y-67730000D01*
X18542000Y-67730000D01*
X18542000Y-66396892D01*
X31578514Y-66396892D01*
X31824817Y-66921358D01*
X32253076Y-67311645D01*
X32663110Y-67481476D01*
X32893000Y-67360155D01*
X32893000Y-66167000D01*
X31699181Y-66167000D01*
X31578514Y-66396892D01*
X18542000Y-66396892D01*
X18542000Y-65683108D01*
X31578514Y-65683108D01*
X31699181Y-65913000D01*
X32893000Y-65913000D01*
X32893000Y-64719845D01*
X33147000Y-64719845D01*
X33147000Y-65913000D01*
X33167000Y-65913000D01*
X33167000Y-66167000D01*
X33147000Y-66167000D01*
X33147000Y-67360155D01*
X33376890Y-67481476D01*
X33786924Y-67311645D01*
X34215183Y-66921358D01*
X34384691Y-66560417D01*
X34657025Y-66967993D01*
X35071313Y-67244812D01*
X35560000Y-67342018D01*
X36048687Y-67244812D01*
X36462975Y-66967993D01*
X36739794Y-66553705D01*
X36830000Y-66100209D01*
X36920206Y-66553705D01*
X37197025Y-66967993D01*
X37611313Y-67244812D01*
X38100000Y-67342018D01*
X38588687Y-67244812D01*
X39002975Y-66967993D01*
X39279794Y-66553705D01*
X39370000Y-66100209D01*
X39460206Y-66553705D01*
X39737025Y-66967993D01*
X40151313Y-67244812D01*
X40640000Y-67342018D01*
X41128687Y-67244812D01*
X41542975Y-66967993D01*
X41819794Y-66553705D01*
X41910000Y-66100209D01*
X42000206Y-66553705D01*
X42277025Y-66967993D01*
X42691313Y-67244812D01*
X43180000Y-67342018D01*
X43668687Y-67244812D01*
X44082975Y-66967993D01*
X44359794Y-66553705D01*
X44434635Y-66177454D01*
X44434635Y-66890000D01*
X44464409Y-67048237D01*
X44557927Y-67193567D01*
X44700619Y-67291064D01*
X44870000Y-67325365D01*
X46570000Y-67325365D01*
X46728237Y-67295591D01*
X46873567Y-67202073D01*
X46971064Y-67059381D01*
X47005365Y-66890000D01*
X47005365Y-66014982D01*
X69843000Y-66014982D01*
X69843000Y-66065018D01*
X69940206Y-66553705D01*
X70217025Y-66967993D01*
X70631313Y-67244812D01*
X70959035Y-67310000D01*
X70631313Y-67375188D01*
X70217025Y-67652007D01*
X69940206Y-68066295D01*
X69843000Y-68554982D01*
X69843000Y-68605018D01*
X69940206Y-69093705D01*
X70217025Y-69507993D01*
X70631313Y-69784812D01*
X71120000Y-69882018D01*
X71608687Y-69784812D01*
X72022975Y-69507993D01*
X72299794Y-69093705D01*
X72390000Y-68640209D01*
X72480206Y-69093705D01*
X72757025Y-69507993D01*
X73171313Y-69784812D01*
X73660000Y-69882018D01*
X74148687Y-69784812D01*
X74562975Y-69507993D01*
X74839794Y-69093705D01*
X74930000Y-68640209D01*
X75020206Y-69093705D01*
X75297025Y-69507993D01*
X75711313Y-69784812D01*
X76200000Y-69882018D01*
X76688687Y-69784812D01*
X77102975Y-69507993D01*
X77379794Y-69093705D01*
X77470000Y-68640209D01*
X77560206Y-69093705D01*
X77837025Y-69507993D01*
X78251313Y-69784812D01*
X78740000Y-69882018D01*
X79228687Y-69784812D01*
X79642975Y-69507993D01*
X79919794Y-69093705D01*
X80010000Y-68640209D01*
X80100206Y-69093705D01*
X80377025Y-69507993D01*
X80791313Y-69784812D01*
X81280000Y-69882018D01*
X81768687Y-69784812D01*
X82182975Y-69507993D01*
X82459794Y-69093705D01*
X82550000Y-68640209D01*
X82640206Y-69093705D01*
X82917025Y-69507993D01*
X83331313Y-69784812D01*
X83820000Y-69882018D01*
X84308687Y-69784812D01*
X84722975Y-69507993D01*
X84999794Y-69093705D01*
X85090000Y-68640209D01*
X85180206Y-69093705D01*
X85457025Y-69507993D01*
X85871313Y-69784812D01*
X86360000Y-69882018D01*
X86848687Y-69784812D01*
X87262975Y-69507993D01*
X87535309Y-69100417D01*
X87704817Y-69461358D01*
X88133076Y-69851645D01*
X88543110Y-70021476D01*
X88773000Y-69900155D01*
X88773000Y-68707000D01*
X89027000Y-68707000D01*
X89027000Y-69900155D01*
X89256890Y-70021476D01*
X89666924Y-69851645D01*
X90095183Y-69461358D01*
X90341486Y-68936892D01*
X90220819Y-68707000D01*
X89027000Y-68707000D01*
X88773000Y-68707000D01*
X88753000Y-68707000D01*
X88753000Y-68453000D01*
X88773000Y-68453000D01*
X88773000Y-66167000D01*
X89027000Y-66167000D01*
X89027000Y-68453000D01*
X90220819Y-68453000D01*
X90341486Y-68223108D01*
X90095183Y-67698642D01*
X89895792Y-67516930D01*
X90109699Y-67428327D01*
X90288327Y-67249698D01*
X90385000Y-67016309D01*
X90385000Y-66325750D01*
X90226250Y-66167000D01*
X89027000Y-66167000D01*
X88773000Y-66167000D01*
X88753000Y-66167000D01*
X88753000Y-65913000D01*
X88773000Y-65913000D01*
X88773000Y-64713750D01*
X89027000Y-64713750D01*
X89027000Y-65913000D01*
X90226250Y-65913000D01*
X90385000Y-65754250D01*
X90385000Y-65063691D01*
X90288327Y-64830302D01*
X90109699Y-64651673D01*
X89876310Y-64555000D01*
X89185750Y-64555000D01*
X89027000Y-64713750D01*
X88773000Y-64713750D01*
X88614250Y-64555000D01*
X87923690Y-64555000D01*
X87690301Y-64651673D01*
X87511673Y-64830302D01*
X87415000Y-65063691D01*
X87415000Y-65339528D01*
X87262975Y-65112007D01*
X86848687Y-64835188D01*
X86360000Y-64737982D01*
X85871313Y-64835188D01*
X85457025Y-65112007D01*
X85180206Y-65526295D01*
X85090000Y-65979791D01*
X84999794Y-65526295D01*
X84722975Y-65112007D01*
X84308687Y-64835188D01*
X83820000Y-64737982D01*
X83331313Y-64835188D01*
X82917025Y-65112007D01*
X82640206Y-65526295D01*
X82550000Y-65979791D01*
X82459794Y-65526295D01*
X82182975Y-65112007D01*
X81768687Y-64835188D01*
X81280000Y-64737982D01*
X80791313Y-64835188D01*
X80377025Y-65112007D01*
X80100206Y-65526295D01*
X80010000Y-65979791D01*
X79919794Y-65526295D01*
X79642975Y-65112007D01*
X79228687Y-64835188D01*
X78740000Y-64737982D01*
X78251313Y-64835188D01*
X78153209Y-64900739D01*
X78086680Y-64739725D01*
X77882350Y-64535039D01*
X77615244Y-64424126D01*
X77326025Y-64423874D01*
X77058725Y-64534320D01*
X76854039Y-64738650D01*
X76786746Y-64900709D01*
X76688687Y-64835188D01*
X76200000Y-64737982D01*
X75711313Y-64835188D01*
X75297025Y-65112007D01*
X75020206Y-65526295D01*
X74930000Y-65979791D01*
X74839794Y-65526295D01*
X74562975Y-65112007D01*
X74148687Y-64835188D01*
X73660000Y-64737982D01*
X73171313Y-64835188D01*
X72757025Y-65112007D01*
X72480206Y-65526295D01*
X72390000Y-65979791D01*
X72299794Y-65526295D01*
X72022975Y-65112007D01*
X71608687Y-64835188D01*
X71120000Y-64737982D01*
X70631313Y-64835188D01*
X70217025Y-65112007D01*
X69940206Y-65526295D01*
X69843000Y-66014982D01*
X47005365Y-66014982D01*
X47005365Y-65190000D01*
X46975591Y-65031763D01*
X46882073Y-64886433D01*
X46739381Y-64788936D01*
X46570000Y-64754635D01*
X44870000Y-64754635D01*
X44711763Y-64784409D01*
X44566433Y-64877927D01*
X44468936Y-65020619D01*
X44434635Y-65190000D01*
X44434635Y-65902546D01*
X44359794Y-65526295D01*
X44082975Y-65112007D01*
X43668687Y-64835188D01*
X43180000Y-64737982D01*
X42691313Y-64835188D01*
X42277025Y-65112007D01*
X42000206Y-65526295D01*
X41910000Y-65979791D01*
X41819794Y-65526295D01*
X41542975Y-65112007D01*
X41128687Y-64835188D01*
X40640000Y-64737982D01*
X40151313Y-64835188D01*
X39737025Y-65112007D01*
X39460206Y-65526295D01*
X39370000Y-65979791D01*
X39279794Y-65526295D01*
X39002975Y-65112007D01*
X38588687Y-64835188D01*
X38100000Y-64737982D01*
X37611313Y-64835188D01*
X37197025Y-65112007D01*
X36920206Y-65526295D01*
X36830000Y-65979791D01*
X36739794Y-65526295D01*
X36462975Y-65112007D01*
X36048687Y-64835188D01*
X35560000Y-64737982D01*
X35071313Y-64835188D01*
X34657025Y-65112007D01*
X34384691Y-65519583D01*
X34215183Y-65158642D01*
X33786924Y-64768355D01*
X33376890Y-64598524D01*
X33147000Y-64719845D01*
X32893000Y-64719845D01*
X32663110Y-64598524D01*
X32253076Y-64768355D01*
X31824817Y-65158642D01*
X31578514Y-65683108D01*
X18542000Y-65683108D01*
X18542000Y-51156890D01*
X23958524Y-51156890D01*
X24128355Y-51566924D01*
X24518642Y-51995183D01*
X24879583Y-52164691D01*
X24472007Y-52437025D01*
X24195188Y-52851313D01*
X24097982Y-53340000D01*
X24195188Y-53828687D01*
X24472007Y-54242975D01*
X24886295Y-54519794D01*
X25339791Y-54610000D01*
X24886295Y-54700206D01*
X24472007Y-54977025D01*
X24195188Y-55391313D01*
X24097982Y-55880000D01*
X24195188Y-56368687D01*
X24472007Y-56782975D01*
X24886295Y-57059794D01*
X25339791Y-57150000D01*
X24886295Y-57240206D01*
X24472007Y-57517025D01*
X24195188Y-57931313D01*
X24097982Y-58420000D01*
X24195188Y-58908687D01*
X24472007Y-59322975D01*
X24886295Y-59599794D01*
X25339791Y-59690000D01*
X24886295Y-59780206D01*
X24472007Y-60057025D01*
X24195188Y-60471313D01*
X24097982Y-60960000D01*
X24195188Y-61448687D01*
X24472007Y-61862975D01*
X24886295Y-62139794D01*
X25339791Y-62230000D01*
X24886295Y-62320206D01*
X24472007Y-62597025D01*
X24195188Y-63011313D01*
X24097982Y-63500000D01*
X24195188Y-63988687D01*
X24472007Y-64402975D01*
X24886295Y-64679794D01*
X25374982Y-64777000D01*
X25425018Y-64777000D01*
X25913705Y-64679794D01*
X26327993Y-64402975D01*
X26604812Y-63988687D01*
X26654635Y-63738210D01*
X26654635Y-64350000D01*
X26684409Y-64508237D01*
X26777927Y-64653567D01*
X26920619Y-64751064D01*
X27090000Y-64785365D01*
X28790000Y-64785365D01*
X28948237Y-64755591D01*
X29093567Y-64662073D01*
X29191064Y-64519381D01*
X29225365Y-64350000D01*
X29225365Y-62650000D01*
X29195591Y-62491763D01*
X29102073Y-62346433D01*
X28959381Y-62248936D01*
X28790000Y-62214635D01*
X28077454Y-62214635D01*
X28453705Y-62139794D01*
X28867993Y-61862975D01*
X29144812Y-61448687D01*
X29242018Y-60960000D01*
X29144812Y-60471313D01*
X28867993Y-60057025D01*
X28453705Y-59780206D01*
X28000209Y-59690000D01*
X28453705Y-59599794D01*
X28867993Y-59322975D01*
X29144812Y-58908687D01*
X29242018Y-58420000D01*
X29144812Y-57931313D01*
X28867993Y-57517025D01*
X28633892Y-57360603D01*
X44292752Y-57360603D01*
X44509543Y-57885275D01*
X44910614Y-58287047D01*
X45434907Y-58504752D01*
X46002603Y-58505248D01*
X46527275Y-58288457D01*
X46929047Y-57887386D01*
X47146752Y-57363093D01*
X47147206Y-56843485D01*
X47371000Y-56888000D01*
X48382235Y-56888000D01*
X48622756Y-56987874D01*
X48862785Y-56988083D01*
X48803126Y-57131756D01*
X48802874Y-57420975D01*
X48913320Y-57688275D01*
X49117650Y-57892961D01*
X49384756Y-58003874D01*
X49673975Y-58004126D01*
X49941275Y-57893680D01*
X50145961Y-57689350D01*
X50256874Y-57422244D01*
X50256927Y-57360603D01*
X50792752Y-57360603D01*
X51009543Y-57885275D01*
X51410614Y-58287047D01*
X51934907Y-58504752D01*
X52502603Y-58505248D01*
X53027275Y-58288457D01*
X53429047Y-57887386D01*
X53646752Y-57363093D01*
X53646754Y-57360603D01*
X58262752Y-57360603D01*
X58479543Y-57885275D01*
X58880614Y-58287047D01*
X59404907Y-58504752D01*
X59972603Y-58505248D01*
X60497275Y-58288457D01*
X60899047Y-57887386D01*
X61116752Y-57363093D01*
X61117248Y-56795397D01*
X60900457Y-56270725D01*
X60882763Y-56253000D01*
X64137505Y-56253000D01*
X64153320Y-56291275D01*
X64357650Y-56495961D01*
X64624756Y-56606874D01*
X64840417Y-56607062D01*
X64763248Y-56792907D01*
X64762752Y-57360603D01*
X64979543Y-57885275D01*
X65380614Y-58287047D01*
X65904907Y-58504752D01*
X66472603Y-58505248D01*
X66997275Y-58288457D01*
X67399047Y-57887386D01*
X67616752Y-57363093D01*
X67616754Y-57360603D01*
X70962752Y-57360603D01*
X71179543Y-57885275D01*
X71580614Y-58287047D01*
X72104907Y-58504752D01*
X72672603Y-58505248D01*
X73197275Y-58288457D01*
X73599047Y-57887386D01*
X73816752Y-57363093D01*
X73816997Y-57082170D01*
X73895756Y-57114874D01*
X74184975Y-57115126D01*
X74427299Y-57015000D01*
X76708000Y-57015000D01*
X76947943Y-56967272D01*
X77151356Y-56831356D01*
X77657417Y-56325295D01*
X77463248Y-56792907D01*
X77462752Y-57360603D01*
X77679543Y-57885275D01*
X78080614Y-58287047D01*
X78604907Y-58504752D01*
X79172603Y-58505248D01*
X79697275Y-58288457D01*
X80099047Y-57887386D01*
X80316752Y-57363093D01*
X80317248Y-56795397D01*
X80100457Y-56270725D01*
X79699386Y-55868953D01*
X79175093Y-55651248D01*
X78607397Y-55650752D01*
X78082725Y-55867543D01*
X77852497Y-56097370D01*
X77922273Y-55992942D01*
X77970000Y-55753000D01*
X77970000Y-55630765D01*
X78069874Y-55390244D01*
X78070126Y-55101025D01*
X77959680Y-54833725D01*
X77755350Y-54629039D01*
X77488244Y-54518126D01*
X77320325Y-54517980D01*
X77323961Y-54514350D01*
X77434874Y-54247244D01*
X77435126Y-53958025D01*
X77341128Y-53730532D01*
X77917073Y-53730532D01*
X78015736Y-53997387D01*
X78625461Y-54223908D01*
X79275460Y-54199856D01*
X79764264Y-53997387D01*
X79862927Y-53730532D01*
X78890000Y-52757605D01*
X77917073Y-53730532D01*
X77341128Y-53730532D01*
X77324680Y-53690725D01*
X77120350Y-53486039D01*
X76853244Y-53375126D01*
X76564025Y-53374874D01*
X76321701Y-53475000D01*
X73914000Y-53475000D01*
X73674058Y-53522727D01*
X73578311Y-53586703D01*
X73542534Y-53550926D01*
X73809387Y-53452264D01*
X74035908Y-52842539D01*
X74016331Y-52313461D01*
X77244092Y-52313461D01*
X77268144Y-52963460D01*
X77470613Y-53452264D01*
X77737468Y-53550927D01*
X78710395Y-52578000D01*
X79069605Y-52578000D01*
X80042532Y-53550927D01*
X80309387Y-53452264D01*
X80535908Y-52842539D01*
X80511856Y-52192540D01*
X80309387Y-51703736D01*
X80042532Y-51605073D01*
X79069605Y-52578000D01*
X78710395Y-52578000D01*
X77737468Y-51605073D01*
X77470613Y-51703736D01*
X77244092Y-52313461D01*
X74016331Y-52313461D01*
X74011856Y-52192540D01*
X73809387Y-51703736D01*
X73542532Y-51605073D01*
X72569605Y-52578000D01*
X72583748Y-52592143D01*
X72404143Y-52771748D01*
X72390000Y-52757605D01*
X71417073Y-53730532D01*
X71515736Y-53997387D01*
X72125461Y-54223908D01*
X72775460Y-54199856D01*
X73038306Y-54090982D01*
X72981422Y-54147866D01*
X72740725Y-54247320D01*
X72536039Y-54451650D01*
X72425126Y-54718756D01*
X72424874Y-55007975D01*
X72535320Y-55275275D01*
X72739650Y-55479961D01*
X73006756Y-55590874D01*
X73295975Y-55591126D01*
X73382610Y-55555329D01*
X73424320Y-55656275D01*
X73584366Y-55816600D01*
X73425039Y-55975650D01*
X73390039Y-56059939D01*
X73199386Y-55868953D01*
X72675093Y-55651248D01*
X72107397Y-55650752D01*
X71582725Y-55867543D01*
X71180953Y-56268614D01*
X70963248Y-56792907D01*
X70962752Y-57360603D01*
X67616754Y-57360603D01*
X67617248Y-56795397D01*
X67400457Y-56270725D01*
X66999386Y-55868953D01*
X66475093Y-55651248D01*
X65907397Y-55650752D01*
X65497053Y-55820304D01*
X65497126Y-55736025D01*
X65386680Y-55468725D01*
X65182350Y-55264039D01*
X64915244Y-55153126D01*
X64915179Y-55153126D01*
X64914802Y-55152874D01*
X64755943Y-55046728D01*
X64516000Y-54999000D01*
X60710765Y-54999000D01*
X60470244Y-54899126D01*
X60181025Y-54898874D01*
X59913725Y-55009320D01*
X59709039Y-55213650D01*
X59598126Y-55480756D01*
X59597978Y-55650919D01*
X59407397Y-55650752D01*
X58882725Y-55867543D01*
X58480953Y-56268614D01*
X58263248Y-56792907D01*
X58262752Y-57360603D01*
X53646754Y-57360603D01*
X53647248Y-56795397D01*
X53430457Y-56270725D01*
X53029386Y-55868953D01*
X52505093Y-55651248D01*
X51937397Y-55650752D01*
X51412725Y-55867543D01*
X51010953Y-56268614D01*
X50793248Y-56792907D01*
X50792752Y-57360603D01*
X50256927Y-57360603D01*
X50257126Y-57133025D01*
X50157000Y-56890701D01*
X50157000Y-56304392D01*
X50273756Y-56352874D01*
X50562975Y-56353126D01*
X50830275Y-56242680D01*
X51034961Y-56038350D01*
X51145874Y-55771244D01*
X51146126Y-55482025D01*
X51046000Y-55239701D01*
X51046000Y-53758020D01*
X51132794Y-53844814D01*
X51247074Y-53730534D01*
X51345736Y-53997387D01*
X51955461Y-54223908D01*
X52605460Y-54199856D01*
X53094264Y-53997387D01*
X53192927Y-53730532D01*
X58717073Y-53730532D01*
X58815736Y-53997387D01*
X59425461Y-54223908D01*
X60075460Y-54199856D01*
X60564264Y-53997387D01*
X60662927Y-53730532D01*
X59690000Y-52757605D01*
X58717073Y-53730532D01*
X53192927Y-53730532D01*
X52220000Y-52757605D01*
X52205858Y-52771748D01*
X52026253Y-52592143D01*
X52040395Y-52578000D01*
X52399605Y-52578000D01*
X53372532Y-53550927D01*
X53639387Y-53452264D01*
X53865908Y-52842539D01*
X53846331Y-52313461D01*
X58044092Y-52313461D01*
X58068144Y-52963460D01*
X58270613Y-53452264D01*
X58537468Y-53550927D01*
X59510395Y-52578000D01*
X59869605Y-52578000D01*
X60842532Y-53550927D01*
X61109387Y-53452264D01*
X61335908Y-52842539D01*
X61326748Y-52594975D01*
X62264874Y-52594975D01*
X62375320Y-52862275D01*
X62579650Y-53066961D01*
X62821799Y-53167511D01*
X64199644Y-54545356D01*
X64403058Y-54681273D01*
X64643000Y-54729000D01*
X65019235Y-54729000D01*
X65259756Y-54828874D01*
X65548975Y-54829126D01*
X65816275Y-54718680D01*
X66020961Y-54514350D01*
X66131874Y-54247244D01*
X66131901Y-54216269D01*
X66575460Y-54199856D01*
X67064264Y-53997387D01*
X67162927Y-53730532D01*
X66190000Y-52757605D01*
X66175858Y-52771748D01*
X65996253Y-52592143D01*
X66010395Y-52578000D01*
X66369605Y-52578000D01*
X67342532Y-53550927D01*
X67609387Y-53452264D01*
X67835908Y-52842539D01*
X67816331Y-52313461D01*
X70744092Y-52313461D01*
X70768144Y-52963460D01*
X70970613Y-53452264D01*
X71237468Y-53550927D01*
X72210395Y-52578000D01*
X71237468Y-51605073D01*
X70970613Y-51703736D01*
X70744092Y-52313461D01*
X67816331Y-52313461D01*
X67811856Y-52192540D01*
X67609387Y-51703736D01*
X67342532Y-51605073D01*
X66369605Y-52578000D01*
X66010395Y-52578000D01*
X65037468Y-51605073D01*
X64770613Y-51703736D01*
X64544092Y-52313461D01*
X64568144Y-52963460D01*
X64693282Y-53265570D01*
X63708134Y-52280422D01*
X63608680Y-52039725D01*
X63404350Y-51835039D01*
X63137244Y-51724126D01*
X62848025Y-51723874D01*
X62580725Y-51834320D01*
X62376039Y-52038650D01*
X62265126Y-52305756D01*
X62264874Y-52594975D01*
X61326748Y-52594975D01*
X61311856Y-52192540D01*
X61109387Y-51703736D01*
X60842532Y-51605073D01*
X59869605Y-52578000D01*
X59510395Y-52578000D01*
X58537468Y-51605073D01*
X58270613Y-51703736D01*
X58044092Y-52313461D01*
X53846331Y-52313461D01*
X53841856Y-52192540D01*
X53639387Y-51703736D01*
X53372532Y-51605073D01*
X52399605Y-52578000D01*
X52040395Y-52578000D01*
X51067468Y-51605073D01*
X50811391Y-51699751D01*
X50564244Y-51597126D01*
X50275025Y-51596874D01*
X50007725Y-51707320D01*
X49847511Y-51867256D01*
X49815350Y-51835039D01*
X49548244Y-51724126D01*
X49259025Y-51723874D01*
X48991725Y-51834320D01*
X48787039Y-52038650D01*
X48676126Y-52305756D01*
X48675874Y-52594975D01*
X48786320Y-52862275D01*
X48903000Y-52979158D01*
X48903000Y-55534117D01*
X48624025Y-55533874D01*
X48381701Y-55634000D01*
X47630712Y-55634000D01*
X47198134Y-55201422D01*
X47098680Y-54960725D01*
X46894350Y-54756039D01*
X46627244Y-54645126D01*
X46338025Y-54644874D01*
X46070725Y-54755320D01*
X45866039Y-54959650D01*
X45755126Y-55226756D01*
X45754874Y-55515975D01*
X45810697Y-55651078D01*
X45437397Y-55650752D01*
X44912725Y-55867543D01*
X44510953Y-56268614D01*
X44293248Y-56792907D01*
X44292752Y-57360603D01*
X28633892Y-57360603D01*
X28453705Y-57240206D01*
X28000209Y-57150000D01*
X28453705Y-57059794D01*
X28867993Y-56782975D01*
X29144812Y-56368687D01*
X29242018Y-55880000D01*
X29144812Y-55391313D01*
X28867993Y-54977025D01*
X28453705Y-54700206D01*
X28000209Y-54610000D01*
X28453705Y-54519794D01*
X28867993Y-54242975D01*
X29144812Y-53828687D01*
X29164336Y-53730532D01*
X44747073Y-53730532D01*
X44845736Y-53997387D01*
X45455461Y-54223908D01*
X46105460Y-54199856D01*
X46594264Y-53997387D01*
X46692927Y-53730532D01*
X45720000Y-52757605D01*
X44747073Y-53730532D01*
X29164336Y-53730532D01*
X29242018Y-53340000D01*
X29144812Y-52851313D01*
X28867993Y-52437025D01*
X28683067Y-52313461D01*
X44074092Y-52313461D01*
X44098144Y-52963460D01*
X44300613Y-53452264D01*
X44567468Y-53550927D01*
X45540395Y-52578000D01*
X45899605Y-52578000D01*
X46872532Y-53550927D01*
X47139387Y-53452264D01*
X47365908Y-52842539D01*
X47341856Y-52192540D01*
X47139387Y-51703736D01*
X46872532Y-51605073D01*
X45899605Y-52578000D01*
X45540395Y-52578000D01*
X44567468Y-51605073D01*
X44300613Y-51703736D01*
X44074092Y-52313461D01*
X28683067Y-52313461D01*
X28460417Y-52164691D01*
X28821358Y-51995183D01*
X29211645Y-51566924D01*
X29270234Y-51425468D01*
X44747073Y-51425468D01*
X45720000Y-52398395D01*
X46692927Y-51425468D01*
X51247073Y-51425468D01*
X52220000Y-52398395D01*
X53192927Y-51425468D01*
X58717073Y-51425468D01*
X59690000Y-52398395D01*
X60662927Y-51425468D01*
X65217073Y-51425468D01*
X66190000Y-52398395D01*
X67162927Y-51425468D01*
X71417073Y-51425468D01*
X72390000Y-52398395D01*
X73362927Y-51425468D01*
X77917073Y-51425468D01*
X78890000Y-52398395D01*
X79862927Y-51425468D01*
X79764264Y-51158613D01*
X79759627Y-51156890D01*
X84918524Y-51156890D01*
X85088355Y-51566924D01*
X85478642Y-51995183D01*
X86003108Y-52241486D01*
X86233000Y-52120819D01*
X86233000Y-50927000D01*
X86487000Y-50927000D01*
X86487000Y-52120819D01*
X86716892Y-52241486D01*
X87241358Y-51995183D01*
X87631645Y-51566924D01*
X87801476Y-51156890D01*
X87680155Y-50927000D01*
X86487000Y-50927000D01*
X86233000Y-50927000D01*
X85039845Y-50927000D01*
X84918524Y-51156890D01*
X79759627Y-51156890D01*
X79154539Y-50932092D01*
X78504540Y-50956144D01*
X78015736Y-51158613D01*
X77917073Y-51425468D01*
X73362927Y-51425468D01*
X73264264Y-51158613D01*
X72654539Y-50932092D01*
X72004540Y-50956144D01*
X71515736Y-51158613D01*
X71417073Y-51425468D01*
X67162927Y-51425468D01*
X67064264Y-51158613D01*
X66454539Y-50932092D01*
X65804540Y-50956144D01*
X65315736Y-51158613D01*
X65217073Y-51425468D01*
X60662927Y-51425468D01*
X60564264Y-51158613D01*
X59954539Y-50932092D01*
X59304540Y-50956144D01*
X58815736Y-51158613D01*
X58717073Y-51425468D01*
X53192927Y-51425468D01*
X53094264Y-51158613D01*
X52484539Y-50932092D01*
X51834540Y-50956144D01*
X51345736Y-51158613D01*
X51247073Y-51425468D01*
X46692927Y-51425468D01*
X46594264Y-51158613D01*
X45984539Y-50932092D01*
X45334540Y-50956144D01*
X44845736Y-51158613D01*
X44747073Y-51425468D01*
X29270234Y-51425468D01*
X29381476Y-51156890D01*
X29260155Y-50927000D01*
X28067000Y-50927000D01*
X28067000Y-50947000D01*
X27813000Y-50947000D01*
X27813000Y-50927000D01*
X25527000Y-50927000D01*
X25527000Y-50947000D01*
X25273000Y-50947000D01*
X25273000Y-50927000D01*
X24079845Y-50927000D01*
X23958524Y-51156890D01*
X18542000Y-51156890D01*
X18542000Y-50443110D01*
X23958524Y-50443110D01*
X24079845Y-50673000D01*
X25273000Y-50673000D01*
X25273000Y-49479181D01*
X25527000Y-49479181D01*
X25527000Y-50673000D01*
X27813000Y-50673000D01*
X27813000Y-49479181D01*
X28067000Y-49479181D01*
X28067000Y-50673000D01*
X29260155Y-50673000D01*
X29381476Y-50443110D01*
X84918524Y-50443110D01*
X85039845Y-50673000D01*
X86233000Y-50673000D01*
X86233000Y-50653000D01*
X86487000Y-50653000D01*
X86487000Y-50673000D01*
X87680155Y-50673000D01*
X87801476Y-50443110D01*
X87631645Y-50033076D01*
X87241358Y-49604817D01*
X86880417Y-49435309D01*
X87287993Y-49162975D01*
X87564812Y-48748687D01*
X87662018Y-48260000D01*
X87564812Y-47771313D01*
X87287993Y-47357025D01*
X86873705Y-47080206D01*
X86420209Y-46990000D01*
X86873705Y-46899794D01*
X87287993Y-46622975D01*
X87564812Y-46208687D01*
X87662018Y-45720000D01*
X87564812Y-45231313D01*
X87287993Y-44817025D01*
X86873705Y-44540206D01*
X86420209Y-44450000D01*
X86873705Y-44359794D01*
X87287993Y-44082975D01*
X87564812Y-43668687D01*
X87662018Y-43180000D01*
X87564812Y-42691313D01*
X87287993Y-42277025D01*
X86873705Y-42000206D01*
X86420209Y-41910000D01*
X86873705Y-41819794D01*
X87287993Y-41542975D01*
X87564812Y-41128687D01*
X87662018Y-40640000D01*
X87564812Y-40151313D01*
X87287993Y-39737025D01*
X86873705Y-39460206D01*
X86497454Y-39385365D01*
X87210000Y-39385365D01*
X87368237Y-39355591D01*
X87513567Y-39262073D01*
X87611064Y-39119381D01*
X87645365Y-38950000D01*
X87645365Y-37250000D01*
X87615591Y-37091763D01*
X87522073Y-36946433D01*
X87379381Y-36848936D01*
X87210000Y-36814635D01*
X85510000Y-36814635D01*
X85351763Y-36844409D01*
X85206433Y-36937927D01*
X85108936Y-37080619D01*
X85074635Y-37250000D01*
X85074635Y-38950000D01*
X85104409Y-39108237D01*
X85197927Y-39253567D01*
X85340619Y-39351064D01*
X85510000Y-39385365D01*
X86222546Y-39385365D01*
X85846295Y-39460206D01*
X85432007Y-39737025D01*
X85155188Y-40151313D01*
X85057982Y-40640000D01*
X85155188Y-41128687D01*
X85432007Y-41542975D01*
X85846295Y-41819794D01*
X86299791Y-41910000D01*
X85846295Y-42000206D01*
X85432007Y-42277025D01*
X85155188Y-42691313D01*
X85057982Y-43180000D01*
X85155188Y-43668687D01*
X85432007Y-44082975D01*
X85846295Y-44359794D01*
X86299791Y-44450000D01*
X85846295Y-44540206D01*
X85432007Y-44817025D01*
X85155188Y-45231313D01*
X85057982Y-45720000D01*
X85155188Y-46208687D01*
X85432007Y-46622975D01*
X85846295Y-46899794D01*
X86299791Y-46990000D01*
X85846295Y-47080206D01*
X85432007Y-47357025D01*
X85155188Y-47771313D01*
X85057982Y-48260000D01*
X85155188Y-48748687D01*
X85432007Y-49162975D01*
X85839583Y-49435309D01*
X85478642Y-49604817D01*
X85088355Y-50033076D01*
X84918524Y-50443110D01*
X29381476Y-50443110D01*
X29211645Y-50033076D01*
X28821358Y-49604817D01*
X28296892Y-49358514D01*
X28067000Y-49479181D01*
X27813000Y-49479181D01*
X27583108Y-49358514D01*
X27058642Y-49604817D01*
X26670000Y-50031271D01*
X26281358Y-49604817D01*
X25756892Y-49358514D01*
X25527000Y-49479181D01*
X25273000Y-49479181D01*
X25043108Y-49358514D01*
X24518642Y-49604817D01*
X24128355Y-50033076D01*
X23958524Y-50443110D01*
X18542000Y-50443110D01*
X18542000Y-28296890D01*
X18878524Y-28296890D01*
X19048355Y-28706924D01*
X19438642Y-29135183D01*
X19799583Y-29304691D01*
X19392007Y-29577025D01*
X19115188Y-29991313D01*
X19017982Y-30480000D01*
X19115188Y-30968687D01*
X19392007Y-31382975D01*
X19806295Y-31659794D01*
X20259791Y-31750000D01*
X19806295Y-31840206D01*
X19392007Y-32117025D01*
X19115188Y-32531313D01*
X19017982Y-33020000D01*
X19115188Y-33508687D01*
X19392007Y-33922975D01*
X19806295Y-34199794D01*
X20259791Y-34290000D01*
X19806295Y-34380206D01*
X19392007Y-34657025D01*
X19115188Y-35071313D01*
X19017982Y-35560000D01*
X19115188Y-36048687D01*
X19392007Y-36462975D01*
X19806295Y-36739794D01*
X20259791Y-36830000D01*
X19806295Y-36920206D01*
X19392007Y-37197025D01*
X19115188Y-37611313D01*
X19017982Y-38100000D01*
X19115188Y-38588687D01*
X19392007Y-39002975D01*
X19806295Y-39279794D01*
X20182546Y-39354635D01*
X19470000Y-39354635D01*
X19311763Y-39384409D01*
X19166433Y-39477927D01*
X19068936Y-39620619D01*
X19034635Y-39790000D01*
X19034635Y-41490000D01*
X19064409Y-41648237D01*
X19157927Y-41793567D01*
X19300619Y-41891064D01*
X19470000Y-41925365D01*
X21170000Y-41925365D01*
X21328237Y-41895591D01*
X21473567Y-41802073D01*
X21571064Y-41659381D01*
X21605365Y-41490000D01*
X21605365Y-39790000D01*
X21575591Y-39631763D01*
X21482073Y-39486433D01*
X21339381Y-39388936D01*
X21170000Y-39354635D01*
X20457454Y-39354635D01*
X20833705Y-39279794D01*
X21247993Y-39002975D01*
X21524812Y-38588687D01*
X21622018Y-38100000D01*
X21524812Y-37611313D01*
X21247993Y-37197025D01*
X20833705Y-36920206D01*
X20380209Y-36830000D01*
X20833705Y-36739794D01*
X21247993Y-36462975D01*
X21524812Y-36048687D01*
X21622018Y-35560000D01*
X21524812Y-35071313D01*
X21247993Y-34657025D01*
X20833705Y-34380206D01*
X20380209Y-34290000D01*
X20833705Y-34199794D01*
X21247993Y-33922975D01*
X21524812Y-33508687D01*
X21622018Y-33020000D01*
X21524812Y-32531313D01*
X21247993Y-32117025D01*
X20833705Y-31840206D01*
X20380209Y-31750000D01*
X20833705Y-31659794D01*
X21247993Y-31382975D01*
X21524812Y-30968687D01*
X21622018Y-30480000D01*
X21524812Y-29991313D01*
X21247993Y-29577025D01*
X20840417Y-29304691D01*
X21201358Y-29135183D01*
X21591645Y-28706924D01*
X21761476Y-28296890D01*
X23958524Y-28296890D01*
X24128355Y-28706924D01*
X24518642Y-29135183D01*
X24879583Y-29304691D01*
X24472007Y-29577025D01*
X24195188Y-29991313D01*
X24097982Y-30480000D01*
X24195188Y-30968687D01*
X24472007Y-31382975D01*
X24886295Y-31659794D01*
X25339791Y-31750000D01*
X24886295Y-31840206D01*
X24472007Y-32117025D01*
X24195188Y-32531313D01*
X24097982Y-33020000D01*
X24195188Y-33508687D01*
X24472007Y-33922975D01*
X24886295Y-34199794D01*
X25339791Y-34290000D01*
X24886295Y-34380206D01*
X24472007Y-34657025D01*
X24195188Y-35071313D01*
X24097982Y-35560000D01*
X24195188Y-36048687D01*
X24472007Y-36462975D01*
X24886295Y-36739794D01*
X25339791Y-36830000D01*
X24886295Y-36920206D01*
X24472007Y-37197025D01*
X24195188Y-37611313D01*
X24097982Y-38100000D01*
X24195188Y-38588687D01*
X24472007Y-39002975D01*
X24886295Y-39279794D01*
X25339791Y-39370000D01*
X24886295Y-39460206D01*
X24472007Y-39737025D01*
X24195188Y-40151313D01*
X24097982Y-40640000D01*
X24195188Y-41128687D01*
X24472007Y-41542975D01*
X24886295Y-41819794D01*
X25374982Y-41917000D01*
X25425018Y-41917000D01*
X25913705Y-41819794D01*
X26327993Y-41542975D01*
X26604812Y-41128687D01*
X26654635Y-40878210D01*
X26654635Y-41490000D01*
X26684409Y-41648237D01*
X26777927Y-41793567D01*
X26920619Y-41891064D01*
X27090000Y-41925365D01*
X28790000Y-41925365D01*
X28948237Y-41895591D01*
X29093567Y-41802073D01*
X29191064Y-41659381D01*
X29225365Y-41490000D01*
X29225365Y-39790000D01*
X29195591Y-39631763D01*
X29102073Y-39486433D01*
X28959381Y-39388936D01*
X28790000Y-39354635D01*
X28077454Y-39354635D01*
X28453705Y-39279794D01*
X28867993Y-39002975D01*
X29144812Y-38588687D01*
X29242018Y-38100000D01*
X29144812Y-37611313D01*
X28867993Y-37197025D01*
X28453705Y-36920206D01*
X28000209Y-36830000D01*
X28453705Y-36739794D01*
X28802193Y-36506941D01*
X37223000Y-36506941D01*
X37223000Y-37153059D01*
X37289758Y-37488672D01*
X37479867Y-37773192D01*
X37764387Y-37963301D01*
X38100000Y-38030059D01*
X38435613Y-37963301D01*
X38720133Y-37773192D01*
X38735000Y-37750942D01*
X38749867Y-37773192D01*
X39034387Y-37963301D01*
X39370000Y-38030059D01*
X39705613Y-37963301D01*
X39861996Y-37858810D01*
X39877927Y-37883567D01*
X40020619Y-37981064D01*
X40190000Y-38015365D01*
X41090000Y-38015365D01*
X41248237Y-37985591D01*
X41393567Y-37892073D01*
X41491064Y-37749381D01*
X41525365Y-37580000D01*
X41525365Y-36080000D01*
X41495591Y-35921763D01*
X41402073Y-35776433D01*
X41259381Y-35678936D01*
X41090000Y-35644635D01*
X40190000Y-35644635D01*
X40031763Y-35674409D01*
X39886433Y-35767927D01*
X39863170Y-35801974D01*
X39705613Y-35696699D01*
X39370000Y-35629941D01*
X39034387Y-35696699D01*
X38749867Y-35886808D01*
X38735000Y-35909058D01*
X38720133Y-35886808D01*
X38435613Y-35696699D01*
X38100000Y-35629941D01*
X37764387Y-35696699D01*
X37479867Y-35886808D01*
X37289758Y-36171328D01*
X37223000Y-36506941D01*
X28802193Y-36506941D01*
X28867993Y-36462975D01*
X29144812Y-36048687D01*
X29242018Y-35560000D01*
X29144812Y-35071313D01*
X28867993Y-34657025D01*
X28453705Y-34380206D01*
X28000209Y-34290000D01*
X28453705Y-34199794D01*
X28867993Y-33922975D01*
X29144812Y-33508687D01*
X29242018Y-33020000D01*
X29144812Y-32531313D01*
X28867993Y-32117025D01*
X28746357Y-32035750D01*
X44135040Y-32035750D01*
X44135040Y-32826270D01*
X44231713Y-33059659D01*
X44410342Y-33238287D01*
X44643731Y-33334960D01*
X44727692Y-33334960D01*
X44553351Y-33508997D01*
X44343280Y-34014904D01*
X44342802Y-34562693D01*
X44551990Y-35068966D01*
X44938997Y-35456649D01*
X45187881Y-35559995D01*
X44941034Y-35661990D01*
X44553351Y-36048997D01*
X44343280Y-36554904D01*
X44342802Y-37102693D01*
X44551990Y-37608966D01*
X44938997Y-37996649D01*
X45187881Y-38099995D01*
X44941034Y-38201990D01*
X44553351Y-38588997D01*
X44343280Y-39094904D01*
X44342802Y-39642693D01*
X44551990Y-40148966D01*
X44938997Y-40536649D01*
X45187881Y-40639995D01*
X44941034Y-40741990D01*
X44553351Y-41128997D01*
X44343280Y-41634904D01*
X44342802Y-42182693D01*
X44551990Y-42688966D01*
X44938997Y-43076649D01*
X45444904Y-43286720D01*
X45992693Y-43287198D01*
X46498966Y-43078010D01*
X46550745Y-43026321D01*
X49863284Y-43026321D01*
X49955815Y-43287986D01*
X50547407Y-43506149D01*
X51177454Y-43481312D01*
X51644185Y-43287986D01*
X51736716Y-43026321D01*
X50800000Y-42089605D01*
X49863284Y-43026321D01*
X46550745Y-43026321D01*
X46886649Y-42691003D01*
X47096720Y-42185096D01*
X47097180Y-41657407D01*
X49203851Y-41657407D01*
X49228688Y-42287454D01*
X49422014Y-42754185D01*
X49683679Y-42846716D01*
X50620395Y-41910000D01*
X49683679Y-40973284D01*
X49422014Y-41065815D01*
X49203851Y-41657407D01*
X47097180Y-41657407D01*
X47097198Y-41637307D01*
X46888010Y-41131034D01*
X46501003Y-40743351D01*
X46252119Y-40640005D01*
X46498966Y-40538010D01*
X46886649Y-40151003D01*
X47096720Y-39645096D01*
X47097198Y-39097307D01*
X46888010Y-38591034D01*
X46501003Y-38203351D01*
X46252119Y-38100005D01*
X46498966Y-37998010D01*
X46886649Y-37611003D01*
X47092287Y-37115771D01*
X49356750Y-37115771D01*
X49575971Y-37646326D01*
X49981539Y-38052603D01*
X50181564Y-38135660D01*
X50021034Y-38201990D01*
X49633351Y-38588997D01*
X49423280Y-39094904D01*
X49422802Y-39642693D01*
X49631990Y-40148966D01*
X49997241Y-40514855D01*
X49955815Y-40532014D01*
X49863284Y-40793679D01*
X50800000Y-41730395D01*
X51736716Y-40793679D01*
X51644185Y-40532014D01*
X51600946Y-40516069D01*
X51966649Y-40151003D01*
X52069995Y-39902119D01*
X52171990Y-40148966D01*
X52558997Y-40536649D01*
X52807881Y-40639995D01*
X52561034Y-40741990D01*
X52195145Y-41107241D01*
X52177986Y-41065815D01*
X51916321Y-40973284D01*
X50979605Y-41910000D01*
X51916321Y-42846716D01*
X52177986Y-42754185D01*
X52193931Y-42710946D01*
X52558997Y-43076649D01*
X53064904Y-43286720D01*
X53612693Y-43287198D01*
X54118966Y-43078010D01*
X54170745Y-43026321D01*
X57483284Y-43026321D01*
X57575815Y-43287986D01*
X58167407Y-43506149D01*
X58797454Y-43481312D01*
X59264185Y-43287986D01*
X59356716Y-43026321D01*
X58420000Y-42089605D01*
X57483284Y-43026321D01*
X54170745Y-43026321D01*
X54506649Y-42691003D01*
X54716720Y-42185096D01*
X54717180Y-41657407D01*
X56823851Y-41657407D01*
X56848688Y-42287454D01*
X57042014Y-42754185D01*
X57303679Y-42846716D01*
X58240395Y-41910000D01*
X58599605Y-41910000D01*
X59536321Y-42846716D01*
X59797986Y-42754185D01*
X60016149Y-42162593D01*
X59991312Y-41532546D01*
X59797986Y-41065815D01*
X59536321Y-40973284D01*
X58599605Y-41910000D01*
X58240395Y-41910000D01*
X57303679Y-40973284D01*
X57042014Y-41065815D01*
X56823851Y-41657407D01*
X54717180Y-41657407D01*
X54717198Y-41637307D01*
X54508010Y-41131034D01*
X54121003Y-40743351D01*
X53872119Y-40640005D01*
X54118966Y-40538010D01*
X54506649Y-40151003D01*
X54716720Y-39645096D01*
X54717198Y-39097307D01*
X54508010Y-38591034D01*
X54121003Y-38203351D01*
X53872119Y-38100005D01*
X54118966Y-37998010D01*
X54506649Y-37611003D01*
X54712287Y-37115771D01*
X56976750Y-37115771D01*
X57195971Y-37646326D01*
X57601539Y-38052603D01*
X57801564Y-38135660D01*
X57641034Y-38201990D01*
X57253351Y-38588997D01*
X57043280Y-39094904D01*
X57042802Y-39642693D01*
X57251990Y-40148966D01*
X57617241Y-40514855D01*
X57575815Y-40532014D01*
X57483284Y-40793679D01*
X58420000Y-41730395D01*
X59356716Y-40793679D01*
X59264185Y-40532014D01*
X59220946Y-40516069D01*
X59586649Y-40151003D01*
X59796720Y-39645096D01*
X59797198Y-39097307D01*
X59588010Y-38591034D01*
X59201003Y-38203351D01*
X59038374Y-38135821D01*
X59236326Y-38054029D01*
X59642603Y-37648461D01*
X59862749Y-37118290D01*
X59863250Y-36544229D01*
X59644029Y-36013674D01*
X59238461Y-35607397D01*
X59038436Y-35524340D01*
X59198966Y-35458010D01*
X59586649Y-35071003D01*
X59796720Y-34565096D01*
X59797198Y-34017307D01*
X59588010Y-33511034D01*
X59201003Y-33123351D01*
X58952119Y-33020005D01*
X59198966Y-32918010D01*
X59586649Y-32531003D01*
X59792296Y-32035750D01*
X64455040Y-32035750D01*
X64455040Y-32826270D01*
X64551713Y-33059659D01*
X64730342Y-33238287D01*
X64963731Y-33334960D01*
X65047692Y-33334960D01*
X64873351Y-33508997D01*
X64663280Y-34014904D01*
X64662802Y-34562693D01*
X64871990Y-35068966D01*
X65258997Y-35456649D01*
X65507881Y-35559995D01*
X65261034Y-35661990D01*
X64873351Y-36048997D01*
X64663280Y-36554904D01*
X64662802Y-37102693D01*
X64871990Y-37608966D01*
X65258997Y-37996649D01*
X65507881Y-38099995D01*
X65261034Y-38201990D01*
X64873351Y-38588997D01*
X64663280Y-39094904D01*
X64662802Y-39642693D01*
X64871990Y-40148966D01*
X65258997Y-40536649D01*
X65507881Y-40639995D01*
X65261034Y-40741990D01*
X64873351Y-41128997D01*
X64663280Y-41634904D01*
X64662802Y-42182693D01*
X64871990Y-42688966D01*
X65258997Y-43076649D01*
X65764904Y-43286720D01*
X66312693Y-43287198D01*
X66818966Y-43078010D01*
X66870745Y-43026321D01*
X70183284Y-43026321D01*
X70275815Y-43287986D01*
X70867407Y-43506149D01*
X71497454Y-43481312D01*
X71964185Y-43287986D01*
X72056716Y-43026321D01*
X71120000Y-42089605D01*
X70183284Y-43026321D01*
X66870745Y-43026321D01*
X67206649Y-42691003D01*
X67416720Y-42185096D01*
X67417180Y-41657407D01*
X69523851Y-41657407D01*
X69548688Y-42287454D01*
X69742014Y-42754185D01*
X70003679Y-42846716D01*
X70940395Y-41910000D01*
X70003679Y-40973284D01*
X69742014Y-41065815D01*
X69523851Y-41657407D01*
X67417180Y-41657407D01*
X67417198Y-41637307D01*
X67208010Y-41131034D01*
X66821003Y-40743351D01*
X66572119Y-40640005D01*
X66818966Y-40538010D01*
X67206649Y-40151003D01*
X67416720Y-39645096D01*
X67417198Y-39097307D01*
X67208010Y-38591034D01*
X66821003Y-38203351D01*
X66572119Y-38100005D01*
X66818966Y-37998010D01*
X67206649Y-37611003D01*
X67412287Y-37115771D01*
X69676750Y-37115771D01*
X69895971Y-37646326D01*
X70301539Y-38052603D01*
X70501564Y-38135660D01*
X70341034Y-38201990D01*
X69953351Y-38588997D01*
X69743280Y-39094904D01*
X69742802Y-39642693D01*
X69951990Y-40148966D01*
X70317241Y-40514855D01*
X70275815Y-40532014D01*
X70183284Y-40793679D01*
X71120000Y-41730395D01*
X72056716Y-40793679D01*
X71964185Y-40532014D01*
X71920946Y-40516069D01*
X72286649Y-40151003D01*
X72389995Y-39902119D01*
X72491990Y-40148966D01*
X72878997Y-40536649D01*
X73127881Y-40639995D01*
X72881034Y-40741990D01*
X72515145Y-41107241D01*
X72497986Y-41065815D01*
X72236321Y-40973284D01*
X71299605Y-41910000D01*
X72236321Y-42846716D01*
X72497986Y-42754185D01*
X72513931Y-42710946D01*
X72878997Y-43076649D01*
X73384904Y-43286720D01*
X73932693Y-43287198D01*
X74438966Y-43078010D01*
X74490745Y-43026321D01*
X77803284Y-43026321D01*
X77895815Y-43287986D01*
X78487407Y-43506149D01*
X79117454Y-43481312D01*
X79584185Y-43287986D01*
X79676716Y-43026321D01*
X78740000Y-42089605D01*
X77803284Y-43026321D01*
X74490745Y-43026321D01*
X74826649Y-42691003D01*
X75036720Y-42185096D01*
X75037180Y-41657407D01*
X77143851Y-41657407D01*
X77168688Y-42287454D01*
X77362014Y-42754185D01*
X77623679Y-42846716D01*
X78560395Y-41910000D01*
X78919605Y-41910000D01*
X79856321Y-42846716D01*
X80117986Y-42754185D01*
X80336149Y-42162593D01*
X80311312Y-41532546D01*
X80117986Y-41065815D01*
X79856321Y-40973284D01*
X78919605Y-41910000D01*
X78560395Y-41910000D01*
X77623679Y-40973284D01*
X77362014Y-41065815D01*
X77143851Y-41657407D01*
X75037180Y-41657407D01*
X75037198Y-41637307D01*
X74828010Y-41131034D01*
X74441003Y-40743351D01*
X74192119Y-40640005D01*
X74438966Y-40538010D01*
X74826649Y-40151003D01*
X75036720Y-39645096D01*
X75037198Y-39097307D01*
X74828010Y-38591034D01*
X74441003Y-38203351D01*
X74192119Y-38100005D01*
X74438966Y-37998010D01*
X74826649Y-37611003D01*
X75032287Y-37115771D01*
X77296750Y-37115771D01*
X77515971Y-37646326D01*
X77921539Y-38052603D01*
X78121564Y-38135660D01*
X77961034Y-38201990D01*
X77573351Y-38588997D01*
X77363280Y-39094904D01*
X77362802Y-39642693D01*
X77571990Y-40148966D01*
X77937241Y-40514855D01*
X77895815Y-40532014D01*
X77803284Y-40793679D01*
X78740000Y-41730395D01*
X79676716Y-40793679D01*
X79584185Y-40532014D01*
X79540946Y-40516069D01*
X79906649Y-40151003D01*
X80116720Y-39645096D01*
X80117198Y-39097307D01*
X79908010Y-38591034D01*
X79521003Y-38203351D01*
X79358374Y-38135821D01*
X79556326Y-38054029D01*
X79962603Y-37648461D01*
X80182749Y-37118290D01*
X80183250Y-36544229D01*
X79964029Y-36013674D01*
X79558461Y-35607397D01*
X79358436Y-35524340D01*
X79518966Y-35458010D01*
X79906649Y-35071003D01*
X80116720Y-34565096D01*
X80117198Y-34017307D01*
X79908010Y-33511034D01*
X79521003Y-33123351D01*
X79272119Y-33020005D01*
X79518966Y-32918010D01*
X79906649Y-32531003D01*
X80116720Y-32025096D01*
X80117198Y-31477307D01*
X79908010Y-30971034D01*
X79521003Y-30583351D01*
X79015096Y-30373280D01*
X78467307Y-30372802D01*
X77961034Y-30581990D01*
X77573351Y-30968997D01*
X77363280Y-31474904D01*
X77362802Y-32022693D01*
X77571990Y-32528966D01*
X77958997Y-32916649D01*
X78207881Y-33019995D01*
X77961034Y-33121990D01*
X77573351Y-33508997D01*
X77363280Y-34014904D01*
X77362802Y-34562693D01*
X77571990Y-35068966D01*
X77958997Y-35456649D01*
X78121626Y-35524179D01*
X77923674Y-35605971D01*
X77517397Y-36011539D01*
X77297251Y-36541710D01*
X77296750Y-37115771D01*
X75032287Y-37115771D01*
X75036720Y-37105096D01*
X75037198Y-36557307D01*
X74828010Y-36051034D01*
X74441003Y-35663351D01*
X74192119Y-35560005D01*
X74438966Y-35458010D01*
X74826649Y-35071003D01*
X75036720Y-34565096D01*
X75037198Y-34017307D01*
X74828010Y-33511034D01*
X74652243Y-33334960D01*
X74736269Y-33334960D01*
X74969658Y-33238287D01*
X75148287Y-33059659D01*
X75244960Y-32826270D01*
X75244960Y-32035750D01*
X75086210Y-31877000D01*
X73787000Y-31877000D01*
X73787000Y-31897000D01*
X73533000Y-31897000D01*
X73533000Y-31877000D01*
X73513000Y-31877000D01*
X73513000Y-31623000D01*
X73533000Y-31623000D01*
X73533000Y-30323790D01*
X73787000Y-30323790D01*
X73787000Y-31623000D01*
X75086210Y-31623000D01*
X75244960Y-31464250D01*
X75244960Y-30673730D01*
X75148287Y-30440341D01*
X74969658Y-30261713D01*
X74736269Y-30165040D01*
X73945750Y-30165040D01*
X73787000Y-30323790D01*
X73533000Y-30323790D01*
X73374250Y-30165040D01*
X72583731Y-30165040D01*
X72350342Y-30261713D01*
X72171713Y-30440341D01*
X72075040Y-30673730D01*
X72075040Y-30757692D01*
X71901003Y-30583351D01*
X71395096Y-30373280D01*
X70847307Y-30372802D01*
X70341034Y-30581990D01*
X69953351Y-30968997D01*
X69743280Y-31474904D01*
X69742802Y-32022693D01*
X69951990Y-32528966D01*
X70338997Y-32916649D01*
X70587881Y-33019995D01*
X70341034Y-33121990D01*
X69953351Y-33508997D01*
X69743280Y-34014904D01*
X69742802Y-34562693D01*
X69951990Y-35068966D01*
X70338997Y-35456649D01*
X70501626Y-35524179D01*
X70303674Y-35605971D01*
X69897397Y-36011539D01*
X69677251Y-36541710D01*
X69676750Y-37115771D01*
X67412287Y-37115771D01*
X67416720Y-37105096D01*
X67417198Y-36557307D01*
X67208010Y-36051034D01*
X66821003Y-35663351D01*
X66572119Y-35560005D01*
X66818966Y-35458010D01*
X67206649Y-35071003D01*
X67416720Y-34565096D01*
X67417198Y-34017307D01*
X67208010Y-33511034D01*
X67032243Y-33334960D01*
X67116269Y-33334960D01*
X67349658Y-33238287D01*
X67528287Y-33059659D01*
X67624960Y-32826270D01*
X67624960Y-32035750D01*
X67466210Y-31877000D01*
X66167000Y-31877000D01*
X66167000Y-31897000D01*
X65913000Y-31897000D01*
X65913000Y-31877000D01*
X64613790Y-31877000D01*
X64455040Y-32035750D01*
X59792296Y-32035750D01*
X59796720Y-32025096D01*
X59797198Y-31477307D01*
X59588010Y-30971034D01*
X59291225Y-30673730D01*
X64455040Y-30673730D01*
X64455040Y-31464250D01*
X64613790Y-31623000D01*
X65913000Y-31623000D01*
X65913000Y-30323790D01*
X66167000Y-30323790D01*
X66167000Y-31623000D01*
X67466210Y-31623000D01*
X67624960Y-31464250D01*
X67624960Y-30673730D01*
X67528287Y-30440341D01*
X67349658Y-30261713D01*
X67116269Y-30165040D01*
X66325750Y-30165040D01*
X66167000Y-30323790D01*
X65913000Y-30323790D01*
X65754250Y-30165040D01*
X64963731Y-30165040D01*
X64730342Y-30261713D01*
X64551713Y-30440341D01*
X64455040Y-30673730D01*
X59291225Y-30673730D01*
X59201003Y-30583351D01*
X58695096Y-30373280D01*
X58147307Y-30372802D01*
X57641034Y-30581990D01*
X57253351Y-30968997D01*
X57043280Y-31474904D01*
X57042802Y-32022693D01*
X57251990Y-32528966D01*
X57638997Y-32916649D01*
X57887881Y-33019995D01*
X57641034Y-33121990D01*
X57253351Y-33508997D01*
X57043280Y-34014904D01*
X57042802Y-34562693D01*
X57251990Y-35068966D01*
X57638997Y-35456649D01*
X57801626Y-35524179D01*
X57603674Y-35605971D01*
X57197397Y-36011539D01*
X56977251Y-36541710D01*
X56976750Y-37115771D01*
X54712287Y-37115771D01*
X54716720Y-37105096D01*
X54717198Y-36557307D01*
X54508010Y-36051034D01*
X54121003Y-35663351D01*
X53872119Y-35560005D01*
X54118966Y-35458010D01*
X54506649Y-35071003D01*
X54716720Y-34565096D01*
X54717198Y-34017307D01*
X54508010Y-33511034D01*
X54332243Y-33334960D01*
X54416269Y-33334960D01*
X54649658Y-33238287D01*
X54828287Y-33059659D01*
X54924960Y-32826270D01*
X54924960Y-32035750D01*
X54766210Y-31877000D01*
X53467000Y-31877000D01*
X53467000Y-31897000D01*
X53213000Y-31897000D01*
X53213000Y-31877000D01*
X53193000Y-31877000D01*
X53193000Y-31623000D01*
X53213000Y-31623000D01*
X53213000Y-30323790D01*
X53467000Y-30323790D01*
X53467000Y-31623000D01*
X54766210Y-31623000D01*
X54924960Y-31464250D01*
X54924960Y-30673730D01*
X54828287Y-30440341D01*
X54649658Y-30261713D01*
X54416269Y-30165040D01*
X53625750Y-30165040D01*
X53467000Y-30323790D01*
X53213000Y-30323790D01*
X53054250Y-30165040D01*
X52263731Y-30165040D01*
X52030342Y-30261713D01*
X51851713Y-30440341D01*
X51755040Y-30673730D01*
X51755040Y-30757692D01*
X51581003Y-30583351D01*
X51075096Y-30373280D01*
X50527307Y-30372802D01*
X50021034Y-30581990D01*
X49633351Y-30968997D01*
X49423280Y-31474904D01*
X49422802Y-32022693D01*
X49631990Y-32528966D01*
X50018997Y-32916649D01*
X50267881Y-33019995D01*
X50021034Y-33121990D01*
X49633351Y-33508997D01*
X49423280Y-34014904D01*
X49422802Y-34562693D01*
X49631990Y-35068966D01*
X50018997Y-35456649D01*
X50181626Y-35524179D01*
X49983674Y-35605971D01*
X49577397Y-36011539D01*
X49357251Y-36541710D01*
X49356750Y-37115771D01*
X47092287Y-37115771D01*
X47096720Y-37105096D01*
X47097198Y-36557307D01*
X46888010Y-36051034D01*
X46501003Y-35663351D01*
X46252119Y-35560005D01*
X46498966Y-35458010D01*
X46886649Y-35071003D01*
X47096720Y-34565096D01*
X47097198Y-34017307D01*
X46888010Y-33511034D01*
X46712243Y-33334960D01*
X46796269Y-33334960D01*
X47029658Y-33238287D01*
X47208287Y-33059659D01*
X47304960Y-32826270D01*
X47304960Y-32035750D01*
X47146210Y-31877000D01*
X45847000Y-31877000D01*
X45847000Y-31897000D01*
X45593000Y-31897000D01*
X45593000Y-31877000D01*
X44293790Y-31877000D01*
X44135040Y-32035750D01*
X28746357Y-32035750D01*
X28453705Y-31840206D01*
X28000209Y-31750000D01*
X28453705Y-31659794D01*
X28867993Y-31382975D01*
X29144812Y-30968687D01*
X29203482Y-30673730D01*
X44135040Y-30673730D01*
X44135040Y-31464250D01*
X44293790Y-31623000D01*
X45593000Y-31623000D01*
X45593000Y-30323790D01*
X45847000Y-30323790D01*
X45847000Y-31623000D01*
X47146210Y-31623000D01*
X47304960Y-31464250D01*
X47304960Y-30673730D01*
X47208287Y-30440341D01*
X47029658Y-30261713D01*
X46796269Y-30165040D01*
X46005750Y-30165040D01*
X45847000Y-30323790D01*
X45593000Y-30323790D01*
X45434250Y-30165040D01*
X44643731Y-30165040D01*
X44410342Y-30261713D01*
X44231713Y-30440341D01*
X44135040Y-30673730D01*
X29203482Y-30673730D01*
X29242018Y-30480000D01*
X29144812Y-29991313D01*
X28867993Y-29577025D01*
X28460417Y-29304691D01*
X28821358Y-29135183D01*
X29211645Y-28706924D01*
X29381476Y-28296890D01*
X29343933Y-28225750D01*
X31585000Y-28225750D01*
X31585000Y-28866310D01*
X31681673Y-29099699D01*
X31860302Y-29278327D01*
X32093691Y-29375000D01*
X32734250Y-29375000D01*
X32893000Y-29216250D01*
X32893000Y-28067000D01*
X33147000Y-28067000D01*
X33147000Y-29216250D01*
X33305750Y-29375000D01*
X33946309Y-29375000D01*
X34179698Y-29278327D01*
X34358327Y-29099699D01*
X34455000Y-28866310D01*
X34455000Y-28225750D01*
X34412245Y-28182995D01*
X38292788Y-28182995D01*
X38479194Y-28634131D01*
X38824053Y-28979593D01*
X39274864Y-29166786D01*
X39762995Y-29167212D01*
X40214131Y-28980806D01*
X40559593Y-28635947D01*
X40746786Y-28185136D01*
X40747212Y-27697005D01*
X40560806Y-27245869D01*
X40215947Y-26900407D01*
X39765136Y-26713214D01*
X39277005Y-26712788D01*
X38825869Y-26899194D01*
X38480407Y-27244053D01*
X38293214Y-27694864D01*
X38292788Y-28182995D01*
X34412245Y-28182995D01*
X34296250Y-28067000D01*
X33147000Y-28067000D01*
X32893000Y-28067000D01*
X31743750Y-28067000D01*
X31585000Y-28225750D01*
X29343933Y-28225750D01*
X29260155Y-28067000D01*
X28067000Y-28067000D01*
X28067000Y-28087000D01*
X27813000Y-28087000D01*
X27813000Y-28067000D01*
X25527000Y-28067000D01*
X25527000Y-28087000D01*
X25273000Y-28087000D01*
X25273000Y-28067000D01*
X24079845Y-28067000D01*
X23958524Y-28296890D01*
X21761476Y-28296890D01*
X21640155Y-28067000D01*
X20447000Y-28067000D01*
X20447000Y-28087000D01*
X20193000Y-28087000D01*
X20193000Y-28067000D01*
X18999845Y-28067000D01*
X18878524Y-28296890D01*
X18542000Y-28296890D01*
X18542000Y-27583110D01*
X18878524Y-27583110D01*
X18999845Y-27813000D01*
X20193000Y-27813000D01*
X20193000Y-26619181D01*
X20447000Y-26619181D01*
X20447000Y-27813000D01*
X21640155Y-27813000D01*
X21761476Y-27583110D01*
X23958524Y-27583110D01*
X24079845Y-27813000D01*
X25273000Y-27813000D01*
X25273000Y-26619181D01*
X25527000Y-26619181D01*
X25527000Y-27813000D01*
X27813000Y-27813000D01*
X27813000Y-26619181D01*
X28067000Y-26619181D01*
X28067000Y-27813000D01*
X29260155Y-27813000D01*
X29381476Y-27583110D01*
X29211645Y-27173076D01*
X29066392Y-27013690D01*
X31585000Y-27013690D01*
X31585000Y-27654250D01*
X31743750Y-27813000D01*
X32893000Y-27813000D01*
X32893000Y-26663750D01*
X33147000Y-26663750D01*
X33147000Y-27813000D01*
X34296250Y-27813000D01*
X34455000Y-27654250D01*
X34455000Y-27013690D01*
X34358327Y-26780301D01*
X34179698Y-26601673D01*
X33946309Y-26505000D01*
X33305750Y-26505000D01*
X33147000Y-26663750D01*
X32893000Y-26663750D01*
X32734250Y-26505000D01*
X32093691Y-26505000D01*
X31860302Y-26601673D01*
X31681673Y-26780301D01*
X31585000Y-27013690D01*
X29066392Y-27013690D01*
X28821358Y-26744817D01*
X28296892Y-26498514D01*
X28067000Y-26619181D01*
X27813000Y-26619181D01*
X27583108Y-26498514D01*
X27058642Y-26744817D01*
X26670000Y-27171271D01*
X26281358Y-26744817D01*
X25756892Y-26498514D01*
X25527000Y-26619181D01*
X25273000Y-26619181D01*
X25043108Y-26498514D01*
X24518642Y-26744817D01*
X24128355Y-27173076D01*
X23958524Y-27583110D01*
X21761476Y-27583110D01*
X21591645Y-27173076D01*
X21201358Y-26744817D01*
X20676892Y-26498514D01*
X20447000Y-26619181D01*
X20193000Y-26619181D01*
X19963108Y-26498514D01*
X19438642Y-26744817D01*
X19048355Y-27173076D01*
X18878524Y-27583110D01*
X18542000Y-27583110D01*
X18542000Y-20294982D01*
X42919000Y-20294982D01*
X42919000Y-20345018D01*
X43016206Y-20833705D01*
X43293025Y-21247993D01*
X43707313Y-21524812D01*
X44035035Y-21590000D01*
X43707313Y-21655188D01*
X43293025Y-21932007D01*
X43016206Y-22346295D01*
X42919000Y-22834982D01*
X42919000Y-22885018D01*
X43016206Y-23373705D01*
X43293025Y-23787993D01*
X43707313Y-24064812D01*
X44196000Y-24162018D01*
X44684687Y-24064812D01*
X45098975Y-23787993D01*
X45375794Y-23373705D01*
X45466000Y-22920209D01*
X45556206Y-23373705D01*
X45833025Y-23787993D01*
X46247313Y-24064812D01*
X46736000Y-24162018D01*
X47224687Y-24064812D01*
X47638975Y-23787993D01*
X47915794Y-23373705D01*
X48006000Y-22920209D01*
X48096206Y-23373705D01*
X48373025Y-23787993D01*
X48787313Y-24064812D01*
X49276000Y-24162018D01*
X49764687Y-24064812D01*
X50178975Y-23787993D01*
X50455794Y-23373705D01*
X50546000Y-22920209D01*
X50636206Y-23373705D01*
X50913025Y-23787993D01*
X51327313Y-24064812D01*
X51816000Y-24162018D01*
X52304687Y-24064812D01*
X52718975Y-23787993D01*
X52995794Y-23373705D01*
X53086000Y-22920209D01*
X53176206Y-23373705D01*
X53453025Y-23787993D01*
X53867313Y-24064812D01*
X54356000Y-24162018D01*
X54844687Y-24064812D01*
X55258975Y-23787993D01*
X55535794Y-23373705D01*
X55626000Y-22920209D01*
X55716206Y-23373705D01*
X55993025Y-23787993D01*
X56407313Y-24064812D01*
X56896000Y-24162018D01*
X57384687Y-24064812D01*
X57798975Y-23787993D01*
X58075794Y-23373705D01*
X58166000Y-22920209D01*
X58256206Y-23373705D01*
X58533025Y-23787993D01*
X58947313Y-24064812D01*
X59436000Y-24162018D01*
X59924687Y-24064812D01*
X60338975Y-23787993D01*
X60615794Y-23373705D01*
X60706000Y-22920209D01*
X60796206Y-23373705D01*
X61073025Y-23787993D01*
X61487313Y-24064812D01*
X61976000Y-24162018D01*
X62464687Y-24064812D01*
X62878975Y-23787993D01*
X63155794Y-23373705D01*
X63253000Y-22885018D01*
X63253000Y-22834982D01*
X63155794Y-22346295D01*
X62878975Y-21932007D01*
X62464687Y-21655188D01*
X62214210Y-21605365D01*
X62826000Y-21605365D01*
X62984237Y-21575591D01*
X63129567Y-21482073D01*
X63227064Y-21339381D01*
X63261365Y-21170000D01*
X63261365Y-20294982D01*
X64763000Y-20294982D01*
X64763000Y-20345018D01*
X64860206Y-20833705D01*
X65137025Y-21247993D01*
X65551313Y-21524812D01*
X65879035Y-21590000D01*
X65551313Y-21655188D01*
X65137025Y-21932007D01*
X64860206Y-22346295D01*
X64763000Y-22834982D01*
X64763000Y-22885018D01*
X64860206Y-23373705D01*
X65137025Y-23787993D01*
X65551313Y-24064812D01*
X66040000Y-24162018D01*
X66528687Y-24064812D01*
X66626791Y-23999261D01*
X66693320Y-24160275D01*
X66897650Y-24364961D01*
X67164756Y-24475874D01*
X67453975Y-24476126D01*
X67721275Y-24365680D01*
X67925961Y-24161350D01*
X67993254Y-23999291D01*
X68091313Y-24064812D01*
X68580000Y-24162018D01*
X69068687Y-24064812D01*
X69482975Y-23787993D01*
X69759794Y-23373705D01*
X69850000Y-22920209D01*
X69940206Y-23373705D01*
X70217025Y-23787993D01*
X70631313Y-24064812D01*
X71120000Y-24162018D01*
X71608687Y-24064812D01*
X72022975Y-23787993D01*
X72299794Y-23373705D01*
X72390000Y-22920209D01*
X72480206Y-23373705D01*
X72757025Y-23787993D01*
X73171313Y-24064812D01*
X73660000Y-24162018D01*
X74148687Y-24064812D01*
X74562975Y-23787993D01*
X74839794Y-23373705D01*
X74930000Y-22920209D01*
X75020206Y-23373705D01*
X75297025Y-23787993D01*
X75711313Y-24064812D01*
X76200000Y-24162018D01*
X76688687Y-24064812D01*
X76786791Y-23999261D01*
X76853320Y-24160275D01*
X77057650Y-24364961D01*
X77324756Y-24475874D01*
X77613975Y-24476126D01*
X77881275Y-24365680D01*
X78085961Y-24161350D01*
X78153254Y-23999291D01*
X78251313Y-24064812D01*
X78740000Y-24162018D01*
X79228687Y-24064812D01*
X79326791Y-23999261D01*
X79393320Y-24160275D01*
X79597650Y-24364961D01*
X79864756Y-24475874D01*
X80153975Y-24476126D01*
X80421275Y-24365680D01*
X80625961Y-24161350D01*
X80693254Y-23999291D01*
X80791313Y-24064812D01*
X81280000Y-24162018D01*
X81768687Y-24064812D01*
X82182975Y-23787993D01*
X82459794Y-23373705D01*
X82550000Y-22920209D01*
X82640206Y-23373705D01*
X82917025Y-23787993D01*
X83331313Y-24064812D01*
X83820000Y-24162018D01*
X84308687Y-24064812D01*
X84722975Y-23787993D01*
X84999794Y-23373705D01*
X85097000Y-22885018D01*
X85097000Y-22834982D01*
X84999794Y-22346295D01*
X84722975Y-21932007D01*
X84308687Y-21655188D01*
X84058210Y-21605365D01*
X84670000Y-21605365D01*
X84828237Y-21575591D01*
X84973567Y-21482073D01*
X85071064Y-21339381D01*
X85105365Y-21170000D01*
X85105365Y-19470000D01*
X85075591Y-19311763D01*
X84982073Y-19166433D01*
X84839381Y-19068936D01*
X84670000Y-19034635D01*
X82970000Y-19034635D01*
X82811763Y-19064409D01*
X82666433Y-19157927D01*
X82568936Y-19300619D01*
X82534635Y-19470000D01*
X82534635Y-20182546D01*
X82459794Y-19806295D01*
X82182975Y-19392007D01*
X81768687Y-19115188D01*
X81280000Y-19017982D01*
X80791313Y-19115188D01*
X80377025Y-19392007D01*
X80100206Y-19806295D01*
X80010000Y-20259791D01*
X79919794Y-19806295D01*
X79642975Y-19392007D01*
X79228687Y-19115188D01*
X78740000Y-19017982D01*
X78251313Y-19115188D01*
X77837025Y-19392007D01*
X77560206Y-19806295D01*
X77470000Y-20259791D01*
X77379794Y-19806295D01*
X77102975Y-19392007D01*
X76688687Y-19115188D01*
X76200000Y-19017982D01*
X75711313Y-19115188D01*
X75297025Y-19392007D01*
X75020206Y-19806295D01*
X74930000Y-20259791D01*
X74839794Y-19806295D01*
X74562975Y-19392007D01*
X74148687Y-19115188D01*
X73660000Y-19017982D01*
X73171313Y-19115188D01*
X72757025Y-19392007D01*
X72480206Y-19806295D01*
X72390000Y-20259791D01*
X72299794Y-19806295D01*
X72022975Y-19392007D01*
X71608687Y-19115188D01*
X71120000Y-19017982D01*
X70631313Y-19115188D01*
X70217025Y-19392007D01*
X69940206Y-19806295D01*
X69850000Y-20259791D01*
X69759794Y-19806295D01*
X69482975Y-19392007D01*
X69068687Y-19115188D01*
X68580000Y-19017982D01*
X68091313Y-19115188D01*
X67677025Y-19392007D01*
X67400206Y-19806295D01*
X67310000Y-20259791D01*
X67219794Y-19806295D01*
X66942975Y-19392007D01*
X66528687Y-19115188D01*
X66040000Y-19017982D01*
X65551313Y-19115188D01*
X65137025Y-19392007D01*
X64860206Y-19806295D01*
X64763000Y-20294982D01*
X63261365Y-20294982D01*
X63261365Y-19470000D01*
X63231591Y-19311763D01*
X63138073Y-19166433D01*
X62995381Y-19068936D01*
X62826000Y-19034635D01*
X61126000Y-19034635D01*
X60967763Y-19064409D01*
X60822433Y-19157927D01*
X60724936Y-19300619D01*
X60690635Y-19470000D01*
X60690635Y-20182546D01*
X60615794Y-19806295D01*
X60338975Y-19392007D01*
X59924687Y-19115188D01*
X59436000Y-19017982D01*
X58947313Y-19115188D01*
X58533025Y-19392007D01*
X58256206Y-19806295D01*
X58166000Y-20259791D01*
X58075794Y-19806295D01*
X57798975Y-19392007D01*
X57384687Y-19115188D01*
X56896000Y-19017982D01*
X56407313Y-19115188D01*
X55993025Y-19392007D01*
X55716206Y-19806295D01*
X55626000Y-20259791D01*
X55535794Y-19806295D01*
X55258975Y-19392007D01*
X54844687Y-19115188D01*
X54356000Y-19017982D01*
X53867313Y-19115188D01*
X53453025Y-19392007D01*
X53176206Y-19806295D01*
X53086000Y-20259791D01*
X52995794Y-19806295D01*
X52718975Y-19392007D01*
X52304687Y-19115188D01*
X51816000Y-19017982D01*
X51327313Y-19115188D01*
X50913025Y-19392007D01*
X50636206Y-19806295D01*
X50546000Y-20259791D01*
X50455794Y-19806295D01*
X50178975Y-19392007D01*
X49764687Y-19115188D01*
X49276000Y-19017982D01*
X48787313Y-19115188D01*
X48373025Y-19392007D01*
X48096206Y-19806295D01*
X48006000Y-20259791D01*
X47915794Y-19806295D01*
X47638975Y-19392007D01*
X47224687Y-19115188D01*
X46736000Y-19017982D01*
X46247313Y-19115188D01*
X45833025Y-19392007D01*
X45556206Y-19806295D01*
X45466000Y-20259791D01*
X45375794Y-19806295D01*
X45098975Y-19392007D01*
X44684687Y-19115188D01*
X44196000Y-19017982D01*
X43707313Y-19115188D01*
X43293025Y-19392007D01*
X43016206Y-19806295D01*
X42919000Y-20294982D01*
X18542000Y-20294982D01*
X18542000Y-18542000D01*
X90678000Y-18542000D01*
X90678000Y-70358000D01*
X90678000Y-70358000D01*
G37*
X90678000Y-70358000D02*
X18542000Y-70358000D01*
X18542000Y-67730000D01*
X52054635Y-67730000D01*
X52054635Y-69430000D01*
X52084409Y-69588237D01*
X52177927Y-69733567D01*
X52320619Y-69831064D01*
X52490000Y-69865365D01*
X54190000Y-69865365D01*
X54348237Y-69835591D01*
X54493567Y-69742073D01*
X54591064Y-69599381D01*
X54625365Y-69430000D01*
X54625365Y-69334764D01*
X54684817Y-69461358D01*
X55113076Y-69851645D01*
X55523110Y-70021476D01*
X55753000Y-69900155D01*
X55753000Y-68707000D01*
X56007000Y-68707000D01*
X56007000Y-69900155D01*
X56236890Y-70021476D01*
X56646924Y-69851645D01*
X57075183Y-69461358D01*
X57150000Y-69302046D01*
X57224817Y-69461358D01*
X57653076Y-69851645D01*
X58063110Y-70021476D01*
X58293000Y-69900155D01*
X58293000Y-68707000D01*
X56007000Y-68707000D01*
X55753000Y-68707000D01*
X55733000Y-68707000D01*
X55733000Y-68453000D01*
X55753000Y-68453000D01*
X55753000Y-67259845D01*
X56007000Y-67259845D01*
X56007000Y-68453000D01*
X58293000Y-68453000D01*
X58293000Y-67259845D01*
X58547000Y-67259845D01*
X58547000Y-68453000D01*
X58567000Y-68453000D01*
X58567000Y-68707000D01*
X58547000Y-68707000D01*
X58547000Y-69900155D01*
X58776890Y-70021476D01*
X59186924Y-69851645D01*
X59615183Y-69461358D01*
X59784691Y-69100417D01*
X60057025Y-69507993D01*
X60471313Y-69784812D01*
X60960000Y-69882018D01*
X61448687Y-69784812D01*
X61862975Y-69507993D01*
X62139794Y-69093705D01*
X62230000Y-68640209D01*
X62320206Y-69093705D01*
X62597025Y-69507993D01*
X63011313Y-69784812D01*
X63500000Y-69882018D01*
X63988687Y-69784812D01*
X64402975Y-69507993D01*
X64679794Y-69093705D01*
X64770000Y-68640209D01*
X64860206Y-69093705D01*
X65137025Y-69507993D01*
X65551313Y-69784812D01*
X66040000Y-69882018D01*
X66528687Y-69784812D01*
X66942975Y-69507993D01*
X67219794Y-69093705D01*
X67317000Y-68605018D01*
X67317000Y-68554982D01*
X67219794Y-68066295D01*
X66942975Y-67652007D01*
X66528687Y-67375188D01*
X66040000Y-67277982D01*
X65551313Y-67375188D01*
X65137025Y-67652007D01*
X64860206Y-68066295D01*
X64770000Y-68519791D01*
X64679794Y-68066295D01*
X64402975Y-67652007D01*
X63988687Y-67375188D01*
X63500000Y-67277982D01*
X63011313Y-67375188D01*
X62597025Y-67652007D01*
X62320206Y-68066295D01*
X62230000Y-68519791D01*
X62139794Y-68066295D01*
X61862975Y-67652007D01*
X61448687Y-67375188D01*
X60960000Y-67277982D01*
X60471313Y-67375188D01*
X60057025Y-67652007D01*
X59784691Y-68059583D01*
X59615183Y-67698642D01*
X59186924Y-67308355D01*
X58776890Y-67138524D01*
X58547000Y-67259845D01*
X58293000Y-67259845D01*
X58063110Y-67138524D01*
X57653076Y-67308355D01*
X57224817Y-67698642D01*
X57150000Y-67857954D01*
X57075183Y-67698642D01*
X56646924Y-67308355D01*
X56236890Y-67138524D01*
X56007000Y-67259845D01*
X55753000Y-67259845D01*
X55523110Y-67138524D01*
X55113076Y-67308355D01*
X54684817Y-67698642D01*
X54625365Y-67825236D01*
X54625365Y-67730000D01*
X54595591Y-67571763D01*
X54502073Y-67426433D01*
X54359381Y-67328936D01*
X54190000Y-67294635D01*
X52490000Y-67294635D01*
X52331763Y-67324409D01*
X52186433Y-67417927D01*
X52088936Y-67560619D01*
X52054635Y-67730000D01*
X18542000Y-67730000D01*
X18542000Y-66396892D01*
X31578514Y-66396892D01*
X31824817Y-66921358D01*
X32253076Y-67311645D01*
X32663110Y-67481476D01*
X32893000Y-67360155D01*
X32893000Y-66167000D01*
X31699181Y-66167000D01*
X31578514Y-66396892D01*
X18542000Y-66396892D01*
X18542000Y-65683108D01*
X31578514Y-65683108D01*
X31699181Y-65913000D01*
X32893000Y-65913000D01*
X32893000Y-64719845D01*
X33147000Y-64719845D01*
X33147000Y-65913000D01*
X33167000Y-65913000D01*
X33167000Y-66167000D01*
X33147000Y-66167000D01*
X33147000Y-67360155D01*
X33376890Y-67481476D01*
X33786924Y-67311645D01*
X34215183Y-66921358D01*
X34384691Y-66560417D01*
X34657025Y-66967993D01*
X35071313Y-67244812D01*
X35560000Y-67342018D01*
X36048687Y-67244812D01*
X36462975Y-66967993D01*
X36739794Y-66553705D01*
X36830000Y-66100209D01*
X36920206Y-66553705D01*
X37197025Y-66967993D01*
X37611313Y-67244812D01*
X38100000Y-67342018D01*
X38588687Y-67244812D01*
X39002975Y-66967993D01*
X39279794Y-66553705D01*
X39370000Y-66100209D01*
X39460206Y-66553705D01*
X39737025Y-66967993D01*
X40151313Y-67244812D01*
X40640000Y-67342018D01*
X41128687Y-67244812D01*
X41542975Y-66967993D01*
X41819794Y-66553705D01*
X41910000Y-66100209D01*
X42000206Y-66553705D01*
X42277025Y-66967993D01*
X42691313Y-67244812D01*
X43180000Y-67342018D01*
X43668687Y-67244812D01*
X44082975Y-66967993D01*
X44359794Y-66553705D01*
X44434635Y-66177454D01*
X44434635Y-66890000D01*
X44464409Y-67048237D01*
X44557927Y-67193567D01*
X44700619Y-67291064D01*
X44870000Y-67325365D01*
X46570000Y-67325365D01*
X46728237Y-67295591D01*
X46873567Y-67202073D01*
X46971064Y-67059381D01*
X47005365Y-66890000D01*
X47005365Y-66014982D01*
X69843000Y-66014982D01*
X69843000Y-66065018D01*
X69940206Y-66553705D01*
X70217025Y-66967993D01*
X70631313Y-67244812D01*
X70959035Y-67310000D01*
X70631313Y-67375188D01*
X70217025Y-67652007D01*
X69940206Y-68066295D01*
X69843000Y-68554982D01*
X69843000Y-68605018D01*
X69940206Y-69093705D01*
X70217025Y-69507993D01*
X70631313Y-69784812D01*
X71120000Y-69882018D01*
X71608687Y-69784812D01*
X72022975Y-69507993D01*
X72299794Y-69093705D01*
X72390000Y-68640209D01*
X72480206Y-69093705D01*
X72757025Y-69507993D01*
X73171313Y-69784812D01*
X73660000Y-69882018D01*
X74148687Y-69784812D01*
X74562975Y-69507993D01*
X74839794Y-69093705D01*
X74930000Y-68640209D01*
X75020206Y-69093705D01*
X75297025Y-69507993D01*
X75711313Y-69784812D01*
X76200000Y-69882018D01*
X76688687Y-69784812D01*
X77102975Y-69507993D01*
X77379794Y-69093705D01*
X77470000Y-68640209D01*
X77560206Y-69093705D01*
X77837025Y-69507993D01*
X78251313Y-69784812D01*
X78740000Y-69882018D01*
X79228687Y-69784812D01*
X79642975Y-69507993D01*
X79919794Y-69093705D01*
X80010000Y-68640209D01*
X80100206Y-69093705D01*
X80377025Y-69507993D01*
X80791313Y-69784812D01*
X81280000Y-69882018D01*
X81768687Y-69784812D01*
X82182975Y-69507993D01*
X82459794Y-69093705D01*
X82550000Y-68640209D01*
X82640206Y-69093705D01*
X82917025Y-69507993D01*
X83331313Y-69784812D01*
X83820000Y-69882018D01*
X84308687Y-69784812D01*
X84722975Y-69507993D01*
X84999794Y-69093705D01*
X85090000Y-68640209D01*
X85180206Y-69093705D01*
X85457025Y-69507993D01*
X85871313Y-69784812D01*
X86360000Y-69882018D01*
X86848687Y-69784812D01*
X87262975Y-69507993D01*
X87535309Y-69100417D01*
X87704817Y-69461358D01*
X88133076Y-69851645D01*
X88543110Y-70021476D01*
X88773000Y-69900155D01*
X88773000Y-68707000D01*
X89027000Y-68707000D01*
X89027000Y-69900155D01*
X89256890Y-70021476D01*
X89666924Y-69851645D01*
X90095183Y-69461358D01*
X90341486Y-68936892D01*
X90220819Y-68707000D01*
X89027000Y-68707000D01*
X88773000Y-68707000D01*
X88753000Y-68707000D01*
X88753000Y-68453000D01*
X88773000Y-68453000D01*
X88773000Y-66167000D01*
X89027000Y-66167000D01*
X89027000Y-68453000D01*
X90220819Y-68453000D01*
X90341486Y-68223108D01*
X90095183Y-67698642D01*
X89895792Y-67516930D01*
X90109699Y-67428327D01*
X90288327Y-67249698D01*
X90385000Y-67016309D01*
X90385000Y-66325750D01*
X90226250Y-66167000D01*
X89027000Y-66167000D01*
X88773000Y-66167000D01*
X88753000Y-66167000D01*
X88753000Y-65913000D01*
X88773000Y-65913000D01*
X88773000Y-64713750D01*
X89027000Y-64713750D01*
X89027000Y-65913000D01*
X90226250Y-65913000D01*
X90385000Y-65754250D01*
X90385000Y-65063691D01*
X90288327Y-64830302D01*
X90109699Y-64651673D01*
X89876310Y-64555000D01*
X89185750Y-64555000D01*
X89027000Y-64713750D01*
X88773000Y-64713750D01*
X88614250Y-64555000D01*
X87923690Y-64555000D01*
X87690301Y-64651673D01*
X87511673Y-64830302D01*
X87415000Y-65063691D01*
X87415000Y-65339528D01*
X87262975Y-65112007D01*
X86848687Y-64835188D01*
X86360000Y-64737982D01*
X85871313Y-64835188D01*
X85457025Y-65112007D01*
X85180206Y-65526295D01*
X85090000Y-65979791D01*
X84999794Y-65526295D01*
X84722975Y-65112007D01*
X84308687Y-64835188D01*
X83820000Y-64737982D01*
X83331313Y-64835188D01*
X82917025Y-65112007D01*
X82640206Y-65526295D01*
X82550000Y-65979791D01*
X82459794Y-65526295D01*
X82182975Y-65112007D01*
X81768687Y-64835188D01*
X81280000Y-64737982D01*
X80791313Y-64835188D01*
X80377025Y-65112007D01*
X80100206Y-65526295D01*
X80010000Y-65979791D01*
X79919794Y-65526295D01*
X79642975Y-65112007D01*
X79228687Y-64835188D01*
X78740000Y-64737982D01*
X78251313Y-64835188D01*
X78153209Y-64900739D01*
X78086680Y-64739725D01*
X77882350Y-64535039D01*
X77615244Y-64424126D01*
X77326025Y-64423874D01*
X77058725Y-64534320D01*
X76854039Y-64738650D01*
X76786746Y-64900709D01*
X76688687Y-64835188D01*
X76200000Y-64737982D01*
X75711313Y-64835188D01*
X75297025Y-65112007D01*
X75020206Y-65526295D01*
X74930000Y-65979791D01*
X74839794Y-65526295D01*
X74562975Y-65112007D01*
X74148687Y-64835188D01*
X73660000Y-64737982D01*
X73171313Y-64835188D01*
X72757025Y-65112007D01*
X72480206Y-65526295D01*
X72390000Y-65979791D01*
X72299794Y-65526295D01*
X72022975Y-65112007D01*
X71608687Y-64835188D01*
X71120000Y-64737982D01*
X70631313Y-64835188D01*
X70217025Y-65112007D01*
X69940206Y-65526295D01*
X69843000Y-66014982D01*
X47005365Y-66014982D01*
X47005365Y-65190000D01*
X46975591Y-65031763D01*
X46882073Y-64886433D01*
X46739381Y-64788936D01*
X46570000Y-64754635D01*
X44870000Y-64754635D01*
X44711763Y-64784409D01*
X44566433Y-64877927D01*
X44468936Y-65020619D01*
X44434635Y-65190000D01*
X44434635Y-65902546D01*
X44359794Y-65526295D01*
X44082975Y-65112007D01*
X43668687Y-64835188D01*
X43180000Y-64737982D01*
X42691313Y-64835188D01*
X42277025Y-65112007D01*
X42000206Y-65526295D01*
X41910000Y-65979791D01*
X41819794Y-65526295D01*
X41542975Y-65112007D01*
X41128687Y-64835188D01*
X40640000Y-64737982D01*
X40151313Y-64835188D01*
X39737025Y-65112007D01*
X39460206Y-65526295D01*
X39370000Y-65979791D01*
X39279794Y-65526295D01*
X39002975Y-65112007D01*
X38588687Y-64835188D01*
X38100000Y-64737982D01*
X37611313Y-64835188D01*
X37197025Y-65112007D01*
X36920206Y-65526295D01*
X36830000Y-65979791D01*
X36739794Y-65526295D01*
X36462975Y-65112007D01*
X36048687Y-64835188D01*
X35560000Y-64737982D01*
X35071313Y-64835188D01*
X34657025Y-65112007D01*
X34384691Y-65519583D01*
X34215183Y-65158642D01*
X33786924Y-64768355D01*
X33376890Y-64598524D01*
X33147000Y-64719845D01*
X32893000Y-64719845D01*
X32663110Y-64598524D01*
X32253076Y-64768355D01*
X31824817Y-65158642D01*
X31578514Y-65683108D01*
X18542000Y-65683108D01*
X18542000Y-51156890D01*
X23958524Y-51156890D01*
X24128355Y-51566924D01*
X24518642Y-51995183D01*
X24879583Y-52164691D01*
X24472007Y-52437025D01*
X24195188Y-52851313D01*
X24097982Y-53340000D01*
X24195188Y-53828687D01*
X24472007Y-54242975D01*
X24886295Y-54519794D01*
X25339791Y-54610000D01*
X24886295Y-54700206D01*
X24472007Y-54977025D01*
X24195188Y-55391313D01*
X24097982Y-55880000D01*
X24195188Y-56368687D01*
X24472007Y-56782975D01*
X24886295Y-57059794D01*
X25339791Y-57150000D01*
X24886295Y-57240206D01*
X24472007Y-57517025D01*
X24195188Y-57931313D01*
X24097982Y-58420000D01*
X24195188Y-58908687D01*
X24472007Y-59322975D01*
X24886295Y-59599794D01*
X25339791Y-59690000D01*
X24886295Y-59780206D01*
X24472007Y-60057025D01*
X24195188Y-60471313D01*
X24097982Y-60960000D01*
X24195188Y-61448687D01*
X24472007Y-61862975D01*
X24886295Y-62139794D01*
X25339791Y-62230000D01*
X24886295Y-62320206D01*
X24472007Y-62597025D01*
X24195188Y-63011313D01*
X24097982Y-63500000D01*
X24195188Y-63988687D01*
X24472007Y-64402975D01*
X24886295Y-64679794D01*
X25374982Y-64777000D01*
X25425018Y-64777000D01*
X25913705Y-64679794D01*
X26327993Y-64402975D01*
X26604812Y-63988687D01*
X26654635Y-63738210D01*
X26654635Y-64350000D01*
X26684409Y-64508237D01*
X26777927Y-64653567D01*
X26920619Y-64751064D01*
X27090000Y-64785365D01*
X28790000Y-64785365D01*
X28948237Y-64755591D01*
X29093567Y-64662073D01*
X29191064Y-64519381D01*
X29225365Y-64350000D01*
X29225365Y-62650000D01*
X29195591Y-62491763D01*
X29102073Y-62346433D01*
X28959381Y-62248936D01*
X28790000Y-62214635D01*
X28077454Y-62214635D01*
X28453705Y-62139794D01*
X28867993Y-61862975D01*
X29144812Y-61448687D01*
X29242018Y-60960000D01*
X29144812Y-60471313D01*
X28867993Y-60057025D01*
X28453705Y-59780206D01*
X28000209Y-59690000D01*
X28453705Y-59599794D01*
X28867993Y-59322975D01*
X29144812Y-58908687D01*
X29242018Y-58420000D01*
X29144812Y-57931313D01*
X28867993Y-57517025D01*
X28633892Y-57360603D01*
X44292752Y-57360603D01*
X44509543Y-57885275D01*
X44910614Y-58287047D01*
X45434907Y-58504752D01*
X46002603Y-58505248D01*
X46527275Y-58288457D01*
X46929047Y-57887386D01*
X47146752Y-57363093D01*
X47147206Y-56843485D01*
X47371000Y-56888000D01*
X48382235Y-56888000D01*
X48622756Y-56987874D01*
X48862785Y-56988083D01*
X48803126Y-57131756D01*
X48802874Y-57420975D01*
X48913320Y-57688275D01*
X49117650Y-57892961D01*
X49384756Y-58003874D01*
X49673975Y-58004126D01*
X49941275Y-57893680D01*
X50145961Y-57689350D01*
X50256874Y-57422244D01*
X50256927Y-57360603D01*
X50792752Y-57360603D01*
X51009543Y-57885275D01*
X51410614Y-58287047D01*
X51934907Y-58504752D01*
X52502603Y-58505248D01*
X53027275Y-58288457D01*
X53429047Y-57887386D01*
X53646752Y-57363093D01*
X53646754Y-57360603D01*
X58262752Y-57360603D01*
X58479543Y-57885275D01*
X58880614Y-58287047D01*
X59404907Y-58504752D01*
X59972603Y-58505248D01*
X60497275Y-58288457D01*
X60899047Y-57887386D01*
X61116752Y-57363093D01*
X61117248Y-56795397D01*
X60900457Y-56270725D01*
X60882763Y-56253000D01*
X64137505Y-56253000D01*
X64153320Y-56291275D01*
X64357650Y-56495961D01*
X64624756Y-56606874D01*
X64840417Y-56607062D01*
X64763248Y-56792907D01*
X64762752Y-57360603D01*
X64979543Y-57885275D01*
X65380614Y-58287047D01*
X65904907Y-58504752D01*
X66472603Y-58505248D01*
X66997275Y-58288457D01*
X67399047Y-57887386D01*
X67616752Y-57363093D01*
X67616754Y-57360603D01*
X70962752Y-57360603D01*
X71179543Y-57885275D01*
X71580614Y-58287047D01*
X72104907Y-58504752D01*
X72672603Y-58505248D01*
X73197275Y-58288457D01*
X73599047Y-57887386D01*
X73816752Y-57363093D01*
X73816997Y-57082170D01*
X73895756Y-57114874D01*
X74184975Y-57115126D01*
X74427299Y-57015000D01*
X76708000Y-57015000D01*
X76947943Y-56967272D01*
X77151356Y-56831356D01*
X77657417Y-56325295D01*
X77463248Y-56792907D01*
X77462752Y-57360603D01*
X77679543Y-57885275D01*
X78080614Y-58287047D01*
X78604907Y-58504752D01*
X79172603Y-58505248D01*
X79697275Y-58288457D01*
X80099047Y-57887386D01*
X80316752Y-57363093D01*
X80317248Y-56795397D01*
X80100457Y-56270725D01*
X79699386Y-55868953D01*
X79175093Y-55651248D01*
X78607397Y-55650752D01*
X78082725Y-55867543D01*
X77852497Y-56097370D01*
X77922273Y-55992942D01*
X77970000Y-55753000D01*
X77970000Y-55630765D01*
X78069874Y-55390244D01*
X78070126Y-55101025D01*
X77959680Y-54833725D01*
X77755350Y-54629039D01*
X77488244Y-54518126D01*
X77320325Y-54517980D01*
X77323961Y-54514350D01*
X77434874Y-54247244D01*
X77435126Y-53958025D01*
X77341128Y-53730532D01*
X77917073Y-53730532D01*
X78015736Y-53997387D01*
X78625461Y-54223908D01*
X79275460Y-54199856D01*
X79764264Y-53997387D01*
X79862927Y-53730532D01*
X78890000Y-52757605D01*
X77917073Y-53730532D01*
X77341128Y-53730532D01*
X77324680Y-53690725D01*
X77120350Y-53486039D01*
X76853244Y-53375126D01*
X76564025Y-53374874D01*
X76321701Y-53475000D01*
X73914000Y-53475000D01*
X73674058Y-53522727D01*
X73578311Y-53586703D01*
X73542534Y-53550926D01*
X73809387Y-53452264D01*
X74035908Y-52842539D01*
X74016331Y-52313461D01*
X77244092Y-52313461D01*
X77268144Y-52963460D01*
X77470613Y-53452264D01*
X77737468Y-53550927D01*
X78710395Y-52578000D01*
X79069605Y-52578000D01*
X80042532Y-53550927D01*
X80309387Y-53452264D01*
X80535908Y-52842539D01*
X80511856Y-52192540D01*
X80309387Y-51703736D01*
X80042532Y-51605073D01*
X79069605Y-52578000D01*
X78710395Y-52578000D01*
X77737468Y-51605073D01*
X77470613Y-51703736D01*
X77244092Y-52313461D01*
X74016331Y-52313461D01*
X74011856Y-52192540D01*
X73809387Y-51703736D01*
X73542532Y-51605073D01*
X72569605Y-52578000D01*
X72583748Y-52592143D01*
X72404143Y-52771748D01*
X72390000Y-52757605D01*
X71417073Y-53730532D01*
X71515736Y-53997387D01*
X72125461Y-54223908D01*
X72775460Y-54199856D01*
X73038306Y-54090982D01*
X72981422Y-54147866D01*
X72740725Y-54247320D01*
X72536039Y-54451650D01*
X72425126Y-54718756D01*
X72424874Y-55007975D01*
X72535320Y-55275275D01*
X72739650Y-55479961D01*
X73006756Y-55590874D01*
X73295975Y-55591126D01*
X73382610Y-55555329D01*
X73424320Y-55656275D01*
X73584366Y-55816600D01*
X73425039Y-55975650D01*
X73390039Y-56059939D01*
X73199386Y-55868953D01*
X72675093Y-55651248D01*
X72107397Y-55650752D01*
X71582725Y-55867543D01*
X71180953Y-56268614D01*
X70963248Y-56792907D01*
X70962752Y-57360603D01*
X67616754Y-57360603D01*
X67617248Y-56795397D01*
X67400457Y-56270725D01*
X66999386Y-55868953D01*
X66475093Y-55651248D01*
X65907397Y-55650752D01*
X65497053Y-55820304D01*
X65497126Y-55736025D01*
X65386680Y-55468725D01*
X65182350Y-55264039D01*
X64915244Y-55153126D01*
X64915179Y-55153126D01*
X64914802Y-55152874D01*
X64755943Y-55046728D01*
X64516000Y-54999000D01*
X60710765Y-54999000D01*
X60470244Y-54899126D01*
X60181025Y-54898874D01*
X59913725Y-55009320D01*
X59709039Y-55213650D01*
X59598126Y-55480756D01*
X59597978Y-55650919D01*
X59407397Y-55650752D01*
X58882725Y-55867543D01*
X58480953Y-56268614D01*
X58263248Y-56792907D01*
X58262752Y-57360603D01*
X53646754Y-57360603D01*
X53647248Y-56795397D01*
X53430457Y-56270725D01*
X53029386Y-55868953D01*
X52505093Y-55651248D01*
X51937397Y-55650752D01*
X51412725Y-55867543D01*
X51010953Y-56268614D01*
X50793248Y-56792907D01*
X50792752Y-57360603D01*
X50256927Y-57360603D01*
X50257126Y-57133025D01*
X50157000Y-56890701D01*
X50157000Y-56304392D01*
X50273756Y-56352874D01*
X50562975Y-56353126D01*
X50830275Y-56242680D01*
X51034961Y-56038350D01*
X51145874Y-55771244D01*
X51146126Y-55482025D01*
X51046000Y-55239701D01*
X51046000Y-53758020D01*
X51132794Y-53844814D01*
X51247074Y-53730534D01*
X51345736Y-53997387D01*
X51955461Y-54223908D01*
X52605460Y-54199856D01*
X53094264Y-53997387D01*
X53192927Y-53730532D01*
X58717073Y-53730532D01*
X58815736Y-53997387D01*
X59425461Y-54223908D01*
X60075460Y-54199856D01*
X60564264Y-53997387D01*
X60662927Y-53730532D01*
X59690000Y-52757605D01*
X58717073Y-53730532D01*
X53192927Y-53730532D01*
X52220000Y-52757605D01*
X52205858Y-52771748D01*
X52026253Y-52592143D01*
X52040395Y-52578000D01*
X52399605Y-52578000D01*
X53372532Y-53550927D01*
X53639387Y-53452264D01*
X53865908Y-52842539D01*
X53846331Y-52313461D01*
X58044092Y-52313461D01*
X58068144Y-52963460D01*
X58270613Y-53452264D01*
X58537468Y-53550927D01*
X59510395Y-52578000D01*
X59869605Y-52578000D01*
X60842532Y-53550927D01*
X61109387Y-53452264D01*
X61335908Y-52842539D01*
X61326748Y-52594975D01*
X62264874Y-52594975D01*
X62375320Y-52862275D01*
X62579650Y-53066961D01*
X62821799Y-53167511D01*
X64199644Y-54545356D01*
X64403058Y-54681273D01*
X64643000Y-54729000D01*
X65019235Y-54729000D01*
X65259756Y-54828874D01*
X65548975Y-54829126D01*
X65816275Y-54718680D01*
X66020961Y-54514350D01*
X66131874Y-54247244D01*
X66131901Y-54216269D01*
X66575460Y-54199856D01*
X67064264Y-53997387D01*
X67162927Y-53730532D01*
X66190000Y-52757605D01*
X66175858Y-52771748D01*
X65996253Y-52592143D01*
X66010395Y-52578000D01*
X66369605Y-52578000D01*
X67342532Y-53550927D01*
X67609387Y-53452264D01*
X67835908Y-52842539D01*
X67816331Y-52313461D01*
X70744092Y-52313461D01*
X70768144Y-52963460D01*
X70970613Y-53452264D01*
X71237468Y-53550927D01*
X72210395Y-52578000D01*
X71237468Y-51605073D01*
X70970613Y-51703736D01*
X70744092Y-52313461D01*
X67816331Y-52313461D01*
X67811856Y-52192540D01*
X67609387Y-51703736D01*
X67342532Y-51605073D01*
X66369605Y-52578000D01*
X66010395Y-52578000D01*
X65037468Y-51605073D01*
X64770613Y-51703736D01*
X64544092Y-52313461D01*
X64568144Y-52963460D01*
X64693282Y-53265570D01*
X63708134Y-52280422D01*
X63608680Y-52039725D01*
X63404350Y-51835039D01*
X63137244Y-51724126D01*
X62848025Y-51723874D01*
X62580725Y-51834320D01*
X62376039Y-52038650D01*
X62265126Y-52305756D01*
X62264874Y-52594975D01*
X61326748Y-52594975D01*
X61311856Y-52192540D01*
X61109387Y-51703736D01*
X60842532Y-51605073D01*
X59869605Y-52578000D01*
X59510395Y-52578000D01*
X58537468Y-51605073D01*
X58270613Y-51703736D01*
X58044092Y-52313461D01*
X53846331Y-52313461D01*
X53841856Y-52192540D01*
X53639387Y-51703736D01*
X53372532Y-51605073D01*
X52399605Y-52578000D01*
X52040395Y-52578000D01*
X51067468Y-51605073D01*
X50811391Y-51699751D01*
X50564244Y-51597126D01*
X50275025Y-51596874D01*
X50007725Y-51707320D01*
X49847511Y-51867256D01*
X49815350Y-51835039D01*
X49548244Y-51724126D01*
X49259025Y-51723874D01*
X48991725Y-51834320D01*
X48787039Y-52038650D01*
X48676126Y-52305756D01*
X48675874Y-52594975D01*
X48786320Y-52862275D01*
X48903000Y-52979158D01*
X48903000Y-55534117D01*
X48624025Y-55533874D01*
X48381701Y-55634000D01*
X47630712Y-55634000D01*
X47198134Y-55201422D01*
X47098680Y-54960725D01*
X46894350Y-54756039D01*
X46627244Y-54645126D01*
X46338025Y-54644874D01*
X46070725Y-54755320D01*
X45866039Y-54959650D01*
X45755126Y-55226756D01*
X45754874Y-55515975D01*
X45810697Y-55651078D01*
X45437397Y-55650752D01*
X44912725Y-55867543D01*
X44510953Y-56268614D01*
X44293248Y-56792907D01*
X44292752Y-57360603D01*
X28633892Y-57360603D01*
X28453705Y-57240206D01*
X28000209Y-57150000D01*
X28453705Y-57059794D01*
X28867993Y-56782975D01*
X29144812Y-56368687D01*
X29242018Y-55880000D01*
X29144812Y-55391313D01*
X28867993Y-54977025D01*
X28453705Y-54700206D01*
X28000209Y-54610000D01*
X28453705Y-54519794D01*
X28867993Y-54242975D01*
X29144812Y-53828687D01*
X29164336Y-53730532D01*
X44747073Y-53730532D01*
X44845736Y-53997387D01*
X45455461Y-54223908D01*
X46105460Y-54199856D01*
X46594264Y-53997387D01*
X46692927Y-53730532D01*
X45720000Y-52757605D01*
X44747073Y-53730532D01*
X29164336Y-53730532D01*
X29242018Y-53340000D01*
X29144812Y-52851313D01*
X28867993Y-52437025D01*
X28683067Y-52313461D01*
X44074092Y-52313461D01*
X44098144Y-52963460D01*
X44300613Y-53452264D01*
X44567468Y-53550927D01*
X45540395Y-52578000D01*
X45899605Y-52578000D01*
X46872532Y-53550927D01*
X47139387Y-53452264D01*
X47365908Y-52842539D01*
X47341856Y-52192540D01*
X47139387Y-51703736D01*
X46872532Y-51605073D01*
X45899605Y-52578000D01*
X45540395Y-52578000D01*
X44567468Y-51605073D01*
X44300613Y-51703736D01*
X44074092Y-52313461D01*
X28683067Y-52313461D01*
X28460417Y-52164691D01*
X28821358Y-51995183D01*
X29211645Y-51566924D01*
X29270234Y-51425468D01*
X44747073Y-51425468D01*
X45720000Y-52398395D01*
X46692927Y-51425468D01*
X51247073Y-51425468D01*
X52220000Y-52398395D01*
X53192927Y-51425468D01*
X58717073Y-51425468D01*
X59690000Y-52398395D01*
X60662927Y-51425468D01*
X65217073Y-51425468D01*
X66190000Y-52398395D01*
X67162927Y-51425468D01*
X71417073Y-51425468D01*
X72390000Y-52398395D01*
X73362927Y-51425468D01*
X77917073Y-51425468D01*
X78890000Y-52398395D01*
X79862927Y-51425468D01*
X79764264Y-51158613D01*
X79759627Y-51156890D01*
X84918524Y-51156890D01*
X85088355Y-51566924D01*
X85478642Y-51995183D01*
X86003108Y-52241486D01*
X86233000Y-52120819D01*
X86233000Y-50927000D01*
X86487000Y-50927000D01*
X86487000Y-52120819D01*
X86716892Y-52241486D01*
X87241358Y-51995183D01*
X87631645Y-51566924D01*
X87801476Y-51156890D01*
X87680155Y-50927000D01*
X86487000Y-50927000D01*
X86233000Y-50927000D01*
X85039845Y-50927000D01*
X84918524Y-51156890D01*
X79759627Y-51156890D01*
X79154539Y-50932092D01*
X78504540Y-50956144D01*
X78015736Y-51158613D01*
X77917073Y-51425468D01*
X73362927Y-51425468D01*
X73264264Y-51158613D01*
X72654539Y-50932092D01*
X72004540Y-50956144D01*
X71515736Y-51158613D01*
X71417073Y-51425468D01*
X67162927Y-51425468D01*
X67064264Y-51158613D01*
X66454539Y-50932092D01*
X65804540Y-50956144D01*
X65315736Y-51158613D01*
X65217073Y-51425468D01*
X60662927Y-51425468D01*
X60564264Y-51158613D01*
X59954539Y-50932092D01*
X59304540Y-50956144D01*
X58815736Y-51158613D01*
X58717073Y-51425468D01*
X53192927Y-51425468D01*
X53094264Y-51158613D01*
X52484539Y-50932092D01*
X51834540Y-50956144D01*
X51345736Y-51158613D01*
X51247073Y-51425468D01*
X46692927Y-51425468D01*
X46594264Y-51158613D01*
X45984539Y-50932092D01*
X45334540Y-50956144D01*
X44845736Y-51158613D01*
X44747073Y-51425468D01*
X29270234Y-51425468D01*
X29381476Y-51156890D01*
X29260155Y-50927000D01*
X28067000Y-50927000D01*
X28067000Y-50947000D01*
X27813000Y-50947000D01*
X27813000Y-50927000D01*
X25527000Y-50927000D01*
X25527000Y-50947000D01*
X25273000Y-50947000D01*
X25273000Y-50927000D01*
X24079845Y-50927000D01*
X23958524Y-51156890D01*
X18542000Y-51156890D01*
X18542000Y-50443110D01*
X23958524Y-50443110D01*
X24079845Y-50673000D01*
X25273000Y-50673000D01*
X25273000Y-49479181D01*
X25527000Y-49479181D01*
X25527000Y-50673000D01*
X27813000Y-50673000D01*
X27813000Y-49479181D01*
X28067000Y-49479181D01*
X28067000Y-50673000D01*
X29260155Y-50673000D01*
X29381476Y-50443110D01*
X84918524Y-50443110D01*
X85039845Y-50673000D01*
X86233000Y-50673000D01*
X86233000Y-50653000D01*
X86487000Y-50653000D01*
X86487000Y-50673000D01*
X87680155Y-50673000D01*
X87801476Y-50443110D01*
X87631645Y-50033076D01*
X87241358Y-49604817D01*
X86880417Y-49435309D01*
X87287993Y-49162975D01*
X87564812Y-48748687D01*
X87662018Y-48260000D01*
X87564812Y-47771313D01*
X87287993Y-47357025D01*
X86873705Y-47080206D01*
X86420209Y-46990000D01*
X86873705Y-46899794D01*
X87287993Y-46622975D01*
X87564812Y-46208687D01*
X87662018Y-45720000D01*
X87564812Y-45231313D01*
X87287993Y-44817025D01*
X86873705Y-44540206D01*
X86420209Y-44450000D01*
X86873705Y-44359794D01*
X87287993Y-44082975D01*
X87564812Y-43668687D01*
X87662018Y-43180000D01*
X87564812Y-42691313D01*
X87287993Y-42277025D01*
X86873705Y-42000206D01*
X86420209Y-41910000D01*
X86873705Y-41819794D01*
X87287993Y-41542975D01*
X87564812Y-41128687D01*
X87662018Y-40640000D01*
X87564812Y-40151313D01*
X87287993Y-39737025D01*
X86873705Y-39460206D01*
X86497454Y-39385365D01*
X87210000Y-39385365D01*
X87368237Y-39355591D01*
X87513567Y-39262073D01*
X87611064Y-39119381D01*
X87645365Y-38950000D01*
X87645365Y-37250000D01*
X87615591Y-37091763D01*
X87522073Y-36946433D01*
X87379381Y-36848936D01*
X87210000Y-36814635D01*
X85510000Y-36814635D01*
X85351763Y-36844409D01*
X85206433Y-36937927D01*
X85108936Y-37080619D01*
X85074635Y-37250000D01*
X85074635Y-38950000D01*
X85104409Y-39108237D01*
X85197927Y-39253567D01*
X85340619Y-39351064D01*
X85510000Y-39385365D01*
X86222546Y-39385365D01*
X85846295Y-39460206D01*
X85432007Y-39737025D01*
X85155188Y-40151313D01*
X85057982Y-40640000D01*
X85155188Y-41128687D01*
X85432007Y-41542975D01*
X85846295Y-41819794D01*
X86299791Y-41910000D01*
X85846295Y-42000206D01*
X85432007Y-42277025D01*
X85155188Y-42691313D01*
X85057982Y-43180000D01*
X85155188Y-43668687D01*
X85432007Y-44082975D01*
X85846295Y-44359794D01*
X86299791Y-44450000D01*
X85846295Y-44540206D01*
X85432007Y-44817025D01*
X85155188Y-45231313D01*
X85057982Y-45720000D01*
X85155188Y-46208687D01*
X85432007Y-46622975D01*
X85846295Y-46899794D01*
X86299791Y-46990000D01*
X85846295Y-47080206D01*
X85432007Y-47357025D01*
X85155188Y-47771313D01*
X85057982Y-48260000D01*
X85155188Y-48748687D01*
X85432007Y-49162975D01*
X85839583Y-49435309D01*
X85478642Y-49604817D01*
X85088355Y-50033076D01*
X84918524Y-50443110D01*
X29381476Y-50443110D01*
X29211645Y-50033076D01*
X28821358Y-49604817D01*
X28296892Y-49358514D01*
X28067000Y-49479181D01*
X27813000Y-49479181D01*
X27583108Y-49358514D01*
X27058642Y-49604817D01*
X26670000Y-50031271D01*
X26281358Y-49604817D01*
X25756892Y-49358514D01*
X25527000Y-49479181D01*
X25273000Y-49479181D01*
X25043108Y-49358514D01*
X24518642Y-49604817D01*
X24128355Y-50033076D01*
X23958524Y-50443110D01*
X18542000Y-50443110D01*
X18542000Y-28296890D01*
X18878524Y-28296890D01*
X19048355Y-28706924D01*
X19438642Y-29135183D01*
X19799583Y-29304691D01*
X19392007Y-29577025D01*
X19115188Y-29991313D01*
X19017982Y-30480000D01*
X19115188Y-30968687D01*
X19392007Y-31382975D01*
X19806295Y-31659794D01*
X20259791Y-31750000D01*
X19806295Y-31840206D01*
X19392007Y-32117025D01*
X19115188Y-32531313D01*
X19017982Y-33020000D01*
X19115188Y-33508687D01*
X19392007Y-33922975D01*
X19806295Y-34199794D01*
X20259791Y-34290000D01*
X19806295Y-34380206D01*
X19392007Y-34657025D01*
X19115188Y-35071313D01*
X19017982Y-35560000D01*
X19115188Y-36048687D01*
X19392007Y-36462975D01*
X19806295Y-36739794D01*
X20259791Y-36830000D01*
X19806295Y-36920206D01*
X19392007Y-37197025D01*
X19115188Y-37611313D01*
X19017982Y-38100000D01*
X19115188Y-38588687D01*
X19392007Y-39002975D01*
X19806295Y-39279794D01*
X20182546Y-39354635D01*
X19470000Y-39354635D01*
X19311763Y-39384409D01*
X19166433Y-39477927D01*
X19068936Y-39620619D01*
X19034635Y-39790000D01*
X19034635Y-41490000D01*
X19064409Y-41648237D01*
X19157927Y-41793567D01*
X19300619Y-41891064D01*
X19470000Y-41925365D01*
X21170000Y-41925365D01*
X21328237Y-41895591D01*
X21473567Y-41802073D01*
X21571064Y-41659381D01*
X21605365Y-41490000D01*
X21605365Y-39790000D01*
X21575591Y-39631763D01*
X21482073Y-39486433D01*
X21339381Y-39388936D01*
X21170000Y-39354635D01*
X20457454Y-39354635D01*
X20833705Y-39279794D01*
X21247993Y-39002975D01*
X21524812Y-38588687D01*
X21622018Y-38100000D01*
X21524812Y-37611313D01*
X21247993Y-37197025D01*
X20833705Y-36920206D01*
X20380209Y-36830000D01*
X20833705Y-36739794D01*
X21247993Y-36462975D01*
X21524812Y-36048687D01*
X21622018Y-35560000D01*
X21524812Y-35071313D01*
X21247993Y-34657025D01*
X20833705Y-34380206D01*
X20380209Y-34290000D01*
X20833705Y-34199794D01*
X21247993Y-33922975D01*
X21524812Y-33508687D01*
X21622018Y-33020000D01*
X21524812Y-32531313D01*
X21247993Y-32117025D01*
X20833705Y-31840206D01*
X20380209Y-31750000D01*
X20833705Y-31659794D01*
X21247993Y-31382975D01*
X21524812Y-30968687D01*
X21622018Y-30480000D01*
X21524812Y-29991313D01*
X21247993Y-29577025D01*
X20840417Y-29304691D01*
X21201358Y-29135183D01*
X21591645Y-28706924D01*
X21761476Y-28296890D01*
X23958524Y-28296890D01*
X24128355Y-28706924D01*
X24518642Y-29135183D01*
X24879583Y-29304691D01*
X24472007Y-29577025D01*
X24195188Y-29991313D01*
X24097982Y-30480000D01*
X24195188Y-30968687D01*
X24472007Y-31382975D01*
X24886295Y-31659794D01*
X25339791Y-31750000D01*
X24886295Y-31840206D01*
X24472007Y-32117025D01*
X24195188Y-32531313D01*
X24097982Y-33020000D01*
X24195188Y-33508687D01*
X24472007Y-33922975D01*
X24886295Y-34199794D01*
X25339791Y-34290000D01*
X24886295Y-34380206D01*
X24472007Y-34657025D01*
X24195188Y-35071313D01*
X24097982Y-35560000D01*
X24195188Y-36048687D01*
X24472007Y-36462975D01*
X24886295Y-36739794D01*
X25339791Y-36830000D01*
X24886295Y-36920206D01*
X24472007Y-37197025D01*
X24195188Y-37611313D01*
X24097982Y-38100000D01*
X24195188Y-38588687D01*
X24472007Y-39002975D01*
X24886295Y-39279794D01*
X25339791Y-39370000D01*
X24886295Y-39460206D01*
X24472007Y-39737025D01*
X24195188Y-40151313D01*
X24097982Y-40640000D01*
X24195188Y-41128687D01*
X24472007Y-41542975D01*
X24886295Y-41819794D01*
X25374982Y-41917000D01*
X25425018Y-41917000D01*
X25913705Y-41819794D01*
X26327993Y-41542975D01*
X26604812Y-41128687D01*
X26654635Y-40878210D01*
X26654635Y-41490000D01*
X26684409Y-41648237D01*
X26777927Y-41793567D01*
X26920619Y-41891064D01*
X27090000Y-41925365D01*
X28790000Y-41925365D01*
X28948237Y-41895591D01*
X29093567Y-41802073D01*
X29191064Y-41659381D01*
X29225365Y-41490000D01*
X29225365Y-39790000D01*
X29195591Y-39631763D01*
X29102073Y-39486433D01*
X28959381Y-39388936D01*
X28790000Y-39354635D01*
X28077454Y-39354635D01*
X28453705Y-39279794D01*
X28867993Y-39002975D01*
X29144812Y-38588687D01*
X29242018Y-38100000D01*
X29144812Y-37611313D01*
X28867993Y-37197025D01*
X28453705Y-36920206D01*
X28000209Y-36830000D01*
X28453705Y-36739794D01*
X28802193Y-36506941D01*
X37223000Y-36506941D01*
X37223000Y-37153059D01*
X37289758Y-37488672D01*
X37479867Y-37773192D01*
X37764387Y-37963301D01*
X38100000Y-38030059D01*
X38435613Y-37963301D01*
X38720133Y-37773192D01*
X38735000Y-37750942D01*
X38749867Y-37773192D01*
X39034387Y-37963301D01*
X39370000Y-38030059D01*
X39705613Y-37963301D01*
X39861996Y-37858810D01*
X39877927Y-37883567D01*
X40020619Y-37981064D01*
X40190000Y-38015365D01*
X41090000Y-38015365D01*
X41248237Y-37985591D01*
X41393567Y-37892073D01*
X41491064Y-37749381D01*
X41525365Y-37580000D01*
X41525365Y-36080000D01*
X41495591Y-35921763D01*
X41402073Y-35776433D01*
X41259381Y-35678936D01*
X41090000Y-35644635D01*
X40190000Y-35644635D01*
X40031763Y-35674409D01*
X39886433Y-35767927D01*
X39863170Y-35801974D01*
X39705613Y-35696699D01*
X39370000Y-35629941D01*
X39034387Y-35696699D01*
X38749867Y-35886808D01*
X38735000Y-35909058D01*
X38720133Y-35886808D01*
X38435613Y-35696699D01*
X38100000Y-35629941D01*
X37764387Y-35696699D01*
X37479867Y-35886808D01*
X37289758Y-36171328D01*
X37223000Y-36506941D01*
X28802193Y-36506941D01*
X28867993Y-36462975D01*
X29144812Y-36048687D01*
X29242018Y-35560000D01*
X29144812Y-35071313D01*
X28867993Y-34657025D01*
X28453705Y-34380206D01*
X28000209Y-34290000D01*
X28453705Y-34199794D01*
X28867993Y-33922975D01*
X29144812Y-33508687D01*
X29242018Y-33020000D01*
X29144812Y-32531313D01*
X28867993Y-32117025D01*
X28746357Y-32035750D01*
X44135040Y-32035750D01*
X44135040Y-32826270D01*
X44231713Y-33059659D01*
X44410342Y-33238287D01*
X44643731Y-33334960D01*
X44727692Y-33334960D01*
X44553351Y-33508997D01*
X44343280Y-34014904D01*
X44342802Y-34562693D01*
X44551990Y-35068966D01*
X44938997Y-35456649D01*
X45187881Y-35559995D01*
X44941034Y-35661990D01*
X44553351Y-36048997D01*
X44343280Y-36554904D01*
X44342802Y-37102693D01*
X44551990Y-37608966D01*
X44938997Y-37996649D01*
X45187881Y-38099995D01*
X44941034Y-38201990D01*
X44553351Y-38588997D01*
X44343280Y-39094904D01*
X44342802Y-39642693D01*
X44551990Y-40148966D01*
X44938997Y-40536649D01*
X45187881Y-40639995D01*
X44941034Y-40741990D01*
X44553351Y-41128997D01*
X44343280Y-41634904D01*
X44342802Y-42182693D01*
X44551990Y-42688966D01*
X44938997Y-43076649D01*
X45444904Y-43286720D01*
X45992693Y-43287198D01*
X46498966Y-43078010D01*
X46550745Y-43026321D01*
X49863284Y-43026321D01*
X49955815Y-43287986D01*
X50547407Y-43506149D01*
X51177454Y-43481312D01*
X51644185Y-43287986D01*
X51736716Y-43026321D01*
X50800000Y-42089605D01*
X49863284Y-43026321D01*
X46550745Y-43026321D01*
X46886649Y-42691003D01*
X47096720Y-42185096D01*
X47097180Y-41657407D01*
X49203851Y-41657407D01*
X49228688Y-42287454D01*
X49422014Y-42754185D01*
X49683679Y-42846716D01*
X50620395Y-41910000D01*
X49683679Y-40973284D01*
X49422014Y-41065815D01*
X49203851Y-41657407D01*
X47097180Y-41657407D01*
X47097198Y-41637307D01*
X46888010Y-41131034D01*
X46501003Y-40743351D01*
X46252119Y-40640005D01*
X46498966Y-40538010D01*
X46886649Y-40151003D01*
X47096720Y-39645096D01*
X47097198Y-39097307D01*
X46888010Y-38591034D01*
X46501003Y-38203351D01*
X46252119Y-38100005D01*
X46498966Y-37998010D01*
X46886649Y-37611003D01*
X47092287Y-37115771D01*
X49356750Y-37115771D01*
X49575971Y-37646326D01*
X49981539Y-38052603D01*
X50181564Y-38135660D01*
X50021034Y-38201990D01*
X49633351Y-38588997D01*
X49423280Y-39094904D01*
X49422802Y-39642693D01*
X49631990Y-40148966D01*
X49997241Y-40514855D01*
X49955815Y-40532014D01*
X49863284Y-40793679D01*
X50800000Y-41730395D01*
X51736716Y-40793679D01*
X51644185Y-40532014D01*
X51600946Y-40516069D01*
X51966649Y-40151003D01*
X52069995Y-39902119D01*
X52171990Y-40148966D01*
X52558997Y-40536649D01*
X52807881Y-40639995D01*
X52561034Y-40741990D01*
X52195145Y-41107241D01*
X52177986Y-41065815D01*
X51916321Y-40973284D01*
X50979605Y-41910000D01*
X51916321Y-42846716D01*
X52177986Y-42754185D01*
X52193931Y-42710946D01*
X52558997Y-43076649D01*
X53064904Y-43286720D01*
X53612693Y-43287198D01*
X54118966Y-43078010D01*
X54170745Y-43026321D01*
X57483284Y-43026321D01*
X57575815Y-43287986D01*
X58167407Y-43506149D01*
X58797454Y-43481312D01*
X59264185Y-43287986D01*
X59356716Y-43026321D01*
X58420000Y-42089605D01*
X57483284Y-43026321D01*
X54170745Y-43026321D01*
X54506649Y-42691003D01*
X54716720Y-42185096D01*
X54717180Y-41657407D01*
X56823851Y-41657407D01*
X56848688Y-42287454D01*
X57042014Y-42754185D01*
X57303679Y-42846716D01*
X58240395Y-41910000D01*
X58599605Y-41910000D01*
X59536321Y-42846716D01*
X59797986Y-42754185D01*
X60016149Y-42162593D01*
X59991312Y-41532546D01*
X59797986Y-41065815D01*
X59536321Y-40973284D01*
X58599605Y-41910000D01*
X58240395Y-41910000D01*
X57303679Y-40973284D01*
X57042014Y-41065815D01*
X56823851Y-41657407D01*
X54717180Y-41657407D01*
X54717198Y-41637307D01*
X54508010Y-41131034D01*
X54121003Y-40743351D01*
X53872119Y-40640005D01*
X54118966Y-40538010D01*
X54506649Y-40151003D01*
X54716720Y-39645096D01*
X54717198Y-39097307D01*
X54508010Y-38591034D01*
X54121003Y-38203351D01*
X53872119Y-38100005D01*
X54118966Y-37998010D01*
X54506649Y-37611003D01*
X54712287Y-37115771D01*
X56976750Y-37115771D01*
X57195971Y-37646326D01*
X57601539Y-38052603D01*
X57801564Y-38135660D01*
X57641034Y-38201990D01*
X57253351Y-38588997D01*
X57043280Y-39094904D01*
X57042802Y-39642693D01*
X57251990Y-40148966D01*
X57617241Y-40514855D01*
X57575815Y-40532014D01*
X57483284Y-40793679D01*
X58420000Y-41730395D01*
X59356716Y-40793679D01*
X59264185Y-40532014D01*
X59220946Y-40516069D01*
X59586649Y-40151003D01*
X59796720Y-39645096D01*
X59797198Y-39097307D01*
X59588010Y-38591034D01*
X59201003Y-38203351D01*
X59038374Y-38135821D01*
X59236326Y-38054029D01*
X59642603Y-37648461D01*
X59862749Y-37118290D01*
X59863250Y-36544229D01*
X59644029Y-36013674D01*
X59238461Y-35607397D01*
X59038436Y-35524340D01*
X59198966Y-35458010D01*
X59586649Y-35071003D01*
X59796720Y-34565096D01*
X59797198Y-34017307D01*
X59588010Y-33511034D01*
X59201003Y-33123351D01*
X58952119Y-33020005D01*
X59198966Y-32918010D01*
X59586649Y-32531003D01*
X59792296Y-32035750D01*
X64455040Y-32035750D01*
X64455040Y-32826270D01*
X64551713Y-33059659D01*
X64730342Y-33238287D01*
X64963731Y-33334960D01*
X65047692Y-33334960D01*
X64873351Y-33508997D01*
X64663280Y-34014904D01*
X64662802Y-34562693D01*
X64871990Y-35068966D01*
X65258997Y-35456649D01*
X65507881Y-35559995D01*
X65261034Y-35661990D01*
X64873351Y-36048997D01*
X64663280Y-36554904D01*
X64662802Y-37102693D01*
X64871990Y-37608966D01*
X65258997Y-37996649D01*
X65507881Y-38099995D01*
X65261034Y-38201990D01*
X64873351Y-38588997D01*
X64663280Y-39094904D01*
X64662802Y-39642693D01*
X64871990Y-40148966D01*
X65258997Y-40536649D01*
X65507881Y-40639995D01*
X65261034Y-40741990D01*
X64873351Y-41128997D01*
X64663280Y-41634904D01*
X64662802Y-42182693D01*
X64871990Y-42688966D01*
X65258997Y-43076649D01*
X65764904Y-43286720D01*
X66312693Y-43287198D01*
X66818966Y-43078010D01*
X66870745Y-43026321D01*
X70183284Y-43026321D01*
X70275815Y-43287986D01*
X70867407Y-43506149D01*
X71497454Y-43481312D01*
X71964185Y-43287986D01*
X72056716Y-43026321D01*
X71120000Y-42089605D01*
X70183284Y-43026321D01*
X66870745Y-43026321D01*
X67206649Y-42691003D01*
X67416720Y-42185096D01*
X67417180Y-41657407D01*
X69523851Y-41657407D01*
X69548688Y-42287454D01*
X69742014Y-42754185D01*
X70003679Y-42846716D01*
X70940395Y-41910000D01*
X70003679Y-40973284D01*
X69742014Y-41065815D01*
X69523851Y-41657407D01*
X67417180Y-41657407D01*
X67417198Y-41637307D01*
X67208010Y-41131034D01*
X66821003Y-40743351D01*
X66572119Y-40640005D01*
X66818966Y-40538010D01*
X67206649Y-40151003D01*
X67416720Y-39645096D01*
X67417198Y-39097307D01*
X67208010Y-38591034D01*
X66821003Y-38203351D01*
X66572119Y-38100005D01*
X66818966Y-37998010D01*
X67206649Y-37611003D01*
X67412287Y-37115771D01*
X69676750Y-37115771D01*
X69895971Y-37646326D01*
X70301539Y-38052603D01*
X70501564Y-38135660D01*
X70341034Y-38201990D01*
X69953351Y-38588997D01*
X69743280Y-39094904D01*
X69742802Y-39642693D01*
X69951990Y-40148966D01*
X70317241Y-40514855D01*
X70275815Y-40532014D01*
X70183284Y-40793679D01*
X71120000Y-41730395D01*
X72056716Y-40793679D01*
X71964185Y-40532014D01*
X71920946Y-40516069D01*
X72286649Y-40151003D01*
X72389995Y-39902119D01*
X72491990Y-40148966D01*
X72878997Y-40536649D01*
X73127881Y-40639995D01*
X72881034Y-40741990D01*
X72515145Y-41107241D01*
X72497986Y-41065815D01*
X72236321Y-40973284D01*
X71299605Y-41910000D01*
X72236321Y-42846716D01*
X72497986Y-42754185D01*
X72513931Y-42710946D01*
X72878997Y-43076649D01*
X73384904Y-43286720D01*
X73932693Y-43287198D01*
X74438966Y-43078010D01*
X74490745Y-43026321D01*
X77803284Y-43026321D01*
X77895815Y-43287986D01*
X78487407Y-43506149D01*
X79117454Y-43481312D01*
X79584185Y-43287986D01*
X79676716Y-43026321D01*
X78740000Y-42089605D01*
X77803284Y-43026321D01*
X74490745Y-43026321D01*
X74826649Y-42691003D01*
X75036720Y-42185096D01*
X75037180Y-41657407D01*
X77143851Y-41657407D01*
X77168688Y-42287454D01*
X77362014Y-42754185D01*
X77623679Y-42846716D01*
X78560395Y-41910000D01*
X78919605Y-41910000D01*
X79856321Y-42846716D01*
X80117986Y-42754185D01*
X80336149Y-42162593D01*
X80311312Y-41532546D01*
X80117986Y-41065815D01*
X79856321Y-40973284D01*
X78919605Y-41910000D01*
X78560395Y-41910000D01*
X77623679Y-40973284D01*
X77362014Y-41065815D01*
X77143851Y-41657407D01*
X75037180Y-41657407D01*
X75037198Y-41637307D01*
X74828010Y-41131034D01*
X74441003Y-40743351D01*
X74192119Y-40640005D01*
X74438966Y-40538010D01*
X74826649Y-40151003D01*
X75036720Y-39645096D01*
X75037198Y-39097307D01*
X74828010Y-38591034D01*
X74441003Y-38203351D01*
X74192119Y-38100005D01*
X74438966Y-37998010D01*
X74826649Y-37611003D01*
X75032287Y-37115771D01*
X77296750Y-37115771D01*
X77515971Y-37646326D01*
X77921539Y-38052603D01*
X78121564Y-38135660D01*
X77961034Y-38201990D01*
X77573351Y-38588997D01*
X77363280Y-39094904D01*
X77362802Y-39642693D01*
X77571990Y-40148966D01*
X77937241Y-40514855D01*
X77895815Y-40532014D01*
X77803284Y-40793679D01*
X78740000Y-41730395D01*
X79676716Y-40793679D01*
X79584185Y-40532014D01*
X79540946Y-40516069D01*
X79906649Y-40151003D01*
X80116720Y-39645096D01*
X80117198Y-39097307D01*
X79908010Y-38591034D01*
X79521003Y-38203351D01*
X79358374Y-38135821D01*
X79556326Y-38054029D01*
X79962603Y-37648461D01*
X80182749Y-37118290D01*
X80183250Y-36544229D01*
X79964029Y-36013674D01*
X79558461Y-35607397D01*
X79358436Y-35524340D01*
X79518966Y-35458010D01*
X79906649Y-35071003D01*
X80116720Y-34565096D01*
X80117198Y-34017307D01*
X79908010Y-33511034D01*
X79521003Y-33123351D01*
X79272119Y-33020005D01*
X79518966Y-32918010D01*
X79906649Y-32531003D01*
X80116720Y-32025096D01*
X80117198Y-31477307D01*
X79908010Y-30971034D01*
X79521003Y-30583351D01*
X79015096Y-30373280D01*
X78467307Y-30372802D01*
X77961034Y-30581990D01*
X77573351Y-30968997D01*
X77363280Y-31474904D01*
X77362802Y-32022693D01*
X77571990Y-32528966D01*
X77958997Y-32916649D01*
X78207881Y-33019995D01*
X77961034Y-33121990D01*
X77573351Y-33508997D01*
X77363280Y-34014904D01*
X77362802Y-34562693D01*
X77571990Y-35068966D01*
X77958997Y-35456649D01*
X78121626Y-35524179D01*
X77923674Y-35605971D01*
X77517397Y-36011539D01*
X77297251Y-36541710D01*
X77296750Y-37115771D01*
X75032287Y-37115771D01*
X75036720Y-37105096D01*
X75037198Y-36557307D01*
X74828010Y-36051034D01*
X74441003Y-35663351D01*
X74192119Y-35560005D01*
X74438966Y-35458010D01*
X74826649Y-35071003D01*
X75036720Y-34565096D01*
X75037198Y-34017307D01*
X74828010Y-33511034D01*
X74652243Y-33334960D01*
X74736269Y-33334960D01*
X74969658Y-33238287D01*
X75148287Y-33059659D01*
X75244960Y-32826270D01*
X75244960Y-32035750D01*
X75086210Y-31877000D01*
X73787000Y-31877000D01*
X73787000Y-31897000D01*
X73533000Y-31897000D01*
X73533000Y-31877000D01*
X73513000Y-31877000D01*
X73513000Y-31623000D01*
X73533000Y-31623000D01*
X73533000Y-30323790D01*
X73787000Y-30323790D01*
X73787000Y-31623000D01*
X75086210Y-31623000D01*
X75244960Y-31464250D01*
X75244960Y-30673730D01*
X75148287Y-30440341D01*
X74969658Y-30261713D01*
X74736269Y-30165040D01*
X73945750Y-30165040D01*
X73787000Y-30323790D01*
X73533000Y-30323790D01*
X73374250Y-30165040D01*
X72583731Y-30165040D01*
X72350342Y-30261713D01*
X72171713Y-30440341D01*
X72075040Y-30673730D01*
X72075040Y-30757692D01*
X71901003Y-30583351D01*
X71395096Y-30373280D01*
X70847307Y-30372802D01*
X70341034Y-30581990D01*
X69953351Y-30968997D01*
X69743280Y-31474904D01*
X69742802Y-32022693D01*
X69951990Y-32528966D01*
X70338997Y-32916649D01*
X70587881Y-33019995D01*
X70341034Y-33121990D01*
X69953351Y-33508997D01*
X69743280Y-34014904D01*
X69742802Y-34562693D01*
X69951990Y-35068966D01*
X70338997Y-35456649D01*
X70501626Y-35524179D01*
X70303674Y-35605971D01*
X69897397Y-36011539D01*
X69677251Y-36541710D01*
X69676750Y-37115771D01*
X67412287Y-37115771D01*
X67416720Y-37105096D01*
X67417198Y-36557307D01*
X67208010Y-36051034D01*
X66821003Y-35663351D01*
X66572119Y-35560005D01*
X66818966Y-35458010D01*
X67206649Y-35071003D01*
X67416720Y-34565096D01*
X67417198Y-34017307D01*
X67208010Y-33511034D01*
X67032243Y-33334960D01*
X67116269Y-33334960D01*
X67349658Y-33238287D01*
X67528287Y-33059659D01*
X67624960Y-32826270D01*
X67624960Y-32035750D01*
X67466210Y-31877000D01*
X66167000Y-31877000D01*
X66167000Y-31897000D01*
X65913000Y-31897000D01*
X65913000Y-31877000D01*
X64613790Y-31877000D01*
X64455040Y-32035750D01*
X59792296Y-32035750D01*
X59796720Y-32025096D01*
X59797198Y-31477307D01*
X59588010Y-30971034D01*
X59291225Y-30673730D01*
X64455040Y-30673730D01*
X64455040Y-31464250D01*
X64613790Y-31623000D01*
X65913000Y-31623000D01*
X65913000Y-30323790D01*
X66167000Y-30323790D01*
X66167000Y-31623000D01*
X67466210Y-31623000D01*
X67624960Y-31464250D01*
X67624960Y-30673730D01*
X67528287Y-30440341D01*
X67349658Y-30261713D01*
X67116269Y-30165040D01*
X66325750Y-30165040D01*
X66167000Y-30323790D01*
X65913000Y-30323790D01*
X65754250Y-30165040D01*
X64963731Y-30165040D01*
X64730342Y-30261713D01*
X64551713Y-30440341D01*
X64455040Y-30673730D01*
X59291225Y-30673730D01*
X59201003Y-30583351D01*
X58695096Y-30373280D01*
X58147307Y-30372802D01*
X57641034Y-30581990D01*
X57253351Y-30968997D01*
X57043280Y-31474904D01*
X57042802Y-32022693D01*
X57251990Y-32528966D01*
X57638997Y-32916649D01*
X57887881Y-33019995D01*
X57641034Y-33121990D01*
X57253351Y-33508997D01*
X57043280Y-34014904D01*
X57042802Y-34562693D01*
X57251990Y-35068966D01*
X57638997Y-35456649D01*
X57801626Y-35524179D01*
X57603674Y-35605971D01*
X57197397Y-36011539D01*
X56977251Y-36541710D01*
X56976750Y-37115771D01*
X54712287Y-37115771D01*
X54716720Y-37105096D01*
X54717198Y-36557307D01*
X54508010Y-36051034D01*
X54121003Y-35663351D01*
X53872119Y-35560005D01*
X54118966Y-35458010D01*
X54506649Y-35071003D01*
X54716720Y-34565096D01*
X54717198Y-34017307D01*
X54508010Y-33511034D01*
X54332243Y-33334960D01*
X54416269Y-33334960D01*
X54649658Y-33238287D01*
X54828287Y-33059659D01*
X54924960Y-32826270D01*
X54924960Y-32035750D01*
X54766210Y-31877000D01*
X53467000Y-31877000D01*
X53467000Y-31897000D01*
X53213000Y-31897000D01*
X53213000Y-31877000D01*
X53193000Y-31877000D01*
X53193000Y-31623000D01*
X53213000Y-31623000D01*
X53213000Y-30323790D01*
X53467000Y-30323790D01*
X53467000Y-31623000D01*
X54766210Y-31623000D01*
X54924960Y-31464250D01*
X54924960Y-30673730D01*
X54828287Y-30440341D01*
X54649658Y-30261713D01*
X54416269Y-30165040D01*
X53625750Y-30165040D01*
X53467000Y-30323790D01*
X53213000Y-30323790D01*
X53054250Y-30165040D01*
X52263731Y-30165040D01*
X52030342Y-30261713D01*
X51851713Y-30440341D01*
X51755040Y-30673730D01*
X51755040Y-30757692D01*
X51581003Y-30583351D01*
X51075096Y-30373280D01*
X50527307Y-30372802D01*
X50021034Y-30581990D01*
X49633351Y-30968997D01*
X49423280Y-31474904D01*
X49422802Y-32022693D01*
X49631990Y-32528966D01*
X50018997Y-32916649D01*
X50267881Y-33019995D01*
X50021034Y-33121990D01*
X49633351Y-33508997D01*
X49423280Y-34014904D01*
X49422802Y-34562693D01*
X49631990Y-35068966D01*
X50018997Y-35456649D01*
X50181626Y-35524179D01*
X49983674Y-35605971D01*
X49577397Y-36011539D01*
X49357251Y-36541710D01*
X49356750Y-37115771D01*
X47092287Y-37115771D01*
X47096720Y-37105096D01*
X47097198Y-36557307D01*
X46888010Y-36051034D01*
X46501003Y-35663351D01*
X46252119Y-35560005D01*
X46498966Y-35458010D01*
X46886649Y-35071003D01*
X47096720Y-34565096D01*
X47097198Y-34017307D01*
X46888010Y-33511034D01*
X46712243Y-33334960D01*
X46796269Y-33334960D01*
X47029658Y-33238287D01*
X47208287Y-33059659D01*
X47304960Y-32826270D01*
X47304960Y-32035750D01*
X47146210Y-31877000D01*
X45847000Y-31877000D01*
X45847000Y-31897000D01*
X45593000Y-31897000D01*
X45593000Y-31877000D01*
X44293790Y-31877000D01*
X44135040Y-32035750D01*
X28746357Y-32035750D01*
X28453705Y-31840206D01*
X28000209Y-31750000D01*
X28453705Y-31659794D01*
X28867993Y-31382975D01*
X29144812Y-30968687D01*
X29203482Y-30673730D01*
X44135040Y-30673730D01*
X44135040Y-31464250D01*
X44293790Y-31623000D01*
X45593000Y-31623000D01*
X45593000Y-30323790D01*
X45847000Y-30323790D01*
X45847000Y-31623000D01*
X47146210Y-31623000D01*
X47304960Y-31464250D01*
X47304960Y-30673730D01*
X47208287Y-30440341D01*
X47029658Y-30261713D01*
X46796269Y-30165040D01*
X46005750Y-30165040D01*
X45847000Y-30323790D01*
X45593000Y-30323790D01*
X45434250Y-30165040D01*
X44643731Y-30165040D01*
X44410342Y-30261713D01*
X44231713Y-30440341D01*
X44135040Y-30673730D01*
X29203482Y-30673730D01*
X29242018Y-30480000D01*
X29144812Y-29991313D01*
X28867993Y-29577025D01*
X28460417Y-29304691D01*
X28821358Y-29135183D01*
X29211645Y-28706924D01*
X29381476Y-28296890D01*
X29343933Y-28225750D01*
X31585000Y-28225750D01*
X31585000Y-28866310D01*
X31681673Y-29099699D01*
X31860302Y-29278327D01*
X32093691Y-29375000D01*
X32734250Y-29375000D01*
X32893000Y-29216250D01*
X32893000Y-28067000D01*
X33147000Y-28067000D01*
X33147000Y-29216250D01*
X33305750Y-29375000D01*
X33946309Y-29375000D01*
X34179698Y-29278327D01*
X34358327Y-29099699D01*
X34455000Y-28866310D01*
X34455000Y-28225750D01*
X34412245Y-28182995D01*
X38292788Y-28182995D01*
X38479194Y-28634131D01*
X38824053Y-28979593D01*
X39274864Y-29166786D01*
X39762995Y-29167212D01*
X40214131Y-28980806D01*
X40559593Y-28635947D01*
X40746786Y-28185136D01*
X40747212Y-27697005D01*
X40560806Y-27245869D01*
X40215947Y-26900407D01*
X39765136Y-26713214D01*
X39277005Y-26712788D01*
X38825869Y-26899194D01*
X38480407Y-27244053D01*
X38293214Y-27694864D01*
X38292788Y-28182995D01*
X34412245Y-28182995D01*
X34296250Y-28067000D01*
X33147000Y-28067000D01*
X32893000Y-28067000D01*
X31743750Y-28067000D01*
X31585000Y-28225750D01*
X29343933Y-28225750D01*
X29260155Y-28067000D01*
X28067000Y-28067000D01*
X28067000Y-28087000D01*
X27813000Y-28087000D01*
X27813000Y-28067000D01*
X25527000Y-28067000D01*
X25527000Y-28087000D01*
X25273000Y-28087000D01*
X25273000Y-28067000D01*
X24079845Y-28067000D01*
X23958524Y-28296890D01*
X21761476Y-28296890D01*
X21640155Y-28067000D01*
X20447000Y-28067000D01*
X20447000Y-28087000D01*
X20193000Y-28087000D01*
X20193000Y-28067000D01*
X18999845Y-28067000D01*
X18878524Y-28296890D01*
X18542000Y-28296890D01*
X18542000Y-27583110D01*
X18878524Y-27583110D01*
X18999845Y-27813000D01*
X20193000Y-27813000D01*
X20193000Y-26619181D01*
X20447000Y-26619181D01*
X20447000Y-27813000D01*
X21640155Y-27813000D01*
X21761476Y-27583110D01*
X23958524Y-27583110D01*
X24079845Y-27813000D01*
X25273000Y-27813000D01*
X25273000Y-26619181D01*
X25527000Y-26619181D01*
X25527000Y-27813000D01*
X27813000Y-27813000D01*
X27813000Y-26619181D01*
X28067000Y-26619181D01*
X28067000Y-27813000D01*
X29260155Y-27813000D01*
X29381476Y-27583110D01*
X29211645Y-27173076D01*
X29066392Y-27013690D01*
X31585000Y-27013690D01*
X31585000Y-27654250D01*
X31743750Y-27813000D01*
X32893000Y-27813000D01*
X32893000Y-26663750D01*
X33147000Y-26663750D01*
X33147000Y-27813000D01*
X34296250Y-27813000D01*
X34455000Y-27654250D01*
X34455000Y-27013690D01*
X34358327Y-26780301D01*
X34179698Y-26601673D01*
X33946309Y-26505000D01*
X33305750Y-26505000D01*
X33147000Y-26663750D01*
X32893000Y-26663750D01*
X32734250Y-26505000D01*
X32093691Y-26505000D01*
X31860302Y-26601673D01*
X31681673Y-26780301D01*
X31585000Y-27013690D01*
X29066392Y-27013690D01*
X28821358Y-26744817D01*
X28296892Y-26498514D01*
X28067000Y-26619181D01*
X27813000Y-26619181D01*
X27583108Y-26498514D01*
X27058642Y-26744817D01*
X26670000Y-27171271D01*
X26281358Y-26744817D01*
X25756892Y-26498514D01*
X25527000Y-26619181D01*
X25273000Y-26619181D01*
X25043108Y-26498514D01*
X24518642Y-26744817D01*
X24128355Y-27173076D01*
X23958524Y-27583110D01*
X21761476Y-27583110D01*
X21591645Y-27173076D01*
X21201358Y-26744817D01*
X20676892Y-26498514D01*
X20447000Y-26619181D01*
X20193000Y-26619181D01*
X19963108Y-26498514D01*
X19438642Y-26744817D01*
X19048355Y-27173076D01*
X18878524Y-27583110D01*
X18542000Y-27583110D01*
X18542000Y-20294982D01*
X42919000Y-20294982D01*
X42919000Y-20345018D01*
X43016206Y-20833705D01*
X43293025Y-21247993D01*
X43707313Y-21524812D01*
X44035035Y-21590000D01*
X43707313Y-21655188D01*
X43293025Y-21932007D01*
X43016206Y-22346295D01*
X42919000Y-22834982D01*
X42919000Y-22885018D01*
X43016206Y-23373705D01*
X43293025Y-23787993D01*
X43707313Y-24064812D01*
X44196000Y-24162018D01*
X44684687Y-24064812D01*
X45098975Y-23787993D01*
X45375794Y-23373705D01*
X45466000Y-22920209D01*
X45556206Y-23373705D01*
X45833025Y-23787993D01*
X46247313Y-24064812D01*
X46736000Y-24162018D01*
X47224687Y-24064812D01*
X47638975Y-23787993D01*
X47915794Y-23373705D01*
X48006000Y-22920209D01*
X48096206Y-23373705D01*
X48373025Y-23787993D01*
X48787313Y-24064812D01*
X49276000Y-24162018D01*
X49764687Y-24064812D01*
X50178975Y-23787993D01*
X50455794Y-23373705D01*
X50546000Y-22920209D01*
X50636206Y-23373705D01*
X50913025Y-23787993D01*
X51327313Y-24064812D01*
X51816000Y-24162018D01*
X52304687Y-24064812D01*
X52718975Y-23787993D01*
X52995794Y-23373705D01*
X53086000Y-22920209D01*
X53176206Y-23373705D01*
X53453025Y-23787993D01*
X53867313Y-24064812D01*
X54356000Y-24162018D01*
X54844687Y-24064812D01*
X55258975Y-23787993D01*
X55535794Y-23373705D01*
X55626000Y-22920209D01*
X55716206Y-23373705D01*
X55993025Y-23787993D01*
X56407313Y-24064812D01*
X56896000Y-24162018D01*
X57384687Y-24064812D01*
X57798975Y-23787993D01*
X58075794Y-23373705D01*
X58166000Y-22920209D01*
X58256206Y-23373705D01*
X58533025Y-23787993D01*
X58947313Y-24064812D01*
X59436000Y-24162018D01*
X59924687Y-24064812D01*
X60338975Y-23787993D01*
X60615794Y-23373705D01*
X60706000Y-22920209D01*
X60796206Y-23373705D01*
X61073025Y-23787993D01*
X61487313Y-24064812D01*
X61976000Y-24162018D01*
X62464687Y-24064812D01*
X62878975Y-23787993D01*
X63155794Y-23373705D01*
X63253000Y-22885018D01*
X63253000Y-22834982D01*
X63155794Y-22346295D01*
X62878975Y-21932007D01*
X62464687Y-21655188D01*
X62214210Y-21605365D01*
X62826000Y-21605365D01*
X62984237Y-21575591D01*
X63129567Y-21482073D01*
X63227064Y-21339381D01*
X63261365Y-21170000D01*
X63261365Y-20294982D01*
X64763000Y-20294982D01*
X64763000Y-20345018D01*
X64860206Y-20833705D01*
X65137025Y-21247993D01*
X65551313Y-21524812D01*
X65879035Y-21590000D01*
X65551313Y-21655188D01*
X65137025Y-21932007D01*
X64860206Y-22346295D01*
X64763000Y-22834982D01*
X64763000Y-22885018D01*
X64860206Y-23373705D01*
X65137025Y-23787993D01*
X65551313Y-24064812D01*
X66040000Y-24162018D01*
X66528687Y-24064812D01*
X66626791Y-23999261D01*
X66693320Y-24160275D01*
X66897650Y-24364961D01*
X67164756Y-24475874D01*
X67453975Y-24476126D01*
X67721275Y-24365680D01*
X67925961Y-24161350D01*
X67993254Y-23999291D01*
X68091313Y-24064812D01*
X68580000Y-24162018D01*
X69068687Y-24064812D01*
X69482975Y-23787993D01*
X69759794Y-23373705D01*
X69850000Y-22920209D01*
X69940206Y-23373705D01*
X70217025Y-23787993D01*
X70631313Y-24064812D01*
X71120000Y-24162018D01*
X71608687Y-24064812D01*
X72022975Y-23787993D01*
X72299794Y-23373705D01*
X72390000Y-22920209D01*
X72480206Y-23373705D01*
X72757025Y-23787993D01*
X73171313Y-24064812D01*
X73660000Y-24162018D01*
X74148687Y-24064812D01*
X74562975Y-23787993D01*
X74839794Y-23373705D01*
X74930000Y-22920209D01*
X75020206Y-23373705D01*
X75297025Y-23787993D01*
X75711313Y-24064812D01*
X76200000Y-24162018D01*
X76688687Y-24064812D01*
X76786791Y-23999261D01*
X76853320Y-24160275D01*
X77057650Y-24364961D01*
X77324756Y-24475874D01*
X77613975Y-24476126D01*
X77881275Y-24365680D01*
X78085961Y-24161350D01*
X78153254Y-23999291D01*
X78251313Y-24064812D01*
X78740000Y-24162018D01*
X79228687Y-24064812D01*
X79326791Y-23999261D01*
X79393320Y-24160275D01*
X79597650Y-24364961D01*
X79864756Y-24475874D01*
X80153975Y-24476126D01*
X80421275Y-24365680D01*
X80625961Y-24161350D01*
X80693254Y-23999291D01*
X80791313Y-24064812D01*
X81280000Y-24162018D01*
X81768687Y-24064812D01*
X82182975Y-23787993D01*
X82459794Y-23373705D01*
X82550000Y-22920209D01*
X82640206Y-23373705D01*
X82917025Y-23787993D01*
X83331313Y-24064812D01*
X83820000Y-24162018D01*
X84308687Y-24064812D01*
X84722975Y-23787993D01*
X84999794Y-23373705D01*
X85097000Y-22885018D01*
X85097000Y-22834982D01*
X84999794Y-22346295D01*
X84722975Y-21932007D01*
X84308687Y-21655188D01*
X84058210Y-21605365D01*
X84670000Y-21605365D01*
X84828237Y-21575591D01*
X84973567Y-21482073D01*
X85071064Y-21339381D01*
X85105365Y-21170000D01*
X85105365Y-19470000D01*
X85075591Y-19311763D01*
X84982073Y-19166433D01*
X84839381Y-19068936D01*
X84670000Y-19034635D01*
X82970000Y-19034635D01*
X82811763Y-19064409D01*
X82666433Y-19157927D01*
X82568936Y-19300619D01*
X82534635Y-19470000D01*
X82534635Y-20182546D01*
X82459794Y-19806295D01*
X82182975Y-19392007D01*
X81768687Y-19115188D01*
X81280000Y-19017982D01*
X80791313Y-19115188D01*
X80377025Y-19392007D01*
X80100206Y-19806295D01*
X80010000Y-20259791D01*
X79919794Y-19806295D01*
X79642975Y-19392007D01*
X79228687Y-19115188D01*
X78740000Y-19017982D01*
X78251313Y-19115188D01*
X77837025Y-19392007D01*
X77560206Y-19806295D01*
X77470000Y-20259791D01*
X77379794Y-19806295D01*
X77102975Y-19392007D01*
X76688687Y-19115188D01*
X76200000Y-19017982D01*
X75711313Y-19115188D01*
X75297025Y-19392007D01*
X75020206Y-19806295D01*
X74930000Y-20259791D01*
X74839794Y-19806295D01*
X74562975Y-19392007D01*
X74148687Y-19115188D01*
X73660000Y-19017982D01*
X73171313Y-19115188D01*
X72757025Y-19392007D01*
X72480206Y-19806295D01*
X72390000Y-20259791D01*
X72299794Y-19806295D01*
X72022975Y-19392007D01*
X71608687Y-19115188D01*
X71120000Y-19017982D01*
X70631313Y-19115188D01*
X70217025Y-19392007D01*
X69940206Y-19806295D01*
X69850000Y-20259791D01*
X69759794Y-19806295D01*
X69482975Y-19392007D01*
X69068687Y-19115188D01*
X68580000Y-19017982D01*
X68091313Y-19115188D01*
X67677025Y-19392007D01*
X67400206Y-19806295D01*
X67310000Y-20259791D01*
X67219794Y-19806295D01*
X66942975Y-19392007D01*
X66528687Y-19115188D01*
X66040000Y-19017982D01*
X65551313Y-19115188D01*
X65137025Y-19392007D01*
X64860206Y-19806295D01*
X64763000Y-20294982D01*
X63261365Y-20294982D01*
X63261365Y-19470000D01*
X63231591Y-19311763D01*
X63138073Y-19166433D01*
X62995381Y-19068936D01*
X62826000Y-19034635D01*
X61126000Y-19034635D01*
X60967763Y-19064409D01*
X60822433Y-19157927D01*
X60724936Y-19300619D01*
X60690635Y-19470000D01*
X60690635Y-20182546D01*
X60615794Y-19806295D01*
X60338975Y-19392007D01*
X59924687Y-19115188D01*
X59436000Y-19017982D01*
X58947313Y-19115188D01*
X58533025Y-19392007D01*
X58256206Y-19806295D01*
X58166000Y-20259791D01*
X58075794Y-19806295D01*
X57798975Y-19392007D01*
X57384687Y-19115188D01*
X56896000Y-19017982D01*
X56407313Y-19115188D01*
X55993025Y-19392007D01*
X55716206Y-19806295D01*
X55626000Y-20259791D01*
X55535794Y-19806295D01*
X55258975Y-19392007D01*
X54844687Y-19115188D01*
X54356000Y-19017982D01*
X53867313Y-19115188D01*
X53453025Y-19392007D01*
X53176206Y-19806295D01*
X53086000Y-20259791D01*
X52995794Y-19806295D01*
X52718975Y-19392007D01*
X52304687Y-19115188D01*
X51816000Y-19017982D01*
X51327313Y-19115188D01*
X50913025Y-19392007D01*
X50636206Y-19806295D01*
X50546000Y-20259791D01*
X50455794Y-19806295D01*
X50178975Y-19392007D01*
X49764687Y-19115188D01*
X49276000Y-19017982D01*
X48787313Y-19115188D01*
X48373025Y-19392007D01*
X48096206Y-19806295D01*
X48006000Y-20259791D01*
X47915794Y-19806295D01*
X47638975Y-19392007D01*
X47224687Y-19115188D01*
X46736000Y-19017982D01*
X46247313Y-19115188D01*
X45833025Y-19392007D01*
X45556206Y-19806295D01*
X45466000Y-20259791D01*
X45375794Y-19806295D01*
X45098975Y-19392007D01*
X44684687Y-19115188D01*
X44196000Y-19017982D01*
X43707313Y-19115188D01*
X43293025Y-19392007D01*
X43016206Y-19806295D01*
X42919000Y-20294982D01*
X18542000Y-20294982D01*
X18542000Y-18542000D01*
X90678000Y-18542000D01*
X90678000Y-70358000D01*
M02*
