G04 #@! TF.FileFunction,Soldermask,Top*
%FSLAX46Y46*%
G04 Gerber Fmt 4.6, Leading zero omitted, Abs format (unit mm)*
G04 Created by KiCad (PCBNEW 4.0.7) date Fri Jun  7 08:16:43 2019*
%MOMM*%
%LPD*%
G01*
G04 APERTURE LIST*
%ADD10C,0.100000*%
%ADD11C,0.150000*%
%ADD12R,2.299920X2.299920*%
%ADD13C,2.299920*%
%ADD14C,2.432000*%
%ADD15R,2.100000X2.100000*%
%ADD16O,2.100000X2.100000*%
%ADD17R,2.000000X2.000000*%
%ADD18C,2.000000*%
%ADD19O,1.300000X1.900000*%
%ADD20R,1.300000X1.900000*%
%ADD21C,2.400000*%
G04 APERTURE END LIST*
D10*
D11*
X17780000Y-71120000D02*
X17780000Y-17780000D01*
X91440000Y-71120000D02*
X17780000Y-71120000D01*
X91440000Y-17780000D02*
X91440000Y-71120000D01*
X17780000Y-17780000D02*
X91440000Y-17780000D01*
D12*
X45720000Y-31750000D03*
D13*
X45720000Y-34290000D03*
X45720000Y-36830000D03*
X45720000Y-39370000D03*
X45720000Y-41910000D03*
X50800000Y-41910000D03*
X50800000Y-39370000D03*
D14*
X50800000Y-36830000D03*
D13*
X50800000Y-34290000D03*
X50800000Y-31750000D03*
D12*
X66040000Y-31750000D03*
D13*
X66040000Y-34290000D03*
X66040000Y-36830000D03*
X66040000Y-39370000D03*
X66040000Y-41910000D03*
X71120000Y-41910000D03*
X71120000Y-39370000D03*
D14*
X71120000Y-36830000D03*
D13*
X71120000Y-34290000D03*
X71120000Y-31750000D03*
D12*
X73660000Y-31750000D03*
D13*
X73660000Y-34290000D03*
X73660000Y-36830000D03*
X73660000Y-39370000D03*
X73660000Y-41910000D03*
X78740000Y-41910000D03*
X78740000Y-39370000D03*
D14*
X78740000Y-36830000D03*
D13*
X78740000Y-34290000D03*
X78740000Y-31750000D03*
D12*
X53340000Y-31750000D03*
D13*
X53340000Y-34290000D03*
X53340000Y-36830000D03*
X53340000Y-39370000D03*
X53340000Y-41910000D03*
X58420000Y-41910000D03*
X58420000Y-39370000D03*
D14*
X58420000Y-36830000D03*
D13*
X58420000Y-34290000D03*
X58420000Y-31750000D03*
D15*
X20320000Y-40640000D03*
D16*
X20320000Y-38100000D03*
X20320000Y-35560000D03*
X20320000Y-33020000D03*
X20320000Y-30480000D03*
X20320000Y-27940000D03*
D15*
X88900000Y-66040000D03*
D16*
X88900000Y-68580000D03*
X86360000Y-66040000D03*
X86360000Y-68580000D03*
X83820000Y-66040000D03*
X83820000Y-68580000D03*
X81280000Y-66040000D03*
X81280000Y-68580000D03*
X78740000Y-66040000D03*
X78740000Y-68580000D03*
X76200000Y-66040000D03*
X76200000Y-68580000D03*
X73660000Y-66040000D03*
X73660000Y-68580000D03*
X71120000Y-66040000D03*
X71120000Y-68580000D03*
D15*
X45720000Y-66040000D03*
D16*
X43180000Y-66040000D03*
X40640000Y-66040000D03*
X38100000Y-66040000D03*
X35560000Y-66040000D03*
X33020000Y-66040000D03*
D15*
X61976000Y-20320000D03*
D16*
X61976000Y-22860000D03*
X59436000Y-20320000D03*
X59436000Y-22860000D03*
X56896000Y-20320000D03*
X56896000Y-22860000D03*
X54356000Y-20320000D03*
X54356000Y-22860000D03*
X51816000Y-20320000D03*
X51816000Y-22860000D03*
X49276000Y-20320000D03*
X49276000Y-22860000D03*
X46736000Y-20320000D03*
X46736000Y-22860000D03*
X44196000Y-20320000D03*
X44196000Y-22860000D03*
D15*
X53340000Y-68580000D03*
D16*
X55880000Y-68580000D03*
X58420000Y-68580000D03*
X60960000Y-68580000D03*
X63500000Y-68580000D03*
X66040000Y-68580000D03*
D15*
X83820000Y-20320000D03*
D16*
X83820000Y-22860000D03*
X81280000Y-20320000D03*
X81280000Y-22860000D03*
X78740000Y-20320000D03*
X78740000Y-22860000D03*
X76200000Y-20320000D03*
X76200000Y-22860000D03*
X73660000Y-20320000D03*
X73660000Y-22860000D03*
X71120000Y-20320000D03*
X71120000Y-22860000D03*
X68580000Y-20320000D03*
X68580000Y-22860000D03*
X66040000Y-20320000D03*
X66040000Y-22860000D03*
D15*
X86360000Y-38100000D03*
D16*
X86360000Y-40640000D03*
X86360000Y-43180000D03*
X86360000Y-45720000D03*
X86360000Y-48260000D03*
X86360000Y-50800000D03*
D15*
X27940000Y-40640000D03*
D16*
X25400000Y-40640000D03*
X27940000Y-38100000D03*
X25400000Y-38100000D03*
X27940000Y-35560000D03*
X25400000Y-35560000D03*
X27940000Y-33020000D03*
X25400000Y-33020000D03*
X27940000Y-30480000D03*
X25400000Y-30480000D03*
X27940000Y-27940000D03*
X25400000Y-27940000D03*
D15*
X27940000Y-63500000D03*
D16*
X25400000Y-63500000D03*
X27940000Y-60960000D03*
X25400000Y-60960000D03*
X27940000Y-58420000D03*
X25400000Y-58420000D03*
X27940000Y-55880000D03*
X25400000Y-55880000D03*
X27940000Y-53340000D03*
X25400000Y-53340000D03*
X27940000Y-50800000D03*
X25400000Y-50800000D03*
D17*
X33020000Y-27940000D03*
D18*
X39520000Y-27940000D03*
D19*
X39370000Y-36830000D03*
X38100000Y-36830000D03*
D20*
X40640000Y-36830000D03*
D21*
X45720000Y-57078000D03*
X45720000Y-52578000D03*
X52220000Y-57078000D03*
X52220000Y-52578000D03*
X59690000Y-57078000D03*
X59690000Y-52578000D03*
X66190000Y-57078000D03*
X66190000Y-52578000D03*
X72390000Y-57078000D03*
X72390000Y-52578000D03*
X78890000Y-57078000D03*
X78890000Y-52578000D03*
M02*
