M48
;DRILL file {KiCad 4.0.7} date Fri Jun  7 08:12:46 2019
;FORMAT={-:-/ absolute / inch / decimal}
FMAT,2
INCH,TZ
T1C0.016
T2C0.024
T3C0.028
T4C0.039
T5C0.043
%
G90
G05
M72
T1
X1.83Y-2.18
X1.92Y-2.215
X1.945Y-2.065
X1.95Y-2.255
X1.985Y-2.06
X1.985Y-2.19
X2.375Y-2.19
X2.48Y-2.065
X2.55Y-2.2
X2.575Y-2.13
X2.65Y-0.935
X2.88Y-2.16
X2.915Y-2.175
X2.915Y-2.22
X3.005Y-2.185
X3.02Y-2.13
X3.045Y-2.175
X3.05Y-0.935
X3.05Y-2.565
X3.15Y-0.935
T2
X1.5Y-1.45
X1.55Y-1.45
X1.6Y-1.45
T3
X1.8Y-1.25
X1.8Y-1.35
X1.8Y-1.45
X1.8Y-1.55
X1.8Y-1.65
X2.Y-1.25
X2.Y-1.35
X2.Y-1.45
X2.Y-1.55
X2.Y-1.65
X2.1Y-1.25
X2.1Y-1.35
X2.1Y-1.45
X2.1Y-1.55
X2.1Y-1.65
X2.3Y-1.25
X2.3Y-1.35
X2.3Y-1.45
X2.3Y-1.55
X2.3Y-1.65
X2.6Y-1.25
X2.6Y-1.35
X2.6Y-1.45
X2.6Y-1.55
X2.6Y-1.65
X2.8Y-1.25
X2.8Y-1.35
X2.8Y-1.45
X2.8Y-1.55
X2.8Y-1.65
X2.9Y-1.25
X2.9Y-1.35
X2.9Y-1.45
X2.9Y-1.55
X2.9Y-1.65
X3.1Y-1.25
X3.1Y-1.35
X3.1Y-1.45
X3.1Y-1.55
X3.1Y-1.65
T4
X0.8Y-1.1
X0.8Y-1.2
X0.8Y-1.3
X0.8Y-1.4
X0.8Y-1.5
X0.8Y-1.6
X1.Y-1.1
X1.Y-1.2
X1.Y-1.3
X1.Y-1.4
X1.Y-1.5
X1.Y-1.6
X1.Y-2.
X1.Y-2.1
X1.Y-2.2
X1.Y-2.3
X1.Y-2.4
X1.Y-2.5
X1.1Y-1.1
X1.1Y-1.2
X1.1Y-1.3
X1.1Y-1.4
X1.1Y-1.5
X1.1Y-1.6
X1.1Y-2.
X1.1Y-2.1
X1.1Y-2.2
X1.1Y-2.3
X1.1Y-2.4
X1.1Y-2.5
X1.3Y-1.1
X1.3Y-2.6
X1.4Y-2.6
X1.5Y-2.6
X1.5559Y-1.1
X1.6Y-2.6
X1.7Y-2.6
X1.74Y-0.8
X1.74Y-0.9
X1.8Y-2.6
X1.84Y-0.8
X1.84Y-0.9
X1.94Y-0.8
X1.94Y-0.9
X2.04Y-0.8
X2.04Y-0.9
X2.1Y-2.7
X2.14Y-0.8
X2.14Y-0.9
X2.2Y-2.7
X2.24Y-0.8
X2.24Y-0.9
X2.3Y-2.7
X2.34Y-0.8
X2.34Y-0.9
X2.4Y-2.7
X2.44Y-0.8
X2.44Y-0.9
X2.5Y-2.7
X2.6Y-0.8
X2.6Y-0.9
X2.6Y-2.7
X2.7Y-0.8
X2.7Y-0.9
X2.8Y-0.8
X2.8Y-0.9
X2.8Y-2.6
X2.8Y-2.7
X2.9Y-0.8
X2.9Y-0.9
X2.9Y-2.6
X2.9Y-2.7
X3.Y-0.8
X3.Y-0.9
X3.Y-2.6
X3.Y-2.7
X3.1Y-0.8
X3.1Y-0.9
X3.1Y-2.6
X3.1Y-2.7
X3.2Y-0.8
X3.2Y-0.9
X3.2Y-2.6
X3.2Y-2.7
X3.3Y-0.8
X3.3Y-0.9
X3.3Y-2.6
X3.3Y-2.7
X3.4Y-1.5
X3.4Y-1.6
X3.4Y-1.7
X3.4Y-1.8
X3.4Y-1.9
X3.4Y-2.
X3.4Y-2.6
X3.4Y-2.7
X3.5Y-2.6
X3.5Y-2.7
T5
X1.8Y-2.07
X1.8Y-2.2472
X2.0559Y-2.07
X2.0559Y-2.2472
X2.35Y-2.07
X2.35Y-2.2472
X2.6059Y-2.07
X2.6059Y-2.2472
X2.85Y-2.07
X2.85Y-2.2472
X3.1059Y-2.07
X3.1059Y-2.2472
T0
M30
